<mxfile host="app.diagrams.net" modified="2021-11-17T08:10:07.651Z" agent="5.0 (Macintosh; Intel Mac OS X 10_15_7) AppleWebKit/537.36 (KHTML, like Gecko) Chrome/95.0.4638.69 Safari/537.36" etag="JgOD_UpIUSCnIZ7bXv7k" version="15.7.3" type="github">
  <diagram id="R2lEEEUBdFMjLlhIrx00" name="Page-1">
    <mxGraphModel dx="2578" dy="1016" grid="1" gridSize="10" guides="1" tooltips="1" connect="1" arrows="1" fold="1" page="1" pageScale="1" pageWidth="850" pageHeight="1100" math="0" shadow="0" extFonts="Permanent Marker^https://fonts.googleapis.com/css?family=Permanent+Marker">
      <root>
        <mxCell id="0" />
        <mxCell id="1" parent="0" />
        <mxCell id="C-vyLk0tnHw3VtMMgP7b-1" value="" style="edgeStyle=entityRelationEdgeStyle;endArrow=ERzeroToMany;startArrow=ERone;endFill=1;startFill=0;" parent="1" source="C-vyLk0tnHw3VtMMgP7b-24" target="C-vyLk0tnHw3VtMMgP7b-6" edge="1">
          <mxGeometry width="100" height="100" relative="1" as="geometry">
            <mxPoint x="340" y="720" as="sourcePoint" />
            <mxPoint x="440" y="620" as="targetPoint" />
          </mxGeometry>
        </mxCell>
        <mxCell id="C-vyLk0tnHw3VtMMgP7b-12" value="" style="edgeStyle=entityRelationEdgeStyle;endArrow=ERzeroToMany;startArrow=ERone;endFill=1;startFill=0;" parent="1" source="C-vyLk0tnHw3VtMMgP7b-3" target="C-vyLk0tnHw3VtMMgP7b-17" edge="1">
          <mxGeometry width="100" height="100" relative="1" as="geometry">
            <mxPoint x="400" y="180" as="sourcePoint" />
            <mxPoint x="460" y="205" as="targetPoint" />
          </mxGeometry>
        </mxCell>
        <mxCell id="C-vyLk0tnHw3VtMMgP7b-2" value="Orders" style="shape=table;startSize=30;container=1;collapsible=1;childLayout=tableLayout;fixedRows=1;rowLines=0;fontStyle=1;align=center;resizeLast=1;" parent="1" vertex="1">
          <mxGeometry x="450" y="120" width="250" height="130" as="geometry" />
        </mxCell>
        <mxCell id="C-vyLk0tnHw3VtMMgP7b-3" value="" style="shape=partialRectangle;collapsible=0;dropTarget=0;pointerEvents=0;fillColor=none;points=[[0,0.5],[1,0.5]];portConstraint=eastwest;top=0;left=0;right=0;bottom=1;" parent="C-vyLk0tnHw3VtMMgP7b-2" vertex="1">
          <mxGeometry y="30" width="250" height="30" as="geometry" />
        </mxCell>
        <mxCell id="C-vyLk0tnHw3VtMMgP7b-4" value="PK" style="shape=partialRectangle;overflow=hidden;connectable=0;fillColor=none;top=0;left=0;bottom=0;right=0;fontStyle=1;" parent="C-vyLk0tnHw3VtMMgP7b-3" vertex="1">
          <mxGeometry width="30" height="30" as="geometry" />
        </mxCell>
        <mxCell id="C-vyLk0tnHw3VtMMgP7b-5" value="order_id int NOT NULL " style="shape=partialRectangle;overflow=hidden;connectable=0;fillColor=none;top=0;left=0;bottom=0;right=0;align=left;spacingLeft=6;fontStyle=5;" parent="C-vyLk0tnHw3VtMMgP7b-3" vertex="1">
          <mxGeometry x="30" width="220" height="30" as="geometry" />
        </mxCell>
        <mxCell id="C-vyLk0tnHw3VtMMgP7b-6" value="" style="shape=partialRectangle;collapsible=0;dropTarget=0;pointerEvents=0;fillColor=none;points=[[0,0.5],[1,0.5]];portConstraint=eastwest;top=0;left=0;right=0;bottom=0;" parent="C-vyLk0tnHw3VtMMgP7b-2" vertex="1">
          <mxGeometry y="60" width="250" height="30" as="geometry" />
        </mxCell>
        <mxCell id="C-vyLk0tnHw3VtMMgP7b-7" value="FK1" style="shape=partialRectangle;overflow=hidden;connectable=0;fillColor=none;top=0;left=0;bottom=0;right=0;" parent="C-vyLk0tnHw3VtMMgP7b-6" vertex="1">
          <mxGeometry width="30" height="30" as="geometry" />
        </mxCell>
        <mxCell id="C-vyLk0tnHw3VtMMgP7b-8" value="customer_id int NOT NULL" style="shape=partialRectangle;overflow=hidden;connectable=0;fillColor=none;top=0;left=0;bottom=0;right=0;align=left;spacingLeft=6;" parent="C-vyLk0tnHw3VtMMgP7b-6" vertex="1">
          <mxGeometry x="30" width="220" height="30" as="geometry" />
        </mxCell>
        <mxCell id="C-vyLk0tnHw3VtMMgP7b-9" value="" style="shape=partialRectangle;collapsible=0;dropTarget=0;pointerEvents=0;fillColor=none;points=[[0,0.5],[1,0.5]];portConstraint=eastwest;top=0;left=0;right=0;bottom=0;" parent="C-vyLk0tnHw3VtMMgP7b-2" vertex="1">
          <mxGeometry y="90" width="250" height="30" as="geometry" />
        </mxCell>
        <mxCell id="C-vyLk0tnHw3VtMMgP7b-10" value="" style="shape=partialRectangle;overflow=hidden;connectable=0;fillColor=none;top=0;left=0;bottom=0;right=0;" parent="C-vyLk0tnHw3VtMMgP7b-9" vertex="1">
          <mxGeometry width="30" height="30" as="geometry" />
        </mxCell>
        <mxCell id="C-vyLk0tnHw3VtMMgP7b-11" value="order_date date NOT NULL" style="shape=partialRectangle;overflow=hidden;connectable=0;fillColor=none;top=0;left=0;bottom=0;right=0;align=left;spacingLeft=6;" parent="C-vyLk0tnHw3VtMMgP7b-9" vertex="1">
          <mxGeometry x="30" width="220" height="30" as="geometry" />
        </mxCell>
        <mxCell id="C-vyLk0tnHw3VtMMgP7b-13" value="Shipments" style="shape=table;startSize=30;container=1;collapsible=1;childLayout=tableLayout;fixedRows=1;rowLines=0;fontStyle=1;align=center;resizeLast=1;" parent="1" vertex="1">
          <mxGeometry x="450" y="280" width="250" height="130" as="geometry" />
        </mxCell>
        <mxCell id="C-vyLk0tnHw3VtMMgP7b-14" value="" style="shape=partialRectangle;collapsible=0;dropTarget=0;pointerEvents=0;fillColor=none;points=[[0,0.5],[1,0.5]];portConstraint=eastwest;top=0;left=0;right=0;bottom=1;" parent="C-vyLk0tnHw3VtMMgP7b-13" vertex="1">
          <mxGeometry y="30" width="250" height="30" as="geometry" />
        </mxCell>
        <mxCell id="C-vyLk0tnHw3VtMMgP7b-15" value="PK" style="shape=partialRectangle;overflow=hidden;connectable=0;fillColor=none;top=0;left=0;bottom=0;right=0;fontStyle=1;" parent="C-vyLk0tnHw3VtMMgP7b-14" vertex="1">
          <mxGeometry width="30" height="30" as="geometry" />
        </mxCell>
        <mxCell id="C-vyLk0tnHw3VtMMgP7b-16" value="shipment_id int NOT NULL " style="shape=partialRectangle;overflow=hidden;connectable=0;fillColor=none;top=0;left=0;bottom=0;right=0;align=left;spacingLeft=6;fontStyle=5;" parent="C-vyLk0tnHw3VtMMgP7b-14" vertex="1">
          <mxGeometry x="30" width="220" height="30" as="geometry" />
        </mxCell>
        <mxCell id="C-vyLk0tnHw3VtMMgP7b-17" value="" style="shape=partialRectangle;collapsible=0;dropTarget=0;pointerEvents=0;fillColor=none;points=[[0,0.5],[1,0.5]];portConstraint=eastwest;top=0;left=0;right=0;bottom=0;" parent="C-vyLk0tnHw3VtMMgP7b-13" vertex="1">
          <mxGeometry y="60" width="250" height="30" as="geometry" />
        </mxCell>
        <mxCell id="C-vyLk0tnHw3VtMMgP7b-18" value="FK1" style="shape=partialRectangle;overflow=hidden;connectable=0;fillColor=none;top=0;left=0;bottom=0;right=0;" parent="C-vyLk0tnHw3VtMMgP7b-17" vertex="1">
          <mxGeometry width="30" height="30" as="geometry" />
        </mxCell>
        <mxCell id="C-vyLk0tnHw3VtMMgP7b-19" value="order_id int NOT NULL" style="shape=partialRectangle;overflow=hidden;connectable=0;fillColor=none;top=0;left=0;bottom=0;right=0;align=left;spacingLeft=6;" parent="C-vyLk0tnHw3VtMMgP7b-17" vertex="1">
          <mxGeometry x="30" width="220" height="30" as="geometry" />
        </mxCell>
        <mxCell id="C-vyLk0tnHw3VtMMgP7b-20" value="" style="shape=partialRectangle;collapsible=0;dropTarget=0;pointerEvents=0;fillColor=none;points=[[0,0.5],[1,0.5]];portConstraint=eastwest;top=0;left=0;right=0;bottom=0;" parent="C-vyLk0tnHw3VtMMgP7b-13" vertex="1">
          <mxGeometry y="90" width="250" height="30" as="geometry" />
        </mxCell>
        <mxCell id="C-vyLk0tnHw3VtMMgP7b-21" value="" style="shape=partialRectangle;overflow=hidden;connectable=0;fillColor=none;top=0;left=0;bottom=0;right=0;" parent="C-vyLk0tnHw3VtMMgP7b-20" vertex="1">
          <mxGeometry width="30" height="30" as="geometry" />
        </mxCell>
        <mxCell id="C-vyLk0tnHw3VtMMgP7b-22" value="shipment_date date NOT NULL" style="shape=partialRectangle;overflow=hidden;connectable=0;fillColor=none;top=0;left=0;bottom=0;right=0;align=left;spacingLeft=6;" parent="C-vyLk0tnHw3VtMMgP7b-20" vertex="1">
          <mxGeometry x="30" width="220" height="30" as="geometry" />
        </mxCell>
        <mxCell id="C-vyLk0tnHw3VtMMgP7b-23" value="Customers" style="shape=table;startSize=30;container=1;collapsible=1;childLayout=tableLayout;fixedRows=1;rowLines=0;fontStyle=1;align=center;resizeLast=1;" parent="1" vertex="1">
          <mxGeometry x="120" y="120" width="250" height="100" as="geometry" />
        </mxCell>
        <mxCell id="C-vyLk0tnHw3VtMMgP7b-24" value="" style="shape=partialRectangle;collapsible=0;dropTarget=0;pointerEvents=0;fillColor=none;points=[[0,0.5],[1,0.5]];portConstraint=eastwest;top=0;left=0;right=0;bottom=1;" parent="C-vyLk0tnHw3VtMMgP7b-23" vertex="1">
          <mxGeometry y="30" width="250" height="30" as="geometry" />
        </mxCell>
        <mxCell id="C-vyLk0tnHw3VtMMgP7b-25" value="PK" style="shape=partialRectangle;overflow=hidden;connectable=0;fillColor=none;top=0;left=0;bottom=0;right=0;fontStyle=1;" parent="C-vyLk0tnHw3VtMMgP7b-24" vertex="1">
          <mxGeometry width="30" height="30" as="geometry" />
        </mxCell>
        <mxCell id="C-vyLk0tnHw3VtMMgP7b-26" value="customer_id int NOT NULL " style="shape=partialRectangle;overflow=hidden;connectable=0;fillColor=none;top=0;left=0;bottom=0;right=0;align=left;spacingLeft=6;fontStyle=5;" parent="C-vyLk0tnHw3VtMMgP7b-24" vertex="1">
          <mxGeometry x="30" width="220" height="30" as="geometry" />
        </mxCell>
        <mxCell id="C-vyLk0tnHw3VtMMgP7b-27" value="" style="shape=partialRectangle;collapsible=0;dropTarget=0;pointerEvents=0;fillColor=none;points=[[0,0.5],[1,0.5]];portConstraint=eastwest;top=0;left=0;right=0;bottom=0;" parent="C-vyLk0tnHw3VtMMgP7b-23" vertex="1">
          <mxGeometry y="60" width="250" height="30" as="geometry" />
        </mxCell>
        <mxCell id="C-vyLk0tnHw3VtMMgP7b-28" value="" style="shape=partialRectangle;overflow=hidden;connectable=0;fillColor=none;top=0;left=0;bottom=0;right=0;" parent="C-vyLk0tnHw3VtMMgP7b-27" vertex="1">
          <mxGeometry width="30" height="30" as="geometry" />
        </mxCell>
        <mxCell id="C-vyLk0tnHw3VtMMgP7b-29" value="customer_name char(50) NOT NULL" style="shape=partialRectangle;overflow=hidden;connectable=0;fillColor=none;top=0;left=0;bottom=0;right=0;align=left;spacingLeft=6;" parent="C-vyLk0tnHw3VtMMgP7b-27" vertex="1">
          <mxGeometry x="30" width="220" height="30" as="geometry" />
        </mxCell>
        <mxCell id="CJhWm5E5vZRmMb6Nd0v4-1" value="ProjectPlanTask" style="shape=table;startSize=30;container=1;collapsible=1;childLayout=tableLayout;fixedRows=1;rowLines=0;fontStyle=1;align=center;resizeLast=1;" vertex="1" parent="1">
          <mxGeometry x="100" y="390" width="150" height="220" as="geometry" />
        </mxCell>
        <mxCell id="CJhWm5E5vZRmMb6Nd0v4-2" value="" style="shape=partialRectangle;collapsible=0;dropTarget=0;pointerEvents=0;fillColor=none;points=[[0,0.5],[1,0.5]];portConstraint=eastwest;top=0;left=0;right=0;bottom=1;" vertex="1" parent="CJhWm5E5vZRmMb6Nd0v4-1">
          <mxGeometry y="30" width="150" height="30" as="geometry" />
        </mxCell>
        <mxCell id="CJhWm5E5vZRmMb6Nd0v4-3" value="PK" style="shape=partialRectangle;overflow=hidden;connectable=0;fillColor=none;top=0;left=0;bottom=0;right=0;fontStyle=1;" vertex="1" parent="CJhWm5E5vZRmMb6Nd0v4-2">
          <mxGeometry width="30" height="30" as="geometry">
            <mxRectangle width="30" height="30" as="alternateBounds" />
          </mxGeometry>
        </mxCell>
        <mxCell id="CJhWm5E5vZRmMb6Nd0v4-4" value="ID" style="shape=partialRectangle;overflow=hidden;connectable=0;fillColor=none;top=0;left=0;bottom=0;right=0;align=left;spacingLeft=6;fontStyle=5;" vertex="1" parent="CJhWm5E5vZRmMb6Nd0v4-2">
          <mxGeometry x="30" width="120" height="30" as="geometry">
            <mxRectangle width="120" height="30" as="alternateBounds" />
          </mxGeometry>
        </mxCell>
        <mxCell id="CJhWm5E5vZRmMb6Nd0v4-5" value="" style="shape=partialRectangle;collapsible=0;dropTarget=0;pointerEvents=0;fillColor=none;points=[[0,0.5],[1,0.5]];portConstraint=eastwest;top=0;left=0;right=0;bottom=0;" vertex="1" parent="CJhWm5E5vZRmMb6Nd0v4-1">
          <mxGeometry y="60" width="150" height="30" as="geometry" />
        </mxCell>
        <mxCell id="CJhWm5E5vZRmMb6Nd0v4-6" value="" style="shape=partialRectangle;overflow=hidden;connectable=0;fillColor=none;top=0;left=0;bottom=0;right=0;" vertex="1" parent="CJhWm5E5vZRmMb6Nd0v4-5">
          <mxGeometry width="30" height="30" as="geometry">
            <mxRectangle width="30" height="30" as="alternateBounds" />
          </mxGeometry>
        </mxCell>
        <mxCell id="CJhWm5E5vZRmMb6Nd0v4-7" value="projectID" style="shape=partialRectangle;overflow=hidden;connectable=0;fillColor=none;top=0;left=0;bottom=0;right=0;align=left;spacingLeft=6;" vertex="1" parent="CJhWm5E5vZRmMb6Nd0v4-5">
          <mxGeometry x="30" width="120" height="30" as="geometry">
            <mxRectangle width="120" height="30" as="alternateBounds" />
          </mxGeometry>
        </mxCell>
        <mxCell id="CJhWm5E5vZRmMb6Nd0v4-9" value="" style="shape=partialRectangle;collapsible=0;dropTarget=0;pointerEvents=0;fillColor=none;points=[[0,0.5],[1,0.5]];portConstraint=eastwest;top=0;left=0;right=0;bottom=0;" vertex="1" parent="CJhWm5E5vZRmMb6Nd0v4-1">
          <mxGeometry y="90" width="150" height="30" as="geometry" />
        </mxCell>
        <mxCell id="CJhWm5E5vZRmMb6Nd0v4-10" value="" style="shape=partialRectangle;overflow=hidden;connectable=0;fillColor=none;top=0;left=0;bottom=0;right=0;" vertex="1" parent="CJhWm5E5vZRmMb6Nd0v4-9">
          <mxGeometry width="30" height="30" as="geometry">
            <mxRectangle width="30" height="30" as="alternateBounds" />
          </mxGeometry>
        </mxCell>
        <mxCell id="CJhWm5E5vZRmMb6Nd0v4-11" value="projectPlanID" style="shape=partialRectangle;overflow=hidden;connectable=0;fillColor=none;top=0;left=0;bottom=0;right=0;align=left;spacingLeft=6;" vertex="1" parent="CJhWm5E5vZRmMb6Nd0v4-9">
          <mxGeometry x="30" width="120" height="30" as="geometry">
            <mxRectangle width="120" height="30" as="alternateBounds" />
          </mxGeometry>
        </mxCell>
        <mxCell id="CJhWm5E5vZRmMb6Nd0v4-12" value="" style="shape=partialRectangle;collapsible=0;dropTarget=0;pointerEvents=0;fillColor=none;points=[[0,0.5],[1,0.5]];portConstraint=eastwest;top=0;left=0;right=0;bottom=0;" vertex="1" parent="CJhWm5E5vZRmMb6Nd0v4-1">
          <mxGeometry y="120" width="150" height="30" as="geometry" />
        </mxCell>
        <mxCell id="CJhWm5E5vZRmMb6Nd0v4-13" value="" style="shape=partialRectangle;overflow=hidden;connectable=0;fillColor=none;top=0;left=0;bottom=0;right=0;" vertex="1" parent="CJhWm5E5vZRmMb6Nd0v4-12">
          <mxGeometry width="30" height="30" as="geometry">
            <mxRectangle width="30" height="30" as="alternateBounds" />
          </mxGeometry>
        </mxCell>
        <mxCell id="CJhWm5E5vZRmMb6Nd0v4-14" value="parentTaskID" style="shape=partialRectangle;overflow=hidden;connectable=0;fillColor=none;top=0;left=0;bottom=0;right=0;align=left;spacingLeft=6;" vertex="1" parent="CJhWm5E5vZRmMb6Nd0v4-12">
          <mxGeometry x="30" width="120" height="30" as="geometry">
            <mxRectangle width="120" height="30" as="alternateBounds" />
          </mxGeometry>
        </mxCell>
        <mxCell id="CJhWm5E5vZRmMb6Nd0v4-115" value="" style="shape=partialRectangle;collapsible=0;dropTarget=0;pointerEvents=0;fillColor=none;points=[[0,0.5],[1,0.5]];portConstraint=eastwest;top=0;left=0;right=0;bottom=0;" vertex="1" parent="CJhWm5E5vZRmMb6Nd0v4-1">
          <mxGeometry y="150" width="150" height="30" as="geometry" />
        </mxCell>
        <mxCell id="CJhWm5E5vZRmMb6Nd0v4-116" value="" style="shape=partialRectangle;overflow=hidden;connectable=0;fillColor=none;top=0;left=0;bottom=0;right=0;" vertex="1" parent="CJhWm5E5vZRmMb6Nd0v4-115">
          <mxGeometry width="30" height="30" as="geometry">
            <mxRectangle width="30" height="30" as="alternateBounds" />
          </mxGeometry>
        </mxCell>
        <mxCell id="CJhWm5E5vZRmMb6Nd0v4-117" value="sortNumber" style="shape=partialRectangle;overflow=hidden;connectable=0;fillColor=none;top=0;left=0;bottom=0;right=0;align=left;spacingLeft=6;" vertex="1" parent="CJhWm5E5vZRmMb6Nd0v4-115">
          <mxGeometry x="30" width="120" height="30" as="geometry">
            <mxRectangle width="120" height="30" as="alternateBounds" />
          </mxGeometry>
        </mxCell>
        <mxCell id="CJhWm5E5vZRmMb6Nd0v4-15" value="" style="shape=partialRectangle;collapsible=0;dropTarget=0;pointerEvents=0;fillColor=none;points=[[0,0.5],[1,0.5]];portConstraint=eastwest;top=0;left=0;right=0;bottom=0;" vertex="1" parent="CJhWm5E5vZRmMb6Nd0v4-1">
          <mxGeometry y="180" width="150" height="30" as="geometry" />
        </mxCell>
        <mxCell id="CJhWm5E5vZRmMb6Nd0v4-16" value="" style="shape=partialRectangle;overflow=hidden;connectable=0;fillColor=none;top=0;left=0;bottom=0;right=0;" vertex="1" parent="CJhWm5E5vZRmMb6Nd0v4-15">
          <mxGeometry width="30" height="30" as="geometry">
            <mxRectangle width="30" height="30" as="alternateBounds" />
          </mxGeometry>
        </mxCell>
        <mxCell id="CJhWm5E5vZRmMb6Nd0v4-17" value="other Attributes" style="shape=partialRectangle;overflow=hidden;connectable=0;fillColor=none;top=0;left=0;bottom=0;right=0;align=left;spacingLeft=6;" vertex="1" parent="CJhWm5E5vZRmMb6Nd0v4-15">
          <mxGeometry x="30" width="120" height="30" as="geometry">
            <mxRectangle width="120" height="30" as="alternateBounds" />
          </mxGeometry>
        </mxCell>
        <mxCell id="CJhWm5E5vZRmMb6Nd0v4-18" value="ProjectPlanTask" style="shape=table;startSize=30;container=1;collapsible=1;childLayout=tableLayout;fixedRows=1;rowLines=0;fontStyle=1;align=center;resizeLast=1;" vertex="1" parent="1">
          <mxGeometry x="420" y="470" width="150" height="220" as="geometry" />
        </mxCell>
        <mxCell id="CJhWm5E5vZRmMb6Nd0v4-19" value="" style="shape=partialRectangle;collapsible=0;dropTarget=0;pointerEvents=0;fillColor=none;points=[[0,0.5],[1,0.5]];portConstraint=eastwest;top=0;left=0;right=0;bottom=1;" vertex="1" parent="CJhWm5E5vZRmMb6Nd0v4-18">
          <mxGeometry y="30" width="150" height="30" as="geometry" />
        </mxCell>
        <mxCell id="CJhWm5E5vZRmMb6Nd0v4-20" value="PK" style="shape=partialRectangle;overflow=hidden;connectable=0;fillColor=none;top=0;left=0;bottom=0;right=0;fontStyle=1;" vertex="1" parent="CJhWm5E5vZRmMb6Nd0v4-19">
          <mxGeometry width="30" height="30" as="geometry">
            <mxRectangle width="30" height="30" as="alternateBounds" />
          </mxGeometry>
        </mxCell>
        <mxCell id="CJhWm5E5vZRmMb6Nd0v4-21" value="ID" style="shape=partialRectangle;overflow=hidden;connectable=0;fillColor=none;top=0;left=0;bottom=0;right=0;align=left;spacingLeft=6;fontStyle=5;" vertex="1" parent="CJhWm5E5vZRmMb6Nd0v4-19">
          <mxGeometry x="30" width="120" height="30" as="geometry">
            <mxRectangle width="120" height="30" as="alternateBounds" />
          </mxGeometry>
        </mxCell>
        <mxCell id="CJhWm5E5vZRmMb6Nd0v4-22" value="" style="shape=partialRectangle;collapsible=0;dropTarget=0;pointerEvents=0;fillColor=none;points=[[0,0.5],[1,0.5]];portConstraint=eastwest;top=0;left=0;right=0;bottom=0;" vertex="1" parent="CJhWm5E5vZRmMb6Nd0v4-18">
          <mxGeometry y="60" width="150" height="30" as="geometry" />
        </mxCell>
        <mxCell id="CJhWm5E5vZRmMb6Nd0v4-23" value="" style="shape=partialRectangle;overflow=hidden;connectable=0;fillColor=none;top=0;left=0;bottom=0;right=0;" vertex="1" parent="CJhWm5E5vZRmMb6Nd0v4-22">
          <mxGeometry width="30" height="30" as="geometry">
            <mxRectangle width="30" height="30" as="alternateBounds" />
          </mxGeometry>
        </mxCell>
        <mxCell id="CJhWm5E5vZRmMb6Nd0v4-24" value="projectID" style="shape=partialRectangle;overflow=hidden;connectable=0;fillColor=none;top=0;left=0;bottom=0;right=0;align=left;spacingLeft=6;" vertex="1" parent="CJhWm5E5vZRmMb6Nd0v4-22">
          <mxGeometry x="30" width="120" height="30" as="geometry">
            <mxRectangle width="120" height="30" as="alternateBounds" />
          </mxGeometry>
        </mxCell>
        <mxCell id="CJhWm5E5vZRmMb6Nd0v4-25" value="" style="shape=partialRectangle;collapsible=0;dropTarget=0;pointerEvents=0;fillColor=none;points=[[0,0.5],[1,0.5]];portConstraint=eastwest;top=0;left=0;right=0;bottom=0;" vertex="1" parent="CJhWm5E5vZRmMb6Nd0v4-18">
          <mxGeometry y="90" width="150" height="30" as="geometry" />
        </mxCell>
        <mxCell id="CJhWm5E5vZRmMb6Nd0v4-26" value="" style="shape=partialRectangle;overflow=hidden;connectable=0;fillColor=none;top=0;left=0;bottom=0;right=0;" vertex="1" parent="CJhWm5E5vZRmMb6Nd0v4-25">
          <mxGeometry width="30" height="30" as="geometry">
            <mxRectangle width="30" height="30" as="alternateBounds" />
          </mxGeometry>
        </mxCell>
        <mxCell id="CJhWm5E5vZRmMb6Nd0v4-27" value="projectPlanID" style="shape=partialRectangle;overflow=hidden;connectable=0;fillColor=none;top=0;left=0;bottom=0;right=0;align=left;spacingLeft=6;" vertex="1" parent="CJhWm5E5vZRmMb6Nd0v4-25">
          <mxGeometry x="30" width="120" height="30" as="geometry">
            <mxRectangle width="120" height="30" as="alternateBounds" />
          </mxGeometry>
        </mxCell>
        <mxCell id="CJhWm5E5vZRmMb6Nd0v4-28" value="" style="shape=partialRectangle;collapsible=0;dropTarget=0;pointerEvents=0;fillColor=none;points=[[0,0.5],[1,0.5]];portConstraint=eastwest;top=0;left=0;right=0;bottom=0;" vertex="1" parent="CJhWm5E5vZRmMb6Nd0v4-18">
          <mxGeometry y="120" width="150" height="30" as="geometry" />
        </mxCell>
        <mxCell id="CJhWm5E5vZRmMb6Nd0v4-29" value="" style="shape=partialRectangle;overflow=hidden;connectable=0;fillColor=none;top=0;left=0;bottom=0;right=0;" vertex="1" parent="CJhWm5E5vZRmMb6Nd0v4-28">
          <mxGeometry width="30" height="30" as="geometry">
            <mxRectangle width="30" height="30" as="alternateBounds" />
          </mxGeometry>
        </mxCell>
        <mxCell id="CJhWm5E5vZRmMb6Nd0v4-30" value="parentTaskID1" style="shape=partialRectangle;overflow=hidden;connectable=0;fillColor=none;top=0;left=0;bottom=0;right=0;align=left;spacingLeft=6;" vertex="1" parent="CJhWm5E5vZRmMb6Nd0v4-28">
          <mxGeometry x="30" width="120" height="30" as="geometry">
            <mxRectangle width="120" height="30" as="alternateBounds" />
          </mxGeometry>
        </mxCell>
        <mxCell id="CJhWm5E5vZRmMb6Nd0v4-34" value="" style="shape=partialRectangle;collapsible=0;dropTarget=0;pointerEvents=0;fillColor=none;points=[[0,0.5],[1,0.5]];portConstraint=eastwest;top=0;left=0;right=0;bottom=0;" vertex="1" parent="CJhWm5E5vZRmMb6Nd0v4-18">
          <mxGeometry y="150" width="150" height="30" as="geometry" />
        </mxCell>
        <mxCell id="CJhWm5E5vZRmMb6Nd0v4-35" value="" style="shape=partialRectangle;overflow=hidden;connectable=0;fillColor=none;top=0;left=0;bottom=0;right=0;" vertex="1" parent="CJhWm5E5vZRmMb6Nd0v4-34">
          <mxGeometry width="30" height="30" as="geometry">
            <mxRectangle width="30" height="30" as="alternateBounds" />
          </mxGeometry>
        </mxCell>
        <mxCell id="CJhWm5E5vZRmMb6Nd0v4-36" value="parentTaskID2" style="shape=partialRectangle;overflow=hidden;connectable=0;fillColor=none;top=0;left=0;bottom=0;right=0;align=left;spacingLeft=6;" vertex="1" parent="CJhWm5E5vZRmMb6Nd0v4-34">
          <mxGeometry x="30" width="120" height="30" as="geometry">
            <mxRectangle width="120" height="30" as="alternateBounds" />
          </mxGeometry>
        </mxCell>
        <mxCell id="CJhWm5E5vZRmMb6Nd0v4-31" value="" style="shape=partialRectangle;collapsible=0;dropTarget=0;pointerEvents=0;fillColor=none;points=[[0,0.5],[1,0.5]];portConstraint=eastwest;top=0;left=0;right=0;bottom=0;" vertex="1" parent="CJhWm5E5vZRmMb6Nd0v4-18">
          <mxGeometry y="180" width="150" height="30" as="geometry" />
        </mxCell>
        <mxCell id="CJhWm5E5vZRmMb6Nd0v4-32" value="" style="shape=partialRectangle;overflow=hidden;connectable=0;fillColor=none;top=0;left=0;bottom=0;right=0;" vertex="1" parent="CJhWm5E5vZRmMb6Nd0v4-31">
          <mxGeometry width="30" height="30" as="geometry">
            <mxRectangle width="30" height="30" as="alternateBounds" />
          </mxGeometry>
        </mxCell>
        <mxCell id="CJhWm5E5vZRmMb6Nd0v4-33" value="other Attributes" style="shape=partialRectangle;overflow=hidden;connectable=0;fillColor=none;top=0;left=0;bottom=0;right=0;align=left;spacingLeft=6;" vertex="1" parent="CJhWm5E5vZRmMb6Nd0v4-31">
          <mxGeometry x="30" width="120" height="30" as="geometry">
            <mxRectangle width="120" height="30" as="alternateBounds" />
          </mxGeometry>
        </mxCell>
        <mxCell id="CJhWm5E5vZRmMb6Nd0v4-37" value="HierarchyHeader" style="shape=table;startSize=30;container=1;collapsible=1;childLayout=tableLayout;fixedRows=1;rowLines=0;fontStyle=1;align=center;resizeLast=1;" vertex="1" parent="1">
          <mxGeometry x="85" y="835" width="180" height="220" as="geometry" />
        </mxCell>
        <mxCell id="CJhWm5E5vZRmMb6Nd0v4-38" value="" style="shape=partialRectangle;collapsible=0;dropTarget=0;pointerEvents=0;fillColor=none;points=[[0,0.5],[1,0.5]];portConstraint=eastwest;top=0;left=0;right=0;bottom=1;" vertex="1" parent="CJhWm5E5vZRmMb6Nd0v4-37">
          <mxGeometry y="30" width="180" height="30" as="geometry" />
        </mxCell>
        <mxCell id="CJhWm5E5vZRmMb6Nd0v4-39" value="PK" style="shape=partialRectangle;overflow=hidden;connectable=0;fillColor=none;top=0;left=0;bottom=0;right=0;fontStyle=1;" vertex="1" parent="CJhWm5E5vZRmMb6Nd0v4-38">
          <mxGeometry width="30" height="30" as="geometry">
            <mxRectangle width="30" height="30" as="alternateBounds" />
          </mxGeometry>
        </mxCell>
        <mxCell id="CJhWm5E5vZRmMb6Nd0v4-40" value="ID" style="shape=partialRectangle;overflow=hidden;connectable=0;fillColor=none;top=0;left=0;bottom=0;right=0;align=left;spacingLeft=6;fontStyle=5;" vertex="1" parent="CJhWm5E5vZRmMb6Nd0v4-38">
          <mxGeometry x="30" width="150" height="30" as="geometry">
            <mxRectangle width="150" height="30" as="alternateBounds" />
          </mxGeometry>
        </mxCell>
        <mxCell id="CJhWm5E5vZRmMb6Nd0v4-41" value="" style="shape=partialRectangle;collapsible=0;dropTarget=0;pointerEvents=0;fillColor=none;points=[[0,0.5],[1,0.5]];portConstraint=eastwest;top=0;left=0;right=0;bottom=0;" vertex="1" parent="CJhWm5E5vZRmMb6Nd0v4-37">
          <mxGeometry y="60" width="180" height="30" as="geometry" />
        </mxCell>
        <mxCell id="CJhWm5E5vZRmMb6Nd0v4-42" value="" style="shape=partialRectangle;overflow=hidden;connectable=0;fillColor=none;top=0;left=0;bottom=0;right=0;" vertex="1" parent="CJhWm5E5vZRmMb6Nd0v4-41">
          <mxGeometry width="30" height="30" as="geometry">
            <mxRectangle width="30" height="30" as="alternateBounds" />
          </mxGeometry>
        </mxCell>
        <mxCell id="CJhWm5E5vZRmMb6Nd0v4-43" value="linkedObjID(Project Plan)" style="shape=partialRectangle;overflow=hidden;connectable=0;fillColor=none;top=0;left=0;bottom=0;right=0;align=left;spacingLeft=6;" vertex="1" parent="CJhWm5E5vZRmMb6Nd0v4-41">
          <mxGeometry x="30" width="150" height="30" as="geometry">
            <mxRectangle width="150" height="30" as="alternateBounds" />
          </mxGeometry>
        </mxCell>
        <mxCell id="CJhWm5E5vZRmMb6Nd0v4-44" value="" style="shape=partialRectangle;collapsible=0;dropTarget=0;pointerEvents=0;fillColor=none;points=[[0,0.5],[1,0.5]];portConstraint=eastwest;top=0;left=0;right=0;bottom=0;" vertex="1" parent="CJhWm5E5vZRmMb6Nd0v4-37">
          <mxGeometry y="90" width="180" height="30" as="geometry" />
        </mxCell>
        <mxCell id="CJhWm5E5vZRmMb6Nd0v4-45" value="" style="shape=partialRectangle;overflow=hidden;connectable=0;fillColor=none;top=0;left=0;bottom=0;right=0;" vertex="1" parent="CJhWm5E5vZRmMb6Nd0v4-44">
          <mxGeometry width="30" height="30" as="geometry">
            <mxRectangle width="30" height="30" as="alternateBounds" />
          </mxGeometry>
        </mxCell>
        <mxCell id="CJhWm5E5vZRmMb6Nd0v4-46" value="rootConnectionID" style="shape=partialRectangle;overflow=hidden;connectable=0;fillColor=none;top=0;left=0;bottom=0;right=0;align=left;spacingLeft=6;" vertex="1" parent="CJhWm5E5vZRmMb6Nd0v4-44">
          <mxGeometry x="30" width="150" height="30" as="geometry">
            <mxRectangle width="150" height="30" as="alternateBounds" />
          </mxGeometry>
        </mxCell>
        <mxCell id="CJhWm5E5vZRmMb6Nd0v4-47" value="" style="shape=partialRectangle;collapsible=0;dropTarget=0;pointerEvents=0;fillColor=none;points=[[0,0.5],[1,0.5]];portConstraint=eastwest;top=0;left=0;right=0;bottom=0;" vertex="1" parent="CJhWm5E5vZRmMb6Nd0v4-37">
          <mxGeometry y="120" width="180" height="30" as="geometry" />
        </mxCell>
        <mxCell id="CJhWm5E5vZRmMb6Nd0v4-48" value="" style="shape=partialRectangle;overflow=hidden;connectable=0;fillColor=none;top=0;left=0;bottom=0;right=0;" vertex="1" parent="CJhWm5E5vZRmMb6Nd0v4-47">
          <mxGeometry width="30" height="30" as="geometry">
            <mxRectangle width="30" height="30" as="alternateBounds" />
          </mxGeometry>
        </mxCell>
        <mxCell id="CJhWm5E5vZRmMb6Nd0v4-49" value="profile" style="shape=partialRectangle;overflow=hidden;connectable=0;fillColor=none;top=0;left=0;bottom=0;right=0;align=left;spacingLeft=6;" vertex="1" parent="CJhWm5E5vZRmMb6Nd0v4-47">
          <mxGeometry x="30" width="150" height="30" as="geometry">
            <mxRectangle width="150" height="30" as="alternateBounds" />
          </mxGeometry>
        </mxCell>
        <mxCell id="CJhWm5E5vZRmMb6Nd0v4-50" value="" style="shape=partialRectangle;collapsible=0;dropTarget=0;pointerEvents=0;fillColor=none;points=[[0,0.5],[1,0.5]];portConstraint=eastwest;top=0;left=0;right=0;bottom=0;" vertex="1" parent="CJhWm5E5vZRmMb6Nd0v4-37">
          <mxGeometry y="150" width="180" height="30" as="geometry" />
        </mxCell>
        <mxCell id="CJhWm5E5vZRmMb6Nd0v4-51" value="" style="shape=partialRectangle;overflow=hidden;connectable=0;fillColor=none;top=0;left=0;bottom=0;right=0;" vertex="1" parent="CJhWm5E5vZRmMb6Nd0v4-50">
          <mxGeometry width="30" height="30" as="geometry">
            <mxRectangle width="30" height="30" as="alternateBounds" />
          </mxGeometry>
        </mxCell>
        <mxCell id="CJhWm5E5vZRmMb6Nd0v4-52" value="scopeObjID(Project)" style="shape=partialRectangle;overflow=hidden;connectable=0;fillColor=#FF3399;top=0;left=0;bottom=0;right=0;align=left;spacingLeft=6;" vertex="1" parent="CJhWm5E5vZRmMb6Nd0v4-50">
          <mxGeometry x="30" width="150" height="30" as="geometry">
            <mxRectangle width="150" height="30" as="alternateBounds" />
          </mxGeometry>
        </mxCell>
        <mxCell id="CJhWm5E5vZRmMb6Nd0v4-53" value="" style="shape=partialRectangle;collapsible=0;dropTarget=0;pointerEvents=0;fillColor=none;points=[[0,0.5],[1,0.5]];portConstraint=eastwest;top=0;left=0;right=0;bottom=0;" vertex="1" parent="CJhWm5E5vZRmMb6Nd0v4-37">
          <mxGeometry y="180" width="180" height="30" as="geometry" />
        </mxCell>
        <mxCell id="CJhWm5E5vZRmMb6Nd0v4-54" value="" style="shape=partialRectangle;overflow=hidden;connectable=0;fillColor=none;top=0;left=0;bottom=0;right=0;" vertex="1" parent="CJhWm5E5vZRmMb6Nd0v4-53">
          <mxGeometry width="30" height="30" as="geometry">
            <mxRectangle width="30" height="30" as="alternateBounds" />
          </mxGeometry>
        </mxCell>
        <mxCell id="CJhWm5E5vZRmMb6Nd0v4-55" value="otherAttributes" style="shape=partialRectangle;overflow=hidden;connectable=0;fillColor=none;top=0;left=0;bottom=0;right=0;align=left;spacingLeft=6;" vertex="1" parent="CJhWm5E5vZRmMb6Nd0v4-53">
          <mxGeometry x="30" width="150" height="30" as="geometry">
            <mxRectangle width="150" height="30" as="alternateBounds" />
          </mxGeometry>
        </mxCell>
        <mxCell id="CJhWm5E5vZRmMb6Nd0v4-56" value="HierarchyConnection" style="shape=table;startSize=30;container=1;collapsible=1;childLayout=tableLayout;fixedRows=1;rowLines=0;fontStyle=1;align=center;resizeLast=1;" vertex="1" parent="1">
          <mxGeometry x="370" y="840" width="150" height="250" as="geometry" />
        </mxCell>
        <mxCell id="CJhWm5E5vZRmMb6Nd0v4-57" value="" style="shape=partialRectangle;collapsible=0;dropTarget=0;pointerEvents=0;fillColor=none;points=[[0,0.5],[1,0.5]];portConstraint=eastwest;top=0;left=0;right=0;bottom=1;" vertex="1" parent="CJhWm5E5vZRmMb6Nd0v4-56">
          <mxGeometry y="30" width="150" height="30" as="geometry" />
        </mxCell>
        <mxCell id="CJhWm5E5vZRmMb6Nd0v4-58" value="PK" style="shape=partialRectangle;overflow=hidden;connectable=0;fillColor=none;top=0;left=0;bottom=0;right=0;fontStyle=1;" vertex="1" parent="CJhWm5E5vZRmMb6Nd0v4-57">
          <mxGeometry width="30" height="30" as="geometry">
            <mxRectangle width="30" height="30" as="alternateBounds" />
          </mxGeometry>
        </mxCell>
        <mxCell id="CJhWm5E5vZRmMb6Nd0v4-59" value="ID" style="shape=partialRectangle;overflow=hidden;connectable=0;fillColor=none;top=0;left=0;bottom=0;right=0;align=left;spacingLeft=6;fontStyle=5;" vertex="1" parent="CJhWm5E5vZRmMb6Nd0v4-57">
          <mxGeometry x="30" width="120" height="30" as="geometry">
            <mxRectangle width="120" height="30" as="alternateBounds" />
          </mxGeometry>
        </mxCell>
        <mxCell id="CJhWm5E5vZRmMb6Nd0v4-60" value="" style="shape=partialRectangle;collapsible=0;dropTarget=0;pointerEvents=0;fillColor=none;points=[[0,0.5],[1,0.5]];portConstraint=eastwest;top=0;left=0;right=0;bottom=0;" vertex="1" parent="CJhWm5E5vZRmMb6Nd0v4-56">
          <mxGeometry y="60" width="150" height="30" as="geometry" />
        </mxCell>
        <mxCell id="CJhWm5E5vZRmMb6Nd0v4-61" value="" style="shape=partialRectangle;overflow=hidden;connectable=0;fillColor=none;top=0;left=0;bottom=0;right=0;" vertex="1" parent="CJhWm5E5vZRmMb6Nd0v4-60">
          <mxGeometry width="30" height="30" as="geometry">
            <mxRectangle width="30" height="30" as="alternateBounds" />
          </mxGeometry>
        </mxCell>
        <mxCell id="CJhWm5E5vZRmMb6Nd0v4-62" value="hierarchyHeaderID" style="shape=partialRectangle;overflow=hidden;connectable=0;fillColor=none;top=0;left=0;bottom=0;right=0;align=left;spacingLeft=6;" vertex="1" parent="CJhWm5E5vZRmMb6Nd0v4-60">
          <mxGeometry x="30" width="120" height="30" as="geometry">
            <mxRectangle width="120" height="30" as="alternateBounds" />
          </mxGeometry>
        </mxCell>
        <mxCell id="CJhWm5E5vZRmMb6Nd0v4-63" value="" style="shape=partialRectangle;collapsible=0;dropTarget=0;pointerEvents=0;fillColor=none;points=[[0,0.5],[1,0.5]];portConstraint=eastwest;top=0;left=0;right=0;bottom=0;" vertex="1" parent="CJhWm5E5vZRmMb6Nd0v4-56">
          <mxGeometry y="90" width="150" height="30" as="geometry" />
        </mxCell>
        <mxCell id="CJhWm5E5vZRmMb6Nd0v4-64" value="" style="shape=partialRectangle;overflow=hidden;connectable=0;fillColor=none;top=0;left=0;bottom=0;right=0;" vertex="1" parent="CJhWm5E5vZRmMb6Nd0v4-63">
          <mxGeometry width="30" height="30" as="geometry">
            <mxRectangle width="30" height="30" as="alternateBounds" />
          </mxGeometry>
        </mxCell>
        <mxCell id="CJhWm5E5vZRmMb6Nd0v4-65" value="objectID" style="shape=partialRectangle;overflow=hidden;connectable=0;fillColor=#33FF33;top=0;left=0;bottom=0;right=0;align=left;spacingLeft=6;" vertex="1" parent="CJhWm5E5vZRmMb6Nd0v4-63">
          <mxGeometry x="30" width="120" height="30" as="geometry">
            <mxRectangle width="120" height="30" as="alternateBounds" />
          </mxGeometry>
        </mxCell>
        <mxCell id="CJhWm5E5vZRmMb6Nd0v4-66" value="" style="shape=partialRectangle;collapsible=0;dropTarget=0;pointerEvents=0;fillColor=none;points=[[0,0.5],[1,0.5]];portConstraint=eastwest;top=0;left=0;right=0;bottom=0;" vertex="1" parent="CJhWm5E5vZRmMb6Nd0v4-56">
          <mxGeometry y="120" width="150" height="30" as="geometry" />
        </mxCell>
        <mxCell id="CJhWm5E5vZRmMb6Nd0v4-67" value="" style="shape=partialRectangle;overflow=hidden;connectable=0;fillColor=none;top=0;left=0;bottom=0;right=0;" vertex="1" parent="CJhWm5E5vZRmMb6Nd0v4-66">
          <mxGeometry width="30" height="30" as="geometry">
            <mxRectangle width="30" height="30" as="alternateBounds" />
          </mxGeometry>
        </mxCell>
        <mxCell id="CJhWm5E5vZRmMb6Nd0v4-68" value="parentObjectID" style="shape=partialRectangle;overflow=hidden;connectable=0;fillColor=#33FF33;top=0;left=0;bottom=0;right=0;align=left;spacingLeft=6;" vertex="1" parent="CJhWm5E5vZRmMb6Nd0v4-66">
          <mxGeometry x="30" width="120" height="30" as="geometry">
            <mxRectangle width="120" height="30" as="alternateBounds" />
          </mxGeometry>
        </mxCell>
        <mxCell id="CJhWm5E5vZRmMb6Nd0v4-72" value="" style="shape=partialRectangle;collapsible=0;dropTarget=0;pointerEvents=0;fillColor=none;points=[[0,0.5],[1,0.5]];portConstraint=eastwest;top=0;left=0;right=0;bottom=0;" vertex="1" parent="CJhWm5E5vZRmMb6Nd0v4-56">
          <mxGeometry y="150" width="150" height="30" as="geometry" />
        </mxCell>
        <mxCell id="CJhWm5E5vZRmMb6Nd0v4-73" value="" style="shape=partialRectangle;overflow=hidden;connectable=0;fillColor=none;top=0;left=0;bottom=0;right=0;" vertex="1" parent="CJhWm5E5vZRmMb6Nd0v4-72">
          <mxGeometry width="30" height="30" as="geometry">
            <mxRectangle width="30" height="30" as="alternateBounds" />
          </mxGeometry>
        </mxCell>
        <mxCell id="CJhWm5E5vZRmMb6Nd0v4-74" value="scopeObjID(Project)" style="shape=partialRectangle;overflow=hidden;connectable=0;fillColor=#FF3399;top=0;left=0;bottom=0;right=0;align=left;spacingLeft=6;" vertex="1" parent="CJhWm5E5vZRmMb6Nd0v4-72">
          <mxGeometry x="30" width="120" height="30" as="geometry">
            <mxRectangle width="120" height="30" as="alternateBounds" />
          </mxGeometry>
        </mxCell>
        <mxCell id="CJhWm5E5vZRmMb6Nd0v4-585" value="" style="shape=partialRectangle;collapsible=0;dropTarget=0;pointerEvents=0;fillColor=none;points=[[0,0.5],[1,0.5]];portConstraint=eastwest;top=0;left=0;right=0;bottom=0;" vertex="1" parent="CJhWm5E5vZRmMb6Nd0v4-56">
          <mxGeometry y="180" width="150" height="30" as="geometry" />
        </mxCell>
        <mxCell id="CJhWm5E5vZRmMb6Nd0v4-586" value="" style="shape=partialRectangle;overflow=hidden;connectable=0;fillColor=none;top=0;left=0;bottom=0;right=0;" vertex="1" parent="CJhWm5E5vZRmMb6Nd0v4-585">
          <mxGeometry width="30" height="30" as="geometry">
            <mxRectangle width="30" height="30" as="alternateBounds" />
          </mxGeometry>
        </mxCell>
        <mxCell id="CJhWm5E5vZRmMb6Nd0v4-587" value="SortNumber" style="shape=partialRectangle;overflow=hidden;connectable=0;fillColor=none;top=0;left=0;bottom=0;right=0;align=left;spacingLeft=6;" vertex="1" parent="CJhWm5E5vZRmMb6Nd0v4-585">
          <mxGeometry x="30" width="120" height="30" as="geometry">
            <mxRectangle width="120" height="30" as="alternateBounds" />
          </mxGeometry>
        </mxCell>
        <mxCell id="CJhWm5E5vZRmMb6Nd0v4-593" value="" style="shape=partialRectangle;collapsible=0;dropTarget=0;pointerEvents=0;fillColor=none;points=[[0,0.5],[1,0.5]];portConstraint=eastwest;top=0;left=0;right=0;bottom=0;" vertex="1" parent="CJhWm5E5vZRmMb6Nd0v4-56">
          <mxGeometry y="210" width="150" height="30" as="geometry" />
        </mxCell>
        <mxCell id="CJhWm5E5vZRmMb6Nd0v4-594" value="" style="shape=partialRectangle;overflow=hidden;connectable=0;fillColor=none;top=0;left=0;bottom=0;right=0;" vertex="1" parent="CJhWm5E5vZRmMb6Nd0v4-593">
          <mxGeometry width="30" height="30" as="geometry">
            <mxRectangle width="30" height="30" as="alternateBounds" />
          </mxGeometry>
        </mxCell>
        <mxCell id="CJhWm5E5vZRmMb6Nd0v4-595" value="other Attributes" style="shape=partialRectangle;overflow=hidden;connectable=0;fillColor=none;top=0;left=0;bottom=0;right=0;align=left;spacingLeft=6;" vertex="1" parent="CJhWm5E5vZRmMb6Nd0v4-593">
          <mxGeometry x="30" width="120" height="30" as="geometry">
            <mxRectangle width="120" height="30" as="alternateBounds" />
          </mxGeometry>
        </mxCell>
        <mxCell id="CJhWm5E5vZRmMb6Nd0v4-78" value="ProjectPlanElement" style="shape=table;startSize=30;container=1;collapsible=1;childLayout=tableLayout;fixedRows=1;rowLines=0;fontStyle=1;align=center;resizeLast=1;" vertex="1" parent="1">
          <mxGeometry x="582" y="730" width="130" height="340" as="geometry" />
        </mxCell>
        <mxCell id="CJhWm5E5vZRmMb6Nd0v4-79" value="" style="shape=partialRectangle;collapsible=0;dropTarget=0;pointerEvents=0;fillColor=none;points=[[0,0.5],[1,0.5]];portConstraint=eastwest;top=0;left=0;right=0;bottom=1;" vertex="1" parent="CJhWm5E5vZRmMb6Nd0v4-78">
          <mxGeometry y="30" width="130" height="30" as="geometry" />
        </mxCell>
        <mxCell id="CJhWm5E5vZRmMb6Nd0v4-80" value="PK" style="shape=partialRectangle;overflow=hidden;connectable=0;fillColor=none;top=0;left=0;bottom=0;right=0;fontStyle=1;" vertex="1" parent="CJhWm5E5vZRmMb6Nd0v4-79">
          <mxGeometry width="30" height="30" as="geometry">
            <mxRectangle width="30" height="30" as="alternateBounds" />
          </mxGeometry>
        </mxCell>
        <mxCell id="CJhWm5E5vZRmMb6Nd0v4-81" value="ID" style="shape=partialRectangle;overflow=hidden;connectable=0;fillColor=none;top=0;left=0;bottom=0;right=0;align=left;spacingLeft=6;fontStyle=5;" vertex="1" parent="CJhWm5E5vZRmMb6Nd0v4-79">
          <mxGeometry x="30" width="100" height="30" as="geometry">
            <mxRectangle width="100" height="30" as="alternateBounds" />
          </mxGeometry>
        </mxCell>
        <mxCell id="CJhWm5E5vZRmMb6Nd0v4-82" value="" style="shape=partialRectangle;collapsible=0;dropTarget=0;pointerEvents=0;fillColor=none;points=[[0,0.5],[1,0.5]];portConstraint=eastwest;top=0;left=0;right=0;bottom=0;" vertex="1" parent="CJhWm5E5vZRmMb6Nd0v4-78">
          <mxGeometry y="60" width="130" height="30" as="geometry" />
        </mxCell>
        <mxCell id="CJhWm5E5vZRmMb6Nd0v4-83" value="" style="shape=partialRectangle;overflow=hidden;connectable=0;fillColor=none;top=0;left=0;bottom=0;right=0;" vertex="1" parent="CJhWm5E5vZRmMb6Nd0v4-82">
          <mxGeometry width="30" height="30" as="geometry">
            <mxRectangle width="30" height="30" as="alternateBounds" />
          </mxGeometry>
        </mxCell>
        <mxCell id="CJhWm5E5vZRmMb6Nd0v4-84" value="name" style="shape=partialRectangle;overflow=hidden;connectable=0;fillColor=none;top=0;left=0;bottom=0;right=0;align=left;spacingLeft=6;" vertex="1" parent="CJhWm5E5vZRmMb6Nd0v4-82">
          <mxGeometry x="30" width="100" height="30" as="geometry">
            <mxRectangle width="100" height="30" as="alternateBounds" />
          </mxGeometry>
        </mxCell>
        <mxCell id="CJhWm5E5vZRmMb6Nd0v4-85" value="" style="shape=partialRectangle;collapsible=0;dropTarget=0;pointerEvents=0;fillColor=none;points=[[0,0.5],[1,0.5]];portConstraint=eastwest;top=0;left=0;right=0;bottom=0;" vertex="1" parent="CJhWm5E5vZRmMb6Nd0v4-78">
          <mxGeometry y="90" width="130" height="30" as="geometry" />
        </mxCell>
        <mxCell id="CJhWm5E5vZRmMb6Nd0v4-86" value="" style="shape=partialRectangle;overflow=hidden;connectable=0;fillColor=none;top=0;left=0;bottom=0;right=0;" vertex="1" parent="CJhWm5E5vZRmMb6Nd0v4-85">
          <mxGeometry width="30" height="30" as="geometry">
            <mxRectangle width="30" height="30" as="alternateBounds" />
          </mxGeometry>
        </mxCell>
        <mxCell id="CJhWm5E5vZRmMb6Nd0v4-87" value="plannedStartDate" style="shape=partialRectangle;overflow=hidden;connectable=0;fillColor=none;top=0;left=0;bottom=0;right=0;align=left;spacingLeft=6;" vertex="1" parent="CJhWm5E5vZRmMb6Nd0v4-85">
          <mxGeometry x="30" width="100" height="30" as="geometry">
            <mxRectangle width="100" height="30" as="alternateBounds" />
          </mxGeometry>
        </mxCell>
        <mxCell id="CJhWm5E5vZRmMb6Nd0v4-88" value="" style="shape=partialRectangle;collapsible=0;dropTarget=0;pointerEvents=0;fillColor=none;points=[[0,0.5],[1,0.5]];portConstraint=eastwest;top=0;left=0;right=0;bottom=0;" vertex="1" parent="CJhWm5E5vZRmMb6Nd0v4-78">
          <mxGeometry y="120" width="130" height="30" as="geometry" />
        </mxCell>
        <mxCell id="CJhWm5E5vZRmMb6Nd0v4-89" value="" style="shape=partialRectangle;overflow=hidden;connectable=0;fillColor=none;top=0;left=0;bottom=0;right=0;" vertex="1" parent="CJhWm5E5vZRmMb6Nd0v4-88">
          <mxGeometry width="30" height="30" as="geometry">
            <mxRectangle width="30" height="30" as="alternateBounds" />
          </mxGeometry>
        </mxCell>
        <mxCell id="CJhWm5E5vZRmMb6Nd0v4-90" value="plannedEndDate" style="shape=partialRectangle;overflow=hidden;connectable=0;fillColor=none;top=0;left=0;bottom=0;right=0;align=left;spacingLeft=6;" vertex="1" parent="CJhWm5E5vZRmMb6Nd0v4-88">
          <mxGeometry x="30" width="100" height="30" as="geometry">
            <mxRectangle width="100" height="30" as="alternateBounds" />
          </mxGeometry>
        </mxCell>
        <mxCell id="CJhWm5E5vZRmMb6Nd0v4-91" value="" style="shape=partialRectangle;collapsible=0;dropTarget=0;pointerEvents=0;fillColor=none;points=[[0,0.5],[1,0.5]];portConstraint=eastwest;top=0;left=0;right=0;bottom=0;" vertex="1" parent="CJhWm5E5vZRmMb6Nd0v4-78">
          <mxGeometry y="150" width="130" height="30" as="geometry" />
        </mxCell>
        <mxCell id="CJhWm5E5vZRmMb6Nd0v4-92" value="" style="shape=partialRectangle;overflow=hidden;connectable=0;fillColor=none;top=0;left=0;bottom=0;right=0;" vertex="1" parent="CJhWm5E5vZRmMb6Nd0v4-91">
          <mxGeometry width="30" height="30" as="geometry">
            <mxRectangle width="30" height="30" as="alternateBounds" />
          </mxGeometry>
        </mxCell>
        <mxCell id="CJhWm5E5vZRmMb6Nd0v4-93" value="objectType" style="shape=partialRectangle;overflow=hidden;connectable=0;fillColor=none;top=0;left=0;bottom=0;right=0;align=left;spacingLeft=6;" vertex="1" parent="CJhWm5E5vZRmMb6Nd0v4-91">
          <mxGeometry x="30" width="100" height="30" as="geometry">
            <mxRectangle width="100" height="30" as="alternateBounds" />
          </mxGeometry>
        </mxCell>
        <mxCell id="CJhWm5E5vZRmMb6Nd0v4-230" value="" style="shape=partialRectangle;collapsible=0;dropTarget=0;pointerEvents=0;fillColor=none;points=[[0,0.5],[1,0.5]];portConstraint=eastwest;top=0;left=0;right=0;bottom=0;" vertex="1" parent="CJhWm5E5vZRmMb6Nd0v4-78">
          <mxGeometry y="180" width="130" height="30" as="geometry" />
        </mxCell>
        <mxCell id="CJhWm5E5vZRmMb6Nd0v4-231" value="" style="shape=partialRectangle;overflow=hidden;connectable=0;fillColor=none;top=0;left=0;bottom=0;right=0;" vertex="1" parent="CJhWm5E5vZRmMb6Nd0v4-230">
          <mxGeometry width="30" height="30" as="geometry">
            <mxRectangle width="30" height="30" as="alternateBounds" />
          </mxGeometry>
        </mxCell>
        <mxCell id="CJhWm5E5vZRmMb6Nd0v4-232" value="duration" style="shape=partialRectangle;overflow=hidden;connectable=0;fillColor=none;top=0;left=0;bottom=0;right=0;align=left;spacingLeft=6;" vertex="1" parent="CJhWm5E5vZRmMb6Nd0v4-230">
          <mxGeometry x="30" width="100" height="30" as="geometry">
            <mxRectangle width="100" height="30" as="alternateBounds" />
          </mxGeometry>
        </mxCell>
        <mxCell id="CJhWm5E5vZRmMb6Nd0v4-233" value="" style="shape=partialRectangle;collapsible=0;dropTarget=0;pointerEvents=0;fillColor=none;points=[[0,0.5],[1,0.5]];portConstraint=eastwest;top=0;left=0;right=0;bottom=0;" vertex="1" parent="CJhWm5E5vZRmMb6Nd0v4-78">
          <mxGeometry y="210" width="130" height="30" as="geometry" />
        </mxCell>
        <mxCell id="CJhWm5E5vZRmMb6Nd0v4-234" value="" style="shape=partialRectangle;overflow=hidden;connectable=0;fillColor=none;top=0;left=0;bottom=0;right=0;" vertex="1" parent="CJhWm5E5vZRmMb6Nd0v4-233">
          <mxGeometry width="30" height="30" as="geometry">
            <mxRectangle width="30" height="30" as="alternateBounds" />
          </mxGeometry>
        </mxCell>
        <mxCell id="CJhWm5E5vZRmMb6Nd0v4-235" value="durationUnit" style="shape=partialRectangle;overflow=hidden;connectable=0;fillColor=none;top=0;left=0;bottom=0;right=0;align=left;spacingLeft=6;" vertex="1" parent="CJhWm5E5vZRmMb6Nd0v4-233">
          <mxGeometry x="30" width="100" height="30" as="geometry">
            <mxRectangle width="100" height="30" as="alternateBounds" />
          </mxGeometry>
        </mxCell>
        <mxCell id="CJhWm5E5vZRmMb6Nd0v4-94" value="" style="shape=partialRectangle;collapsible=0;dropTarget=0;pointerEvents=0;fillColor=none;points=[[0,0.5],[1,0.5]];portConstraint=eastwest;top=0;left=0;right=0;bottom=0;" vertex="1" parent="CJhWm5E5vZRmMb6Nd0v4-78">
          <mxGeometry y="240" width="130" height="30" as="geometry" />
        </mxCell>
        <mxCell id="CJhWm5E5vZRmMb6Nd0v4-95" value="" style="shape=partialRectangle;overflow=hidden;connectable=0;fillColor=none;top=0;left=0;bottom=0;right=0;" vertex="1" parent="CJhWm5E5vZRmMb6Nd0v4-94">
          <mxGeometry width="30" height="30" as="geometry">
            <mxRectangle width="30" height="30" as="alternateBounds" />
          </mxGeometry>
        </mxCell>
        <mxCell id="CJhWm5E5vZRmMb6Nd0v4-96" value="projectPlanID" style="shape=partialRectangle;overflow=hidden;connectable=0;fillColor=none;top=0;left=0;bottom=0;right=0;align=left;spacingLeft=6;" vertex="1" parent="CJhWm5E5vZRmMb6Nd0v4-94">
          <mxGeometry x="30" width="100" height="30" as="geometry">
            <mxRectangle width="100" height="30" as="alternateBounds" />
          </mxGeometry>
        </mxCell>
        <mxCell id="CJhWm5E5vZRmMb6Nd0v4-196" value="" style="shape=partialRectangle;collapsible=0;dropTarget=0;pointerEvents=0;fillColor=none;points=[[0,0.5],[1,0.5]];portConstraint=eastwest;top=0;left=0;right=0;bottom=0;" vertex="1" parent="CJhWm5E5vZRmMb6Nd0v4-78">
          <mxGeometry y="270" width="130" height="30" as="geometry" />
        </mxCell>
        <mxCell id="CJhWm5E5vZRmMb6Nd0v4-197" value="" style="shape=partialRectangle;overflow=hidden;connectable=0;fillColor=none;top=0;left=0;bottom=0;right=0;" vertex="1" parent="CJhWm5E5vZRmMb6Nd0v4-196">
          <mxGeometry width="30" height="30" as="geometry">
            <mxRectangle width="30" height="30" as="alternateBounds" />
          </mxGeometry>
        </mxCell>
        <mxCell id="CJhWm5E5vZRmMb6Nd0v4-198" value="type" style="shape=partialRectangle;overflow=hidden;connectable=0;fillColor=none;top=0;left=0;bottom=0;right=0;align=left;spacingLeft=6;" vertex="1" parent="CJhWm5E5vZRmMb6Nd0v4-196">
          <mxGeometry x="30" width="100" height="30" as="geometry">
            <mxRectangle width="100" height="30" as="alternateBounds" />
          </mxGeometry>
        </mxCell>
        <mxCell id="CJhWm5E5vZRmMb6Nd0v4-122" value="" style="shape=partialRectangle;collapsible=0;dropTarget=0;pointerEvents=0;fillColor=none;points=[[0,0.5],[1,0.5]];portConstraint=eastwest;top=0;left=0;right=0;bottom=0;" vertex="1" parent="CJhWm5E5vZRmMb6Nd0v4-78">
          <mxGeometry y="300" width="130" height="30" as="geometry" />
        </mxCell>
        <mxCell id="CJhWm5E5vZRmMb6Nd0v4-123" value="" style="shape=partialRectangle;overflow=hidden;connectable=0;fillColor=none;top=0;left=0;bottom=0;right=0;" vertex="1" parent="CJhWm5E5vZRmMb6Nd0v4-122">
          <mxGeometry width="30" height="30" as="geometry">
            <mxRectangle width="30" height="30" as="alternateBounds" />
          </mxGeometry>
        </mxCell>
        <mxCell id="CJhWm5E5vZRmMb6Nd0v4-124" value="other Attributes" style="shape=partialRectangle;overflow=hidden;connectable=0;fillColor=none;top=0;left=0;bottom=0;right=0;align=left;spacingLeft=6;" vertex="1" parent="CJhWm5E5vZRmMb6Nd0v4-122">
          <mxGeometry x="30" width="100" height="30" as="geometry">
            <mxRectangle width="100" height="30" as="alternateBounds" />
          </mxGeometry>
        </mxCell>
        <mxCell id="CJhWm5E5vZRmMb6Nd0v4-202" value="ProjectCostElement" style="shape=table;startSize=30;container=1;collapsible=1;childLayout=tableLayout;fixedRows=1;rowLines=0;fontStyle=1;align=center;resizeLast=1;" vertex="1" parent="1">
          <mxGeometry x="582" y="1120" width="130" height="190" as="geometry" />
        </mxCell>
        <mxCell id="CJhWm5E5vZRmMb6Nd0v4-203" value="" style="shape=partialRectangle;collapsible=0;dropTarget=0;pointerEvents=0;fillColor=none;points=[[0,0.5],[1,0.5]];portConstraint=eastwest;top=0;left=0;right=0;bottom=1;" vertex="1" parent="CJhWm5E5vZRmMb6Nd0v4-202">
          <mxGeometry y="30" width="130" height="30" as="geometry" />
        </mxCell>
        <mxCell id="CJhWm5E5vZRmMb6Nd0v4-204" value="PK" style="shape=partialRectangle;overflow=hidden;connectable=0;fillColor=none;top=0;left=0;bottom=0;right=0;fontStyle=1;" vertex="1" parent="CJhWm5E5vZRmMb6Nd0v4-203">
          <mxGeometry width="30" height="30" as="geometry">
            <mxRectangle width="30" height="30" as="alternateBounds" />
          </mxGeometry>
        </mxCell>
        <mxCell id="CJhWm5E5vZRmMb6Nd0v4-205" value="ID" style="shape=partialRectangle;overflow=hidden;connectable=0;fillColor=none;top=0;left=0;bottom=0;right=0;align=left;spacingLeft=6;fontStyle=5;" vertex="1" parent="CJhWm5E5vZRmMb6Nd0v4-203">
          <mxGeometry x="30" width="100" height="30" as="geometry">
            <mxRectangle width="100" height="30" as="alternateBounds" />
          </mxGeometry>
        </mxCell>
        <mxCell id="CJhWm5E5vZRmMb6Nd0v4-206" value="" style="shape=partialRectangle;collapsible=0;dropTarget=0;pointerEvents=0;fillColor=none;points=[[0,0.5],[1,0.5]];portConstraint=eastwest;top=0;left=0;right=0;bottom=0;" vertex="1" parent="CJhWm5E5vZRmMb6Nd0v4-202">
          <mxGeometry y="60" width="130" height="30" as="geometry" />
        </mxCell>
        <mxCell id="CJhWm5E5vZRmMb6Nd0v4-207" value="" style="shape=partialRectangle;overflow=hidden;connectable=0;fillColor=none;top=0;left=0;bottom=0;right=0;" vertex="1" parent="CJhWm5E5vZRmMb6Nd0v4-206">
          <mxGeometry width="30" height="30" as="geometry">
            <mxRectangle width="30" height="30" as="alternateBounds" />
          </mxGeometry>
        </mxCell>
        <mxCell id="CJhWm5E5vZRmMb6Nd0v4-208" value="name" style="shape=partialRectangle;overflow=hidden;connectable=0;fillColor=none;top=0;left=0;bottom=0;right=0;align=left;spacingLeft=6;" vertex="1" parent="CJhWm5E5vZRmMb6Nd0v4-206">
          <mxGeometry x="30" width="100" height="30" as="geometry">
            <mxRectangle width="100" height="30" as="alternateBounds" />
          </mxGeometry>
        </mxCell>
        <mxCell id="CJhWm5E5vZRmMb6Nd0v4-209" value="" style="shape=partialRectangle;collapsible=0;dropTarget=0;pointerEvents=0;fillColor=none;points=[[0,0.5],[1,0.5]];portConstraint=eastwest;top=0;left=0;right=0;bottom=0;" vertex="1" parent="CJhWm5E5vZRmMb6Nd0v4-202">
          <mxGeometry y="90" width="130" height="30" as="geometry" />
        </mxCell>
        <mxCell id="CJhWm5E5vZRmMb6Nd0v4-210" value="" style="shape=partialRectangle;overflow=hidden;connectable=0;fillColor=none;top=0;left=0;bottom=0;right=0;" vertex="1" parent="CJhWm5E5vZRmMb6Nd0v4-209">
          <mxGeometry width="30" height="30" as="geometry">
            <mxRectangle width="30" height="30" as="alternateBounds" />
          </mxGeometry>
        </mxCell>
        <mxCell id="CJhWm5E5vZRmMb6Nd0v4-211" value="amount" style="shape=partialRectangle;overflow=hidden;connectable=0;fillColor=none;top=0;left=0;bottom=0;right=0;align=left;spacingLeft=6;" vertex="1" parent="CJhWm5E5vZRmMb6Nd0v4-209">
          <mxGeometry x="30" width="100" height="30" as="geometry">
            <mxRectangle width="100" height="30" as="alternateBounds" />
          </mxGeometry>
        </mxCell>
        <mxCell id="CJhWm5E5vZRmMb6Nd0v4-212" value="" style="shape=partialRectangle;collapsible=0;dropTarget=0;pointerEvents=0;fillColor=none;points=[[0,0.5],[1,0.5]];portConstraint=eastwest;top=0;left=0;right=0;bottom=0;" vertex="1" parent="CJhWm5E5vZRmMb6Nd0v4-202">
          <mxGeometry y="120" width="130" height="30" as="geometry" />
        </mxCell>
        <mxCell id="CJhWm5E5vZRmMb6Nd0v4-213" value="" style="shape=partialRectangle;overflow=hidden;connectable=0;fillColor=none;top=0;left=0;bottom=0;right=0;" vertex="1" parent="CJhWm5E5vZRmMb6Nd0v4-212">
          <mxGeometry width="30" height="30" as="geometry">
            <mxRectangle width="30" height="30" as="alternateBounds" />
          </mxGeometry>
        </mxCell>
        <mxCell id="CJhWm5E5vZRmMb6Nd0v4-214" value="currency" style="shape=partialRectangle;overflow=hidden;connectable=0;fillColor=none;top=0;left=0;bottom=0;right=0;align=left;spacingLeft=6;" vertex="1" parent="CJhWm5E5vZRmMb6Nd0v4-212">
          <mxGeometry x="30" width="100" height="30" as="geometry">
            <mxRectangle width="100" height="30" as="alternateBounds" />
          </mxGeometry>
        </mxCell>
        <mxCell id="CJhWm5E5vZRmMb6Nd0v4-227" value="" style="shape=partialRectangle;collapsible=0;dropTarget=0;pointerEvents=0;fillColor=none;points=[[0,0.5],[1,0.5]];portConstraint=eastwest;top=0;left=0;right=0;bottom=0;" vertex="1" parent="CJhWm5E5vZRmMb6Nd0v4-202">
          <mxGeometry y="150" width="130" height="30" as="geometry" />
        </mxCell>
        <mxCell id="CJhWm5E5vZRmMb6Nd0v4-228" value="" style="shape=partialRectangle;overflow=hidden;connectable=0;fillColor=none;top=0;left=0;bottom=0;right=0;" vertex="1" parent="CJhWm5E5vZRmMb6Nd0v4-227">
          <mxGeometry width="30" height="30" as="geometry">
            <mxRectangle width="30" height="30" as="alternateBounds" />
          </mxGeometry>
        </mxCell>
        <mxCell id="CJhWm5E5vZRmMb6Nd0v4-229" value="other Attributes" style="shape=partialRectangle;overflow=hidden;connectable=0;fillColor=none;top=0;left=0;bottom=0;right=0;align=left;spacingLeft=6;" vertex="1" parent="CJhWm5E5vZRmMb6Nd0v4-227">
          <mxGeometry x="30" width="100" height="30" as="geometry">
            <mxRectangle width="100" height="30" as="alternateBounds" />
          </mxGeometry>
        </mxCell>
        <mxCell id="CJhWm5E5vZRmMb6Nd0v4-299" value="Issue" style="shape=table;startSize=30;container=1;collapsible=1;childLayout=tableLayout;fixedRows=1;rowLines=0;fontStyle=1;align=center;resizeLast=1;" vertex="1" parent="1">
          <mxGeometry x="947" y="880" width="120" height="130" as="geometry" />
        </mxCell>
        <mxCell id="CJhWm5E5vZRmMb6Nd0v4-300" value="" style="shape=partialRectangle;collapsible=0;dropTarget=0;pointerEvents=0;fillColor=none;points=[[0,0.5],[1,0.5]];portConstraint=eastwest;top=0;left=0;right=0;bottom=1;" vertex="1" parent="CJhWm5E5vZRmMb6Nd0v4-299">
          <mxGeometry y="30" width="120" height="30" as="geometry" />
        </mxCell>
        <mxCell id="CJhWm5E5vZRmMb6Nd0v4-301" value="PK" style="shape=partialRectangle;overflow=hidden;connectable=0;fillColor=none;top=0;left=0;bottom=0;right=0;fontStyle=1;" vertex="1" parent="CJhWm5E5vZRmMb6Nd0v4-300">
          <mxGeometry width="30" height="30" as="geometry">
            <mxRectangle width="30" height="30" as="alternateBounds" />
          </mxGeometry>
        </mxCell>
        <mxCell id="CJhWm5E5vZRmMb6Nd0v4-302" value="ID" style="shape=partialRectangle;overflow=hidden;connectable=0;fillColor=none;top=0;left=0;bottom=0;right=0;align=left;spacingLeft=6;fontStyle=5;" vertex="1" parent="CJhWm5E5vZRmMb6Nd0v4-300">
          <mxGeometry x="30" width="90" height="30" as="geometry">
            <mxRectangle width="90" height="30" as="alternateBounds" />
          </mxGeometry>
        </mxCell>
        <mxCell id="CJhWm5E5vZRmMb6Nd0v4-303" value="" style="shape=partialRectangle;collapsible=0;dropTarget=0;pointerEvents=0;fillColor=none;points=[[0,0.5],[1,0.5]];portConstraint=eastwest;top=0;left=0;right=0;bottom=0;" vertex="1" parent="CJhWm5E5vZRmMb6Nd0v4-299">
          <mxGeometry y="60" width="120" height="30" as="geometry" />
        </mxCell>
        <mxCell id="CJhWm5E5vZRmMb6Nd0v4-304" value="" style="shape=partialRectangle;overflow=hidden;connectable=0;fillColor=none;top=0;left=0;bottom=0;right=0;" vertex="1" parent="CJhWm5E5vZRmMb6Nd0v4-303">
          <mxGeometry width="30" height="30" as="geometry">
            <mxRectangle width="30" height="30" as="alternateBounds" />
          </mxGeometry>
        </mxCell>
        <mxCell id="CJhWm5E5vZRmMb6Nd0v4-305" value="name" style="shape=partialRectangle;overflow=hidden;connectable=0;fillColor=none;top=0;left=0;bottom=0;right=0;align=left;spacingLeft=6;" vertex="1" parent="CJhWm5E5vZRmMb6Nd0v4-303">
          <mxGeometry x="30" width="90" height="30" as="geometry">
            <mxRectangle width="90" height="30" as="alternateBounds" />
          </mxGeometry>
        </mxCell>
        <mxCell id="CJhWm5E5vZRmMb6Nd0v4-315" value="" style="shape=partialRectangle;collapsible=0;dropTarget=0;pointerEvents=0;fillColor=none;points=[[0,0.5],[1,0.5]];portConstraint=eastwest;top=0;left=0;right=0;bottom=0;" vertex="1" parent="CJhWm5E5vZRmMb6Nd0v4-299">
          <mxGeometry y="90" width="120" height="30" as="geometry" />
        </mxCell>
        <mxCell id="CJhWm5E5vZRmMb6Nd0v4-316" value="" style="shape=partialRectangle;overflow=hidden;connectable=0;fillColor=none;top=0;left=0;bottom=0;right=0;" vertex="1" parent="CJhWm5E5vZRmMb6Nd0v4-315">
          <mxGeometry width="30" height="30" as="geometry">
            <mxRectangle width="30" height="30" as="alternateBounds" />
          </mxGeometry>
        </mxCell>
        <mxCell id="CJhWm5E5vZRmMb6Nd0v4-317" value="other Attributes" style="shape=partialRectangle;overflow=hidden;connectable=0;fillColor=none;top=0;left=0;bottom=0;right=0;align=left;spacingLeft=6;" vertex="1" parent="CJhWm5E5vZRmMb6Nd0v4-315">
          <mxGeometry x="30" width="90" height="30" as="geometry">
            <mxRectangle width="90" height="30" as="alternateBounds" />
          </mxGeometry>
        </mxCell>
        <mxCell id="CJhWm5E5vZRmMb6Nd0v4-318" value="Task" style="shape=table;startSize=30;container=1;collapsible=1;childLayout=tableLayout;fixedRows=1;rowLines=0;fontStyle=1;align=center;resizeLast=1;" vertex="1" parent="1">
          <mxGeometry x="947" y="1125" width="120" height="130" as="geometry" />
        </mxCell>
        <mxCell id="CJhWm5E5vZRmMb6Nd0v4-319" value="" style="shape=partialRectangle;collapsible=0;dropTarget=0;pointerEvents=0;fillColor=none;points=[[0,0.5],[1,0.5]];portConstraint=eastwest;top=0;left=0;right=0;bottom=1;" vertex="1" parent="CJhWm5E5vZRmMb6Nd0v4-318">
          <mxGeometry y="30" width="120" height="30" as="geometry" />
        </mxCell>
        <mxCell id="CJhWm5E5vZRmMb6Nd0v4-320" value="PK" style="shape=partialRectangle;overflow=hidden;connectable=0;fillColor=none;top=0;left=0;bottom=0;right=0;fontStyle=1;" vertex="1" parent="CJhWm5E5vZRmMb6Nd0v4-319">
          <mxGeometry width="30" height="30" as="geometry">
            <mxRectangle width="30" height="30" as="alternateBounds" />
          </mxGeometry>
        </mxCell>
        <mxCell id="CJhWm5E5vZRmMb6Nd0v4-321" value="ID" style="shape=partialRectangle;overflow=hidden;connectable=0;fillColor=none;top=0;left=0;bottom=0;right=0;align=left;spacingLeft=6;fontStyle=5;" vertex="1" parent="CJhWm5E5vZRmMb6Nd0v4-319">
          <mxGeometry x="30" width="90" height="30" as="geometry">
            <mxRectangle width="90" height="30" as="alternateBounds" />
          </mxGeometry>
        </mxCell>
        <mxCell id="CJhWm5E5vZRmMb6Nd0v4-322" value="" style="shape=partialRectangle;collapsible=0;dropTarget=0;pointerEvents=0;fillColor=none;points=[[0,0.5],[1,0.5]];portConstraint=eastwest;top=0;left=0;right=0;bottom=0;" vertex="1" parent="CJhWm5E5vZRmMb6Nd0v4-318">
          <mxGeometry y="60" width="120" height="30" as="geometry" />
        </mxCell>
        <mxCell id="CJhWm5E5vZRmMb6Nd0v4-323" value="" style="shape=partialRectangle;overflow=hidden;connectable=0;fillColor=none;top=0;left=0;bottom=0;right=0;" vertex="1" parent="CJhWm5E5vZRmMb6Nd0v4-322">
          <mxGeometry width="30" height="30" as="geometry">
            <mxRectangle width="30" height="30" as="alternateBounds" />
          </mxGeometry>
        </mxCell>
        <mxCell id="CJhWm5E5vZRmMb6Nd0v4-324" value="name" style="shape=partialRectangle;overflow=hidden;connectable=0;fillColor=none;top=0;left=0;bottom=0;right=0;align=left;spacingLeft=6;" vertex="1" parent="CJhWm5E5vZRmMb6Nd0v4-322">
          <mxGeometry x="30" width="90" height="30" as="geometry">
            <mxRectangle width="90" height="30" as="alternateBounds" />
          </mxGeometry>
        </mxCell>
        <mxCell id="CJhWm5E5vZRmMb6Nd0v4-325" value="" style="shape=partialRectangle;collapsible=0;dropTarget=0;pointerEvents=0;fillColor=none;points=[[0,0.5],[1,0.5]];portConstraint=eastwest;top=0;left=0;right=0;bottom=0;" vertex="1" parent="CJhWm5E5vZRmMb6Nd0v4-318">
          <mxGeometry y="90" width="120" height="30" as="geometry" />
        </mxCell>
        <mxCell id="CJhWm5E5vZRmMb6Nd0v4-326" value="" style="shape=partialRectangle;overflow=hidden;connectable=0;fillColor=none;top=0;left=0;bottom=0;right=0;" vertex="1" parent="CJhWm5E5vZRmMb6Nd0v4-325">
          <mxGeometry width="30" height="30" as="geometry">
            <mxRectangle width="30" height="30" as="alternateBounds" />
          </mxGeometry>
        </mxCell>
        <mxCell id="CJhWm5E5vZRmMb6Nd0v4-327" value="other Attributes" style="shape=partialRectangle;overflow=hidden;connectable=0;fillColor=none;top=0;left=0;bottom=0;right=0;align=left;spacingLeft=6;" vertex="1" parent="CJhWm5E5vZRmMb6Nd0v4-325">
          <mxGeometry x="30" width="90" height="30" as="geometry">
            <mxRectangle width="90" height="30" as="alternateBounds" />
          </mxGeometry>
        </mxCell>
        <mxCell id="CJhWm5E5vZRmMb6Nd0v4-328" value="ProjectPlanTaskRelation" style="shape=table;startSize=30;container=1;collapsible=1;childLayout=tableLayout;fixedRows=1;rowLines=0;fontStyle=1;align=center;resizeLast=1;" vertex="1" parent="1">
          <mxGeometry x="777" y="730" width="150" height="250" as="geometry" />
        </mxCell>
        <mxCell id="CJhWm5E5vZRmMb6Nd0v4-329" value="" style="shape=partialRectangle;collapsible=0;dropTarget=0;pointerEvents=0;fillColor=none;points=[[0,0.5],[1,0.5]];portConstraint=eastwest;top=0;left=0;right=0;bottom=1;" vertex="1" parent="CJhWm5E5vZRmMb6Nd0v4-328">
          <mxGeometry y="30" width="150" height="30" as="geometry" />
        </mxCell>
        <mxCell id="CJhWm5E5vZRmMb6Nd0v4-330" value="PK" style="shape=partialRectangle;overflow=hidden;connectable=0;fillColor=none;top=0;left=0;bottom=0;right=0;fontStyle=1;" vertex="1" parent="CJhWm5E5vZRmMb6Nd0v4-329">
          <mxGeometry width="30" height="30" as="geometry">
            <mxRectangle width="30" height="30" as="alternateBounds" />
          </mxGeometry>
        </mxCell>
        <mxCell id="CJhWm5E5vZRmMb6Nd0v4-331" value="ID" style="shape=partialRectangle;overflow=hidden;connectable=0;fillColor=none;top=0;left=0;bottom=0;right=0;align=left;spacingLeft=6;fontStyle=5;" vertex="1" parent="CJhWm5E5vZRmMb6Nd0v4-329">
          <mxGeometry x="30" width="120" height="30" as="geometry">
            <mxRectangle width="120" height="30" as="alternateBounds" />
          </mxGeometry>
        </mxCell>
        <mxCell id="CJhWm5E5vZRmMb6Nd0v4-332" value="" style="shape=partialRectangle;collapsible=0;dropTarget=0;pointerEvents=0;fillColor=none;points=[[0,0.5],[1,0.5]];portConstraint=eastwest;top=0;left=0;right=0;bottom=0;" vertex="1" parent="CJhWm5E5vZRmMb6Nd0v4-328">
          <mxGeometry y="60" width="150" height="30" as="geometry" />
        </mxCell>
        <mxCell id="CJhWm5E5vZRmMb6Nd0v4-333" value="" style="shape=partialRectangle;overflow=hidden;connectable=0;fillColor=none;top=0;left=0;bottom=0;right=0;" vertex="1" parent="CJhWm5E5vZRmMb6Nd0v4-332">
          <mxGeometry width="30" height="30" as="geometry">
            <mxRectangle width="30" height="30" as="alternateBounds" />
          </mxGeometry>
        </mxCell>
        <mxCell id="CJhWm5E5vZRmMb6Nd0v4-334" value="projectID" style="shape=partialRectangle;overflow=hidden;connectable=0;fillColor=none;top=0;left=0;bottom=0;right=0;align=left;spacingLeft=6;" vertex="1" parent="CJhWm5E5vZRmMb6Nd0v4-332">
          <mxGeometry x="30" width="120" height="30" as="geometry">
            <mxRectangle width="120" height="30" as="alternateBounds" />
          </mxGeometry>
        </mxCell>
        <mxCell id="CJhWm5E5vZRmMb6Nd0v4-335" value="" style="shape=partialRectangle;collapsible=0;dropTarget=0;pointerEvents=0;fillColor=none;points=[[0,0.5],[1,0.5]];portConstraint=eastwest;top=0;left=0;right=0;bottom=0;" vertex="1" parent="CJhWm5E5vZRmMb6Nd0v4-328">
          <mxGeometry y="90" width="150" height="30" as="geometry" />
        </mxCell>
        <mxCell id="CJhWm5E5vZRmMb6Nd0v4-336" value="" style="shape=partialRectangle;overflow=hidden;connectable=0;fillColor=none;top=0;left=0;bottom=0;right=0;" vertex="1" parent="CJhWm5E5vZRmMb6Nd0v4-335">
          <mxGeometry width="30" height="30" as="geometry">
            <mxRectangle width="30" height="30" as="alternateBounds" />
          </mxGeometry>
        </mxCell>
        <mxCell id="CJhWm5E5vZRmMb6Nd0v4-337" value="projectPlanID" style="shape=partialRectangle;overflow=hidden;connectable=0;fillColor=none;top=0;left=0;bottom=0;right=0;align=left;spacingLeft=6;" vertex="1" parent="CJhWm5E5vZRmMb6Nd0v4-335">
          <mxGeometry x="30" width="120" height="30" as="geometry">
            <mxRectangle width="120" height="30" as="alternateBounds" />
          </mxGeometry>
        </mxCell>
        <mxCell id="CJhWm5E5vZRmMb6Nd0v4-361" value="" style="shape=partialRectangle;collapsible=0;dropTarget=0;pointerEvents=0;fillColor=none;points=[[0,0.5],[1,0.5]];portConstraint=eastwest;top=0;left=0;right=0;bottom=0;" vertex="1" parent="CJhWm5E5vZRmMb6Nd0v4-328">
          <mxGeometry y="120" width="150" height="30" as="geometry" />
        </mxCell>
        <mxCell id="CJhWm5E5vZRmMb6Nd0v4-362" value="" style="shape=partialRectangle;overflow=hidden;connectable=0;fillColor=none;top=0;left=0;bottom=0;right=0;" vertex="1" parent="CJhWm5E5vZRmMb6Nd0v4-361">
          <mxGeometry width="30" height="30" as="geometry">
            <mxRectangle width="30" height="30" as="alternateBounds" />
          </mxGeometry>
        </mxCell>
        <mxCell id="CJhWm5E5vZRmMb6Nd0v4-363" value="sourceTask" style="shape=partialRectangle;overflow=hidden;connectable=0;fillColor=none;top=0;left=0;bottom=0;right=0;align=left;spacingLeft=6;" vertex="1" parent="CJhWm5E5vZRmMb6Nd0v4-361">
          <mxGeometry x="30" width="120" height="30" as="geometry">
            <mxRectangle width="120" height="30" as="alternateBounds" />
          </mxGeometry>
        </mxCell>
        <mxCell id="CJhWm5E5vZRmMb6Nd0v4-358" value="" style="shape=partialRectangle;collapsible=0;dropTarget=0;pointerEvents=0;fillColor=none;points=[[0,0.5],[1,0.5]];portConstraint=eastwest;top=0;left=0;right=0;bottom=0;" vertex="1" parent="CJhWm5E5vZRmMb6Nd0v4-328">
          <mxGeometry y="150" width="150" height="30" as="geometry" />
        </mxCell>
        <mxCell id="CJhWm5E5vZRmMb6Nd0v4-359" value="" style="shape=partialRectangle;overflow=hidden;connectable=0;fillColor=none;top=0;left=0;bottom=0;right=0;" vertex="1" parent="CJhWm5E5vZRmMb6Nd0v4-358">
          <mxGeometry width="30" height="30" as="geometry">
            <mxRectangle width="30" height="30" as="alternateBounds" />
          </mxGeometry>
        </mxCell>
        <mxCell id="CJhWm5E5vZRmMb6Nd0v4-360" value="targetTask" style="shape=partialRectangle;overflow=hidden;connectable=0;fillColor=none;top=0;left=0;bottom=0;right=0;align=left;spacingLeft=6;" vertex="1" parent="CJhWm5E5vZRmMb6Nd0v4-358">
          <mxGeometry x="30" width="120" height="30" as="geometry">
            <mxRectangle width="120" height="30" as="alternateBounds" />
          </mxGeometry>
        </mxCell>
        <mxCell id="CJhWm5E5vZRmMb6Nd0v4-355" value="" style="shape=partialRectangle;collapsible=0;dropTarget=0;pointerEvents=0;fillColor=none;points=[[0,0.5],[1,0.5]];portConstraint=eastwest;top=0;left=0;right=0;bottom=0;" vertex="1" parent="CJhWm5E5vZRmMb6Nd0v4-328">
          <mxGeometry y="180" width="150" height="30" as="geometry" />
        </mxCell>
        <mxCell id="CJhWm5E5vZRmMb6Nd0v4-356" value="" style="shape=partialRectangle;overflow=hidden;connectable=0;fillColor=none;top=0;left=0;bottom=0;right=0;" vertex="1" parent="CJhWm5E5vZRmMb6Nd0v4-355">
          <mxGeometry width="30" height="30" as="geometry">
            <mxRectangle width="30" height="30" as="alternateBounds" />
          </mxGeometry>
        </mxCell>
        <mxCell id="CJhWm5E5vZRmMb6Nd0v4-357" value="type" style="shape=partialRectangle;overflow=hidden;connectable=0;fillColor=none;top=0;left=0;bottom=0;right=0;align=left;spacingLeft=6;" vertex="1" parent="CJhWm5E5vZRmMb6Nd0v4-355">
          <mxGeometry x="30" width="120" height="30" as="geometry">
            <mxRectangle width="120" height="30" as="alternateBounds" />
          </mxGeometry>
        </mxCell>
        <mxCell id="CJhWm5E5vZRmMb6Nd0v4-389" value="" style="shape=partialRectangle;collapsible=0;dropTarget=0;pointerEvents=0;fillColor=none;points=[[0,0.5],[1,0.5]];portConstraint=eastwest;top=0;left=0;right=0;bottom=0;" vertex="1" parent="CJhWm5E5vZRmMb6Nd0v4-328">
          <mxGeometry y="210" width="150" height="30" as="geometry" />
        </mxCell>
        <mxCell id="CJhWm5E5vZRmMb6Nd0v4-390" value="" style="shape=partialRectangle;overflow=hidden;connectable=0;fillColor=none;top=0;left=0;bottom=0;right=0;" vertex="1" parent="CJhWm5E5vZRmMb6Nd0v4-389">
          <mxGeometry width="30" height="30" as="geometry">
            <mxRectangle width="30" height="30" as="alternateBounds" />
          </mxGeometry>
        </mxCell>
        <mxCell id="CJhWm5E5vZRmMb6Nd0v4-391" value="other Attributes" style="shape=partialRectangle;overflow=hidden;connectable=0;fillColor=none;top=0;left=0;bottom=0;right=0;align=left;spacingLeft=6;" vertex="1" parent="CJhWm5E5vZRmMb6Nd0v4-389">
          <mxGeometry x="30" width="120" height="30" as="geometry">
            <mxRectangle width="120" height="30" as="alternateBounds" />
          </mxGeometry>
        </mxCell>
        <mxCell id="CJhWm5E5vZRmMb6Nd0v4-364" value="ProjectPlanTaskTimeline" style="shape=table;startSize=30;container=1;collapsible=1;childLayout=tableLayout;fixedRows=1;rowLines=0;fontStyle=1;align=center;resizeLast=1;" vertex="1" parent="1">
          <mxGeometry x="777" y="1050" width="150" height="220" as="geometry" />
        </mxCell>
        <mxCell id="CJhWm5E5vZRmMb6Nd0v4-365" value="" style="shape=partialRectangle;collapsible=0;dropTarget=0;pointerEvents=0;fillColor=none;points=[[0,0.5],[1,0.5]];portConstraint=eastwest;top=0;left=0;right=0;bottom=1;" vertex="1" parent="CJhWm5E5vZRmMb6Nd0v4-364">
          <mxGeometry y="30" width="150" height="30" as="geometry" />
        </mxCell>
        <mxCell id="CJhWm5E5vZRmMb6Nd0v4-366" value="PK" style="shape=partialRectangle;overflow=hidden;connectable=0;fillColor=none;top=0;left=0;bottom=0;right=0;fontStyle=1;" vertex="1" parent="CJhWm5E5vZRmMb6Nd0v4-365">
          <mxGeometry width="30" height="30" as="geometry">
            <mxRectangle width="30" height="30" as="alternateBounds" />
          </mxGeometry>
        </mxCell>
        <mxCell id="CJhWm5E5vZRmMb6Nd0v4-367" value="ID" style="shape=partialRectangle;overflow=hidden;connectable=0;fillColor=none;top=0;left=0;bottom=0;right=0;align=left;spacingLeft=6;fontStyle=5;" vertex="1" parent="CJhWm5E5vZRmMb6Nd0v4-365">
          <mxGeometry x="30" width="120" height="30" as="geometry">
            <mxRectangle width="120" height="30" as="alternateBounds" />
          </mxGeometry>
        </mxCell>
        <mxCell id="CJhWm5E5vZRmMb6Nd0v4-371" value="" style="shape=partialRectangle;collapsible=0;dropTarget=0;pointerEvents=0;fillColor=none;points=[[0,0.5],[1,0.5]];portConstraint=eastwest;top=0;left=0;right=0;bottom=0;" vertex="1" parent="CJhWm5E5vZRmMb6Nd0v4-364">
          <mxGeometry y="60" width="150" height="30" as="geometry" />
        </mxCell>
        <mxCell id="CJhWm5E5vZRmMb6Nd0v4-372" value="" style="shape=partialRectangle;overflow=hidden;connectable=0;fillColor=none;top=0;left=0;bottom=0;right=0;" vertex="1" parent="CJhWm5E5vZRmMb6Nd0v4-371">
          <mxGeometry width="30" height="30" as="geometry">
            <mxRectangle width="30" height="30" as="alternateBounds" />
          </mxGeometry>
        </mxCell>
        <mxCell id="CJhWm5E5vZRmMb6Nd0v4-373" value="projectID" style="shape=partialRectangle;overflow=hidden;connectable=0;fillColor=none;top=0;left=0;bottom=0;right=0;align=left;spacingLeft=6;" vertex="1" parent="CJhWm5E5vZRmMb6Nd0v4-371">
          <mxGeometry x="30" width="120" height="30" as="geometry">
            <mxRectangle width="120" height="30" as="alternateBounds" />
          </mxGeometry>
        </mxCell>
        <mxCell id="CJhWm5E5vZRmMb6Nd0v4-374" value="" style="shape=partialRectangle;collapsible=0;dropTarget=0;pointerEvents=0;fillColor=none;points=[[0,0.5],[1,0.5]];portConstraint=eastwest;top=0;left=0;right=0;bottom=0;" vertex="1" parent="CJhWm5E5vZRmMb6Nd0v4-364">
          <mxGeometry y="90" width="150" height="30" as="geometry" />
        </mxCell>
        <mxCell id="CJhWm5E5vZRmMb6Nd0v4-375" value="" style="shape=partialRectangle;overflow=hidden;connectable=0;fillColor=none;top=0;left=0;bottom=0;right=0;" vertex="1" parent="CJhWm5E5vZRmMb6Nd0v4-374">
          <mxGeometry width="30" height="30" as="geometry">
            <mxRectangle width="30" height="30" as="alternateBounds" />
          </mxGeometry>
        </mxCell>
        <mxCell id="CJhWm5E5vZRmMb6Nd0v4-376" value="projectPlanTaskID" style="shape=partialRectangle;overflow=hidden;connectable=0;fillColor=none;top=0;left=0;bottom=0;right=0;align=left;spacingLeft=6;" vertex="1" parent="CJhWm5E5vZRmMb6Nd0v4-374">
          <mxGeometry x="30" width="120" height="30" as="geometry">
            <mxRectangle width="120" height="30" as="alternateBounds" />
          </mxGeometry>
        </mxCell>
        <mxCell id="CJhWm5E5vZRmMb6Nd0v4-377" value="" style="shape=partialRectangle;collapsible=0;dropTarget=0;pointerEvents=0;fillColor=none;points=[[0,0.5],[1,0.5]];portConstraint=eastwest;top=0;left=0;right=0;bottom=0;" vertex="1" parent="CJhWm5E5vZRmMb6Nd0v4-364">
          <mxGeometry y="120" width="150" height="30" as="geometry" />
        </mxCell>
        <mxCell id="CJhWm5E5vZRmMb6Nd0v4-378" value="" style="shape=partialRectangle;overflow=hidden;connectable=0;fillColor=none;top=0;left=0;bottom=0;right=0;" vertex="1" parent="CJhWm5E5vZRmMb6Nd0v4-377">
          <mxGeometry width="30" height="30" as="geometry">
            <mxRectangle width="30" height="30" as="alternateBounds" />
          </mxGeometry>
        </mxCell>
        <mxCell id="CJhWm5E5vZRmMb6Nd0v4-379" value="startDate" style="shape=partialRectangle;overflow=hidden;connectable=0;fillColor=none;top=0;left=0;bottom=0;right=0;align=left;spacingLeft=6;" vertex="1" parent="CJhWm5E5vZRmMb6Nd0v4-377">
          <mxGeometry x="30" width="120" height="30" as="geometry">
            <mxRectangle width="120" height="30" as="alternateBounds" />
          </mxGeometry>
        </mxCell>
        <mxCell id="CJhWm5E5vZRmMb6Nd0v4-380" value="" style="shape=partialRectangle;collapsible=0;dropTarget=0;pointerEvents=0;fillColor=none;points=[[0,0.5],[1,0.5]];portConstraint=eastwest;top=0;left=0;right=0;bottom=0;" vertex="1" parent="CJhWm5E5vZRmMb6Nd0v4-364">
          <mxGeometry y="150" width="150" height="30" as="geometry" />
        </mxCell>
        <mxCell id="CJhWm5E5vZRmMb6Nd0v4-381" value="" style="shape=partialRectangle;overflow=hidden;connectable=0;fillColor=none;top=0;left=0;bottom=0;right=0;" vertex="1" parent="CJhWm5E5vZRmMb6Nd0v4-380">
          <mxGeometry width="30" height="30" as="geometry">
            <mxRectangle width="30" height="30" as="alternateBounds" />
          </mxGeometry>
        </mxCell>
        <mxCell id="CJhWm5E5vZRmMb6Nd0v4-382" value="finishDate" style="shape=partialRectangle;overflow=hidden;connectable=0;fillColor=none;top=0;left=0;bottom=0;right=0;align=left;spacingLeft=6;" vertex="1" parent="CJhWm5E5vZRmMb6Nd0v4-380">
          <mxGeometry x="30" width="120" height="30" as="geometry">
            <mxRectangle width="120" height="30" as="alternateBounds" />
          </mxGeometry>
        </mxCell>
        <mxCell id="CJhWm5E5vZRmMb6Nd0v4-386" value="" style="shape=partialRectangle;collapsible=0;dropTarget=0;pointerEvents=0;fillColor=none;points=[[0,0.5],[1,0.5]];portConstraint=eastwest;top=0;left=0;right=0;bottom=0;" vertex="1" parent="CJhWm5E5vZRmMb6Nd0v4-364">
          <mxGeometry y="180" width="150" height="30" as="geometry" />
        </mxCell>
        <mxCell id="CJhWm5E5vZRmMb6Nd0v4-387" value="" style="shape=partialRectangle;overflow=hidden;connectable=0;fillColor=none;top=0;left=0;bottom=0;right=0;" vertex="1" parent="CJhWm5E5vZRmMb6Nd0v4-386">
          <mxGeometry width="30" height="30" as="geometry">
            <mxRectangle width="30" height="30" as="alternateBounds" />
          </mxGeometry>
        </mxCell>
        <mxCell id="CJhWm5E5vZRmMb6Nd0v4-388" value="other Attributes" style="shape=partialRectangle;overflow=hidden;connectable=0;fillColor=none;top=0;left=0;bottom=0;right=0;align=left;spacingLeft=6;" vertex="1" parent="CJhWm5E5vZRmMb6Nd0v4-386">
          <mxGeometry x="30" width="120" height="30" as="geometry">
            <mxRectangle width="120" height="30" as="alternateBounds" />
          </mxGeometry>
        </mxCell>
        <mxCell id="CJhWm5E5vZRmMb6Nd0v4-590" value="" style="edgeStyle=entityRelationEdgeStyle;fontSize=12;html=1;endArrow=ERoneToMany;startArrow=ERmandOne;rounded=0;exitX=1;exitY=0.5;exitDx=0;exitDy=0;" edge="1" parent="1" source="CJhWm5E5vZRmMb6Nd0v4-38" target="CJhWm5E5vZRmMb6Nd0v4-60">
          <mxGeometry width="100" height="100" relative="1" as="geometry">
            <mxPoint x="1040" y="1000" as="sourcePoint" />
            <mxPoint x="1140" y="900" as="targetPoint" />
          </mxGeometry>
        </mxCell>
        <mxCell id="CJhWm5E5vZRmMb6Nd0v4-591" value="" style="edgeStyle=entityRelationEdgeStyle;fontSize=12;html=1;endArrow=ERmandOne;rounded=0;exitX=1;exitY=0.5;exitDx=0;exitDy=0;entryX=0;entryY=0.5;entryDx=0;entryDy=0;" edge="1" parent="1" source="CJhWm5E5vZRmMb6Nd0v4-44" target="CJhWm5E5vZRmMb6Nd0v4-57">
          <mxGeometry width="100" height="100" relative="1" as="geometry">
            <mxPoint x="1040" y="1000" as="sourcePoint" />
            <mxPoint x="1140" y="900" as="targetPoint" />
          </mxGeometry>
        </mxCell>
        <mxCell id="CJhWm5E5vZRmMb6Nd0v4-609" value="Project" style="shape=table;startSize=30;container=1;collapsible=1;childLayout=tableLayout;fixedRows=1;rowLines=0;fontStyle=1;align=center;resizeLast=1;" vertex="1" parent="1">
          <mxGeometry x="145" y="1170" width="120" height="130" as="geometry" />
        </mxCell>
        <mxCell id="CJhWm5E5vZRmMb6Nd0v4-610" value="" style="shape=partialRectangle;collapsible=0;dropTarget=0;pointerEvents=0;fillColor=none;points=[[0,0.5],[1,0.5]];portConstraint=eastwest;top=0;left=0;right=0;bottom=1;" vertex="1" parent="CJhWm5E5vZRmMb6Nd0v4-609">
          <mxGeometry y="30" width="120" height="30" as="geometry" />
        </mxCell>
        <mxCell id="CJhWm5E5vZRmMb6Nd0v4-611" value="PK" style="shape=partialRectangle;overflow=hidden;connectable=0;fillColor=none;top=0;left=0;bottom=0;right=0;fontStyle=1;" vertex="1" parent="CJhWm5E5vZRmMb6Nd0v4-610">
          <mxGeometry width="30" height="30" as="geometry">
            <mxRectangle width="30" height="30" as="alternateBounds" />
          </mxGeometry>
        </mxCell>
        <mxCell id="CJhWm5E5vZRmMb6Nd0v4-612" value="ID" style="shape=partialRectangle;overflow=hidden;connectable=0;fillColor=none;top=0;left=0;bottom=0;right=0;align=left;spacingLeft=6;fontStyle=5;" vertex="1" parent="CJhWm5E5vZRmMb6Nd0v4-610">
          <mxGeometry x="30" width="90" height="30" as="geometry">
            <mxRectangle width="90" height="30" as="alternateBounds" />
          </mxGeometry>
        </mxCell>
        <mxCell id="CJhWm5E5vZRmMb6Nd0v4-613" value="" style="shape=partialRectangle;collapsible=0;dropTarget=0;pointerEvents=0;fillColor=none;points=[[0,0.5],[1,0.5]];portConstraint=eastwest;top=0;left=0;right=0;bottom=0;" vertex="1" parent="CJhWm5E5vZRmMb6Nd0v4-609">
          <mxGeometry y="60" width="120" height="30" as="geometry" />
        </mxCell>
        <mxCell id="CJhWm5E5vZRmMb6Nd0v4-614" value="" style="shape=partialRectangle;overflow=hidden;connectable=0;fillColor=none;top=0;left=0;bottom=0;right=0;" vertex="1" parent="CJhWm5E5vZRmMb6Nd0v4-613">
          <mxGeometry width="30" height="30" as="geometry">
            <mxRectangle width="30" height="30" as="alternateBounds" />
          </mxGeometry>
        </mxCell>
        <mxCell id="CJhWm5E5vZRmMb6Nd0v4-615" value="name" style="shape=partialRectangle;overflow=hidden;connectable=0;fillColor=none;top=0;left=0;bottom=0;right=0;align=left;spacingLeft=6;" vertex="1" parent="CJhWm5E5vZRmMb6Nd0v4-613">
          <mxGeometry x="30" width="90" height="30" as="geometry">
            <mxRectangle width="90" height="30" as="alternateBounds" />
          </mxGeometry>
        </mxCell>
        <mxCell id="CJhWm5E5vZRmMb6Nd0v4-616" value="" style="shape=partialRectangle;collapsible=0;dropTarget=0;pointerEvents=0;fillColor=none;points=[[0,0.5],[1,0.5]];portConstraint=eastwest;top=0;left=0;right=0;bottom=0;" vertex="1" parent="CJhWm5E5vZRmMb6Nd0v4-609">
          <mxGeometry y="90" width="120" height="30" as="geometry" />
        </mxCell>
        <mxCell id="CJhWm5E5vZRmMb6Nd0v4-617" value="" style="shape=partialRectangle;overflow=hidden;connectable=0;fillColor=none;top=0;left=0;bottom=0;right=0;" vertex="1" parent="CJhWm5E5vZRmMb6Nd0v4-616">
          <mxGeometry width="30" height="30" as="geometry">
            <mxRectangle width="30" height="30" as="alternateBounds" />
          </mxGeometry>
        </mxCell>
        <mxCell id="CJhWm5E5vZRmMb6Nd0v4-618" value="other Attributes" style="shape=partialRectangle;overflow=hidden;connectable=0;fillColor=none;top=0;left=0;bottom=0;right=0;align=left;spacingLeft=6;" vertex="1" parent="CJhWm5E5vZRmMb6Nd0v4-616">
          <mxGeometry x="30" width="90" height="30" as="geometry">
            <mxRectangle width="90" height="30" as="alternateBounds" />
          </mxGeometry>
        </mxCell>
        <mxCell id="CJhWm5E5vZRmMb6Nd0v4-619" value="" style="edgeStyle=entityRelationEdgeStyle;endArrow=ERzeroToMany;startArrow=ERone;endFill=1;startFill=0;exitX=1;exitY=0.5;exitDx=0;exitDy=0;entryX=0;entryY=0.5;entryDx=0;entryDy=0;" edge="1" parent="1" source="CJhWm5E5vZRmMb6Nd0v4-610" target="CJhWm5E5vZRmMb6Nd0v4-72">
          <mxGeometry width="100" height="100" relative="1" as="geometry">
            <mxPoint x="330" y="1225" as="sourcePoint" />
            <mxPoint x="410" y="1255" as="targetPoint" />
          </mxGeometry>
        </mxCell>
        <mxCell id="CJhWm5E5vZRmMb6Nd0v4-620" value="" style="edgeStyle=entityRelationEdgeStyle;endArrow=ERzeroToMany;startArrow=ERone;endFill=1;startFill=0;entryX=1;entryY=0.5;entryDx=0;entryDy=0;exitX=1;exitY=0.5;exitDx=0;exitDy=0;" edge="1" parent="1" source="CJhWm5E5vZRmMb6Nd0v4-610" target="CJhWm5E5vZRmMb6Nd0v4-50">
          <mxGeometry width="100" height="100" relative="1" as="geometry">
            <mxPoint x="410" y="1200" as="sourcePoint" />
            <mxPoint x="420" y="1265" as="targetPoint" />
          </mxGeometry>
        </mxCell>
        <mxCell id="CJhWm5E5vZRmMb6Nd0v4-621" value="ProjectPlan" style="shape=table;startSize=30;container=1;collapsible=1;childLayout=tableLayout;fixedRows=1;rowLines=0;fontStyle=1;align=center;resizeLast=1;" vertex="1" parent="1">
          <mxGeometry x="340" y="1170" width="120" height="160" as="geometry" />
        </mxCell>
        <mxCell id="CJhWm5E5vZRmMb6Nd0v4-622" value="" style="shape=partialRectangle;collapsible=0;dropTarget=0;pointerEvents=0;fillColor=none;points=[[0,0.5],[1,0.5]];portConstraint=eastwest;top=0;left=0;right=0;bottom=1;" vertex="1" parent="CJhWm5E5vZRmMb6Nd0v4-621">
          <mxGeometry y="30" width="120" height="30" as="geometry" />
        </mxCell>
        <mxCell id="CJhWm5E5vZRmMb6Nd0v4-623" value="PK" style="shape=partialRectangle;overflow=hidden;connectable=0;fillColor=none;top=0;left=0;bottom=0;right=0;fontStyle=1;" vertex="1" parent="CJhWm5E5vZRmMb6Nd0v4-622">
          <mxGeometry width="30" height="30" as="geometry">
            <mxRectangle width="30" height="30" as="alternateBounds" />
          </mxGeometry>
        </mxCell>
        <mxCell id="CJhWm5E5vZRmMb6Nd0v4-624" value="ID" style="shape=partialRectangle;overflow=hidden;connectable=0;fillColor=none;top=0;left=0;bottom=0;right=0;align=left;spacingLeft=6;fontStyle=5;" vertex="1" parent="CJhWm5E5vZRmMb6Nd0v4-622">
          <mxGeometry x="30" width="90" height="30" as="geometry">
            <mxRectangle width="90" height="30" as="alternateBounds" />
          </mxGeometry>
        </mxCell>
        <mxCell id="CJhWm5E5vZRmMb6Nd0v4-625" value="" style="shape=partialRectangle;collapsible=0;dropTarget=0;pointerEvents=0;fillColor=none;points=[[0,0.5],[1,0.5]];portConstraint=eastwest;top=0;left=0;right=0;bottom=0;" vertex="1" parent="CJhWm5E5vZRmMb6Nd0v4-621">
          <mxGeometry y="60" width="120" height="30" as="geometry" />
        </mxCell>
        <mxCell id="CJhWm5E5vZRmMb6Nd0v4-626" value="" style="shape=partialRectangle;overflow=hidden;connectable=0;fillColor=none;top=0;left=0;bottom=0;right=0;" vertex="1" parent="CJhWm5E5vZRmMb6Nd0v4-625">
          <mxGeometry width="30" height="30" as="geometry">
            <mxRectangle width="30" height="30" as="alternateBounds" />
          </mxGeometry>
        </mxCell>
        <mxCell id="CJhWm5E5vZRmMb6Nd0v4-627" value="name" style="shape=partialRectangle;overflow=hidden;connectable=0;fillColor=none;top=0;left=0;bottom=0;right=0;align=left;spacingLeft=6;" vertex="1" parent="CJhWm5E5vZRmMb6Nd0v4-625">
          <mxGeometry x="30" width="90" height="30" as="geometry">
            <mxRectangle width="90" height="30" as="alternateBounds" />
          </mxGeometry>
        </mxCell>
        <mxCell id="CJhWm5E5vZRmMb6Nd0v4-628" value="" style="shape=partialRectangle;collapsible=0;dropTarget=0;pointerEvents=0;fillColor=none;points=[[0,0.5],[1,0.5]];portConstraint=eastwest;top=0;left=0;right=0;bottom=0;" vertex="1" parent="CJhWm5E5vZRmMb6Nd0v4-621">
          <mxGeometry y="90" width="120" height="30" as="geometry" />
        </mxCell>
        <mxCell id="CJhWm5E5vZRmMb6Nd0v4-629" value="" style="shape=partialRectangle;overflow=hidden;connectable=0;fillColor=none;top=0;left=0;bottom=0;right=0;" vertex="1" parent="CJhWm5E5vZRmMb6Nd0v4-628">
          <mxGeometry width="30" height="30" as="geometry">
            <mxRectangle width="30" height="30" as="alternateBounds" />
          </mxGeometry>
        </mxCell>
        <mxCell id="CJhWm5E5vZRmMb6Nd0v4-630" value="ProjectID" style="shape=partialRectangle;overflow=hidden;connectable=0;fillColor=none;top=0;left=0;bottom=0;right=0;align=left;spacingLeft=6;" vertex="1" parent="CJhWm5E5vZRmMb6Nd0v4-628">
          <mxGeometry x="30" width="90" height="30" as="geometry">
            <mxRectangle width="90" height="30" as="alternateBounds" />
          </mxGeometry>
        </mxCell>
        <mxCell id="CJhWm5E5vZRmMb6Nd0v4-631" value="" style="shape=partialRectangle;collapsible=0;dropTarget=0;pointerEvents=0;fillColor=none;points=[[0,0.5],[1,0.5]];portConstraint=eastwest;top=0;left=0;right=0;bottom=0;" vertex="1" parent="CJhWm5E5vZRmMb6Nd0v4-621">
          <mxGeometry y="120" width="120" height="30" as="geometry" />
        </mxCell>
        <mxCell id="CJhWm5E5vZRmMb6Nd0v4-632" value="" style="shape=partialRectangle;overflow=hidden;connectable=0;fillColor=none;top=0;left=0;bottom=0;right=0;" vertex="1" parent="CJhWm5E5vZRmMb6Nd0v4-631">
          <mxGeometry width="30" height="30" as="geometry">
            <mxRectangle width="30" height="30" as="alternateBounds" />
          </mxGeometry>
        </mxCell>
        <mxCell id="CJhWm5E5vZRmMb6Nd0v4-633" value="other Attributes" style="shape=partialRectangle;overflow=hidden;connectable=0;fillColor=none;top=0;left=0;bottom=0;right=0;align=left;spacingLeft=6;" vertex="1" parent="CJhWm5E5vZRmMb6Nd0v4-631">
          <mxGeometry x="30" width="90" height="30" as="geometry">
            <mxRectangle width="90" height="30" as="alternateBounds" />
          </mxGeometry>
        </mxCell>
        <mxCell id="CJhWm5E5vZRmMb6Nd0v4-634" value="" style="edgeStyle=entityRelationEdgeStyle;endArrow=ERzeroToMany;startArrow=ERone;endFill=1;startFill=0;exitX=1;exitY=0.5;exitDx=0;exitDy=0;" edge="1" parent="1" source="CJhWm5E5vZRmMb6Nd0v4-610" target="CJhWm5E5vZRmMb6Nd0v4-628">
          <mxGeometry width="100" height="100" relative="1" as="geometry">
            <mxPoint x="275" y="1225" as="sourcePoint" />
            <mxPoint x="380" y="1015" as="targetPoint" />
          </mxGeometry>
        </mxCell>
        <mxCell id="CJhWm5E5vZRmMb6Nd0v4-636" value="" style="edgeStyle=entityRelationEdgeStyle;endArrow=ERzeroToMany;startArrow=ERone;endFill=1;startFill=0;exitX=1;exitY=0.5;exitDx=0;exitDy=0;" edge="1" parent="1" source="CJhWm5E5vZRmMb6Nd0v4-79">
          <mxGeometry width="100" height="100" relative="1" as="geometry">
            <mxPoint x="710" y="175" as="sourcePoint" />
            <mxPoint x="777" y="865" as="targetPoint" />
          </mxGeometry>
        </mxCell>
        <mxCell id="CJhWm5E5vZRmMb6Nd0v4-637" value="" style="edgeStyle=entityRelationEdgeStyle;endArrow=ERzeroToMany;startArrow=ERone;endFill=1;startFill=0;exitX=1;exitY=0.5;exitDx=0;exitDy=0;entryX=0;entryY=0.5;entryDx=0;entryDy=0;" edge="1" parent="1" source="CJhWm5E5vZRmMb6Nd0v4-79" target="CJhWm5E5vZRmMb6Nd0v4-374">
          <mxGeometry width="100" height="100" relative="1" as="geometry">
            <mxPoint x="722" y="785" as="sourcePoint" />
            <mxPoint x="787" y="875" as="targetPoint" />
          </mxGeometry>
        </mxCell>
        <mxCell id="CJhWm5E5vZRmMb6Nd0v4-638" value="" style="edgeStyle=entityRelationEdgeStyle;fontSize=12;html=1;endArrow=ERoneToMany;startArrow=ERmandOne;rounded=0;entryX=1;entryY=0.5;entryDx=0;entryDy=0;exitX=0;exitY=0.5;exitDx=0;exitDy=0;" edge="1" parent="1" source="CJhWm5E5vZRmMb6Nd0v4-203" target="CJhWm5E5vZRmMb6Nd0v4-63">
          <mxGeometry width="100" height="100" relative="1" as="geometry">
            <mxPoint x="1010" y="1070" as="sourcePoint" />
            <mxPoint x="1110" y="970" as="targetPoint" />
          </mxGeometry>
        </mxCell>
        <mxCell id="CJhWm5E5vZRmMb6Nd0v4-639" value="" style="edgeStyle=entityRelationEdgeStyle;fontSize=12;html=1;endArrow=ERoneToMany;startArrow=ERmandOne;rounded=0;entryX=1;entryY=0.5;entryDx=0;entryDy=0;exitX=0;exitY=0.5;exitDx=0;exitDy=0;" edge="1" parent="1" source="CJhWm5E5vZRmMb6Nd0v4-79" target="CJhWm5E5vZRmMb6Nd0v4-63">
          <mxGeometry width="100" height="100" relative="1" as="geometry">
            <mxPoint x="592" y="1175" as="sourcePoint" />
            <mxPoint x="530" y="955" as="targetPoint" />
          </mxGeometry>
        </mxCell>
        <mxCell id="CJhWm5E5vZRmMb6Nd0v4-640" value="" style="edgeStyle=entityRelationEdgeStyle;fontSize=12;html=1;endArrow=ERoneToMany;startArrow=ERmandOne;rounded=0;entryX=1;entryY=0.5;entryDx=0;entryDy=0;exitX=0;exitY=0.5;exitDx=0;exitDy=0;" edge="1" parent="1" source="CJhWm5E5vZRmMb6Nd0v4-622" target="CJhWm5E5vZRmMb6Nd0v4-41">
          <mxGeometry width="100" height="100" relative="1" as="geometry">
            <mxPoint x="1010" y="1230" as="sourcePoint" />
            <mxPoint x="1110" y="1130" as="targetPoint" />
          </mxGeometry>
        </mxCell>
        <mxCell id="CJhWm5E5vZRmMb6Nd0v4-642" value="HierarchyHeader" style="shape=table;startSize=30;container=1;collapsible=1;childLayout=tableLayout;fixedRows=1;rowLines=0;fontStyle=1;align=center;resizeLast=1;" vertex="1" parent="1">
          <mxGeometry x="730" y="1955" width="180" height="220" as="geometry" />
        </mxCell>
        <mxCell id="CJhWm5E5vZRmMb6Nd0v4-643" value="" style="shape=partialRectangle;collapsible=0;dropTarget=0;pointerEvents=0;fillColor=none;points=[[0,0.5],[1,0.5]];portConstraint=eastwest;top=0;left=0;right=0;bottom=1;" vertex="1" parent="CJhWm5E5vZRmMb6Nd0v4-642">
          <mxGeometry y="30" width="180" height="30" as="geometry" />
        </mxCell>
        <mxCell id="CJhWm5E5vZRmMb6Nd0v4-644" value="PK" style="shape=partialRectangle;overflow=hidden;connectable=0;fillColor=none;top=0;left=0;bottom=0;right=0;fontStyle=1;" vertex="1" parent="CJhWm5E5vZRmMb6Nd0v4-643">
          <mxGeometry width="30" height="30" as="geometry">
            <mxRectangle width="30" height="30" as="alternateBounds" />
          </mxGeometry>
        </mxCell>
        <mxCell id="CJhWm5E5vZRmMb6Nd0v4-645" value="ID" style="shape=partialRectangle;overflow=hidden;connectable=0;fillColor=none;top=0;left=0;bottom=0;right=0;align=left;spacingLeft=6;fontStyle=5;" vertex="1" parent="CJhWm5E5vZRmMb6Nd0v4-643">
          <mxGeometry x="30" width="150" height="30" as="geometry">
            <mxRectangle width="150" height="30" as="alternateBounds" />
          </mxGeometry>
        </mxCell>
        <mxCell id="CJhWm5E5vZRmMb6Nd0v4-646" value="" style="shape=partialRectangle;collapsible=0;dropTarget=0;pointerEvents=0;fillColor=none;points=[[0,0.5],[1,0.5]];portConstraint=eastwest;top=0;left=0;right=0;bottom=0;" vertex="1" parent="CJhWm5E5vZRmMb6Nd0v4-642">
          <mxGeometry y="60" width="180" height="30" as="geometry" />
        </mxCell>
        <mxCell id="CJhWm5E5vZRmMb6Nd0v4-647" value="" style="shape=partialRectangle;overflow=hidden;connectable=0;fillColor=none;top=0;left=0;bottom=0;right=0;" vertex="1" parent="CJhWm5E5vZRmMb6Nd0v4-646">
          <mxGeometry width="30" height="30" as="geometry">
            <mxRectangle width="30" height="30" as="alternateBounds" />
          </mxGeometry>
        </mxCell>
        <mxCell id="CJhWm5E5vZRmMb6Nd0v4-648" value="linkedObjID(Project Plan)" style="shape=partialRectangle;overflow=hidden;connectable=0;fillColor=none;top=0;left=0;bottom=0;right=0;align=left;spacingLeft=6;" vertex="1" parent="CJhWm5E5vZRmMb6Nd0v4-646">
          <mxGeometry x="30" width="150" height="30" as="geometry">
            <mxRectangle width="150" height="30" as="alternateBounds" />
          </mxGeometry>
        </mxCell>
        <mxCell id="CJhWm5E5vZRmMb6Nd0v4-649" value="" style="shape=partialRectangle;collapsible=0;dropTarget=0;pointerEvents=0;fillColor=none;points=[[0,0.5],[1,0.5]];portConstraint=eastwest;top=0;left=0;right=0;bottom=0;" vertex="1" parent="CJhWm5E5vZRmMb6Nd0v4-642">
          <mxGeometry y="90" width="180" height="30" as="geometry" />
        </mxCell>
        <mxCell id="CJhWm5E5vZRmMb6Nd0v4-650" value="" style="shape=partialRectangle;overflow=hidden;connectable=0;fillColor=none;top=0;left=0;bottom=0;right=0;" vertex="1" parent="CJhWm5E5vZRmMb6Nd0v4-649">
          <mxGeometry width="30" height="30" as="geometry">
            <mxRectangle width="30" height="30" as="alternateBounds" />
          </mxGeometry>
        </mxCell>
        <mxCell id="CJhWm5E5vZRmMb6Nd0v4-651" value="rootConnectionID" style="shape=partialRectangle;overflow=hidden;connectable=0;fillColor=none;top=0;left=0;bottom=0;right=0;align=left;spacingLeft=6;" vertex="1" parent="CJhWm5E5vZRmMb6Nd0v4-649">
          <mxGeometry x="30" width="150" height="30" as="geometry">
            <mxRectangle width="150" height="30" as="alternateBounds" />
          </mxGeometry>
        </mxCell>
        <mxCell id="CJhWm5E5vZRmMb6Nd0v4-652" value="" style="shape=partialRectangle;collapsible=0;dropTarget=0;pointerEvents=0;fillColor=none;points=[[0,0.5],[1,0.5]];portConstraint=eastwest;top=0;left=0;right=0;bottom=0;" vertex="1" parent="CJhWm5E5vZRmMb6Nd0v4-642">
          <mxGeometry y="120" width="180" height="30" as="geometry" />
        </mxCell>
        <mxCell id="CJhWm5E5vZRmMb6Nd0v4-653" value="" style="shape=partialRectangle;overflow=hidden;connectable=0;fillColor=none;top=0;left=0;bottom=0;right=0;" vertex="1" parent="CJhWm5E5vZRmMb6Nd0v4-652">
          <mxGeometry width="30" height="30" as="geometry">
            <mxRectangle width="30" height="30" as="alternateBounds" />
          </mxGeometry>
        </mxCell>
        <mxCell id="CJhWm5E5vZRmMb6Nd0v4-654" value="profile" style="shape=partialRectangle;overflow=hidden;connectable=0;fillColor=none;top=0;left=0;bottom=0;right=0;align=left;spacingLeft=6;" vertex="1" parent="CJhWm5E5vZRmMb6Nd0v4-652">
          <mxGeometry x="30" width="150" height="30" as="geometry">
            <mxRectangle width="150" height="30" as="alternateBounds" />
          </mxGeometry>
        </mxCell>
        <mxCell id="CJhWm5E5vZRmMb6Nd0v4-655" value="" style="shape=partialRectangle;collapsible=0;dropTarget=0;pointerEvents=0;fillColor=none;points=[[0,0.5],[1,0.5]];portConstraint=eastwest;top=0;left=0;right=0;bottom=0;" vertex="1" parent="CJhWm5E5vZRmMb6Nd0v4-642">
          <mxGeometry y="150" width="180" height="30" as="geometry" />
        </mxCell>
        <mxCell id="CJhWm5E5vZRmMb6Nd0v4-656" value="" style="shape=partialRectangle;overflow=hidden;connectable=0;fillColor=none;top=0;left=0;bottom=0;right=0;" vertex="1" parent="CJhWm5E5vZRmMb6Nd0v4-655">
          <mxGeometry width="30" height="30" as="geometry">
            <mxRectangle width="30" height="30" as="alternateBounds" />
          </mxGeometry>
        </mxCell>
        <mxCell id="CJhWm5E5vZRmMb6Nd0v4-657" value="scopeObjID(Project)" style="shape=partialRectangle;overflow=hidden;connectable=0;fillColor=#FF3399;top=0;left=0;bottom=0;right=0;align=left;spacingLeft=6;" vertex="1" parent="CJhWm5E5vZRmMb6Nd0v4-655">
          <mxGeometry x="30" width="150" height="30" as="geometry">
            <mxRectangle width="150" height="30" as="alternateBounds" />
          </mxGeometry>
        </mxCell>
        <mxCell id="CJhWm5E5vZRmMb6Nd0v4-658" value="" style="shape=partialRectangle;collapsible=0;dropTarget=0;pointerEvents=0;fillColor=none;points=[[0,0.5],[1,0.5]];portConstraint=eastwest;top=0;left=0;right=0;bottom=0;" vertex="1" parent="CJhWm5E5vZRmMb6Nd0v4-642">
          <mxGeometry y="180" width="180" height="30" as="geometry" />
        </mxCell>
        <mxCell id="CJhWm5E5vZRmMb6Nd0v4-659" value="" style="shape=partialRectangle;overflow=hidden;connectable=0;fillColor=none;top=0;left=0;bottom=0;right=0;" vertex="1" parent="CJhWm5E5vZRmMb6Nd0v4-658">
          <mxGeometry width="30" height="30" as="geometry">
            <mxRectangle width="30" height="30" as="alternateBounds" />
          </mxGeometry>
        </mxCell>
        <mxCell id="CJhWm5E5vZRmMb6Nd0v4-660" value="otherAttributes" style="shape=partialRectangle;overflow=hidden;connectable=0;fillColor=none;top=0;left=0;bottom=0;right=0;align=left;spacingLeft=6;" vertex="1" parent="CJhWm5E5vZRmMb6Nd0v4-658">
          <mxGeometry x="30" width="150" height="30" as="geometry">
            <mxRectangle width="150" height="30" as="alternateBounds" />
          </mxGeometry>
        </mxCell>
        <mxCell id="CJhWm5E5vZRmMb6Nd0v4-661" value="HierarchyConnection" style="shape=table;startSize=30;container=1;collapsible=1;childLayout=tableLayout;fixedRows=1;rowLines=0;fontStyle=1;align=center;resizeLast=1;" vertex="1" parent="1">
          <mxGeometry x="1015" y="1960" width="150" height="280" as="geometry" />
        </mxCell>
        <mxCell id="CJhWm5E5vZRmMb6Nd0v4-662" value="" style="shape=partialRectangle;collapsible=0;dropTarget=0;pointerEvents=0;fillColor=none;points=[[0,0.5],[1,0.5]];portConstraint=eastwest;top=0;left=0;right=0;bottom=1;" vertex="1" parent="CJhWm5E5vZRmMb6Nd0v4-661">
          <mxGeometry y="30" width="150" height="30" as="geometry" />
        </mxCell>
        <mxCell id="CJhWm5E5vZRmMb6Nd0v4-663" value="PK" style="shape=partialRectangle;overflow=hidden;connectable=0;fillColor=none;top=0;left=0;bottom=0;right=0;fontStyle=1;" vertex="1" parent="CJhWm5E5vZRmMb6Nd0v4-662">
          <mxGeometry width="30" height="30" as="geometry">
            <mxRectangle width="30" height="30" as="alternateBounds" />
          </mxGeometry>
        </mxCell>
        <mxCell id="CJhWm5E5vZRmMb6Nd0v4-664" value="ID" style="shape=partialRectangle;overflow=hidden;connectable=0;fillColor=none;top=0;left=0;bottom=0;right=0;align=left;spacingLeft=6;fontStyle=5;" vertex="1" parent="CJhWm5E5vZRmMb6Nd0v4-662">
          <mxGeometry x="30" width="120" height="30" as="geometry">
            <mxRectangle width="120" height="30" as="alternateBounds" />
          </mxGeometry>
        </mxCell>
        <mxCell id="CJhWm5E5vZRmMb6Nd0v4-665" value="" style="shape=partialRectangle;collapsible=0;dropTarget=0;pointerEvents=0;fillColor=none;points=[[0,0.5],[1,0.5]];portConstraint=eastwest;top=0;left=0;right=0;bottom=0;" vertex="1" parent="CJhWm5E5vZRmMb6Nd0v4-661">
          <mxGeometry y="60" width="150" height="30" as="geometry" />
        </mxCell>
        <mxCell id="CJhWm5E5vZRmMb6Nd0v4-666" value="" style="shape=partialRectangle;overflow=hidden;connectable=0;fillColor=none;top=0;left=0;bottom=0;right=0;" vertex="1" parent="CJhWm5E5vZRmMb6Nd0v4-665">
          <mxGeometry width="30" height="30" as="geometry">
            <mxRectangle width="30" height="30" as="alternateBounds" />
          </mxGeometry>
        </mxCell>
        <mxCell id="CJhWm5E5vZRmMb6Nd0v4-667" value="hierarchyHeaderID" style="shape=partialRectangle;overflow=hidden;connectable=0;fillColor=none;top=0;left=0;bottom=0;right=0;align=left;spacingLeft=6;" vertex="1" parent="CJhWm5E5vZRmMb6Nd0v4-665">
          <mxGeometry x="30" width="120" height="30" as="geometry">
            <mxRectangle width="120" height="30" as="alternateBounds" />
          </mxGeometry>
        </mxCell>
        <mxCell id="CJhWm5E5vZRmMb6Nd0v4-668" value="" style="shape=partialRectangle;collapsible=0;dropTarget=0;pointerEvents=0;fillColor=none;points=[[0,0.5],[1,0.5]];portConstraint=eastwest;top=0;left=0;right=0;bottom=0;" vertex="1" parent="CJhWm5E5vZRmMb6Nd0v4-661">
          <mxGeometry y="90" width="150" height="30" as="geometry" />
        </mxCell>
        <mxCell id="CJhWm5E5vZRmMb6Nd0v4-669" value="" style="shape=partialRectangle;overflow=hidden;connectable=0;fillColor=none;top=0;left=0;bottom=0;right=0;" vertex="1" parent="CJhWm5E5vZRmMb6Nd0v4-668">
          <mxGeometry width="30" height="30" as="geometry">
            <mxRectangle width="30" height="30" as="alternateBounds" />
          </mxGeometry>
        </mxCell>
        <mxCell id="CJhWm5E5vZRmMb6Nd0v4-670" value="childNode" style="shape=partialRectangle;overflow=hidden;connectable=0;fillColor=#33FF33;top=0;left=0;bottom=0;right=0;align=left;spacingLeft=6;" vertex="1" parent="CJhWm5E5vZRmMb6Nd0v4-668">
          <mxGeometry x="30" width="120" height="30" as="geometry">
            <mxRectangle width="120" height="30" as="alternateBounds" />
          </mxGeometry>
        </mxCell>
        <mxCell id="CJhWm5E5vZRmMb6Nd0v4-671" value="" style="shape=partialRectangle;collapsible=0;dropTarget=0;pointerEvents=0;fillColor=none;points=[[0,0.5],[1,0.5]];portConstraint=eastwest;top=0;left=0;right=0;bottom=0;" vertex="1" parent="CJhWm5E5vZRmMb6Nd0v4-661">
          <mxGeometry y="120" width="150" height="30" as="geometry" />
        </mxCell>
        <mxCell id="CJhWm5E5vZRmMb6Nd0v4-672" value="" style="shape=partialRectangle;overflow=hidden;connectable=0;fillColor=none;top=0;left=0;bottom=0;right=0;" vertex="1" parent="CJhWm5E5vZRmMb6Nd0v4-671">
          <mxGeometry width="30" height="30" as="geometry">
            <mxRectangle width="30" height="30" as="alternateBounds" />
          </mxGeometry>
        </mxCell>
        <mxCell id="CJhWm5E5vZRmMb6Nd0v4-673" value="parentNode" style="shape=partialRectangle;overflow=hidden;connectable=0;fillColor=#33FF33;top=0;left=0;bottom=0;right=0;align=left;spacingLeft=6;" vertex="1" parent="CJhWm5E5vZRmMb6Nd0v4-671">
          <mxGeometry x="30" width="120" height="30" as="geometry">
            <mxRectangle width="120" height="30" as="alternateBounds" />
          </mxGeometry>
        </mxCell>
        <mxCell id="CJhWm5E5vZRmMb6Nd0v4-674" value="" style="shape=partialRectangle;collapsible=0;dropTarget=0;pointerEvents=0;fillColor=none;points=[[0,0.5],[1,0.5]];portConstraint=eastwest;top=0;left=0;right=0;bottom=0;" vertex="1" parent="CJhWm5E5vZRmMb6Nd0v4-661">
          <mxGeometry y="150" width="150" height="30" as="geometry" />
        </mxCell>
        <mxCell id="CJhWm5E5vZRmMb6Nd0v4-675" value="" style="shape=partialRectangle;overflow=hidden;connectable=0;fillColor=none;top=0;left=0;bottom=0;right=0;" vertex="1" parent="CJhWm5E5vZRmMb6Nd0v4-674">
          <mxGeometry width="30" height="30" as="geometry">
            <mxRectangle width="30" height="30" as="alternateBounds" />
          </mxGeometry>
        </mxCell>
        <mxCell id="CJhWm5E5vZRmMb6Nd0v4-676" value="scopeObjID(Project)" style="shape=partialRectangle;overflow=hidden;connectable=0;fillColor=#FF3399;top=0;left=0;bottom=0;right=0;align=left;spacingLeft=6;" vertex="1" parent="CJhWm5E5vZRmMb6Nd0v4-674">
          <mxGeometry x="30" width="120" height="30" as="geometry">
            <mxRectangle width="120" height="30" as="alternateBounds" />
          </mxGeometry>
        </mxCell>
        <mxCell id="CJhWm5E5vZRmMb6Nd0v4-677" value="" style="shape=partialRectangle;collapsible=0;dropTarget=0;pointerEvents=0;fillColor=none;points=[[0,0.5],[1,0.5]];portConstraint=eastwest;top=0;left=0;right=0;bottom=0;" vertex="1" parent="CJhWm5E5vZRmMb6Nd0v4-661">
          <mxGeometry y="180" width="150" height="30" as="geometry" />
        </mxCell>
        <mxCell id="CJhWm5E5vZRmMb6Nd0v4-678" value="" style="shape=partialRectangle;overflow=hidden;connectable=0;fillColor=none;top=0;left=0;bottom=0;right=0;" vertex="1" parent="CJhWm5E5vZRmMb6Nd0v4-677">
          <mxGeometry width="30" height="30" as="geometry">
            <mxRectangle width="30" height="30" as="alternateBounds" />
          </mxGeometry>
        </mxCell>
        <mxCell id="CJhWm5E5vZRmMb6Nd0v4-679" value="SortNumber" style="shape=partialRectangle;overflow=hidden;connectable=0;fillColor=none;top=0;left=0;bottom=0;right=0;align=left;spacingLeft=6;" vertex="1" parent="CJhWm5E5vZRmMb6Nd0v4-677">
          <mxGeometry x="30" width="120" height="30" as="geometry">
            <mxRectangle width="120" height="30" as="alternateBounds" />
          </mxGeometry>
        </mxCell>
        <mxCell id="CJhWm5E5vZRmMb6Nd0v4-680" value="" style="shape=partialRectangle;collapsible=0;dropTarget=0;pointerEvents=0;fillColor=none;points=[[0,0.5],[1,0.5]];portConstraint=eastwest;top=0;left=0;right=0;bottom=0;" vertex="1" parent="CJhWm5E5vZRmMb6Nd0v4-661">
          <mxGeometry y="210" width="150" height="30" as="geometry" />
        </mxCell>
        <mxCell id="CJhWm5E5vZRmMb6Nd0v4-681" value="" style="shape=partialRectangle;overflow=hidden;connectable=0;fillColor=none;top=0;left=0;bottom=0;right=0;" vertex="1" parent="CJhWm5E5vZRmMb6Nd0v4-680">
          <mxGeometry width="30" height="30" as="geometry">
            <mxRectangle width="30" height="30" as="alternateBounds" />
          </mxGeometry>
        </mxCell>
        <mxCell id="CJhWm5E5vZRmMb6Nd0v4-682" value="ObjectID" style="shape=partialRectangle;overflow=hidden;connectable=0;fillColor=#FFFF33;top=0;left=0;bottom=0;right=0;align=left;spacingLeft=6;" vertex="1" parent="CJhWm5E5vZRmMb6Nd0v4-680">
          <mxGeometry x="30" width="120" height="30" as="geometry">
            <mxRectangle width="120" height="30" as="alternateBounds" />
          </mxGeometry>
        </mxCell>
        <mxCell id="CJhWm5E5vZRmMb6Nd0v4-827" value="" style="shape=partialRectangle;collapsible=0;dropTarget=0;pointerEvents=0;fillColor=none;points=[[0,0.5],[1,0.5]];portConstraint=eastwest;top=0;left=0;right=0;bottom=0;" vertex="1" parent="CJhWm5E5vZRmMb6Nd0v4-661">
          <mxGeometry y="240" width="150" height="30" as="geometry" />
        </mxCell>
        <mxCell id="CJhWm5E5vZRmMb6Nd0v4-828" value="" style="shape=partialRectangle;overflow=hidden;connectable=0;fillColor=none;top=0;left=0;bottom=0;right=0;" vertex="1" parent="CJhWm5E5vZRmMb6Nd0v4-827">
          <mxGeometry width="30" height="30" as="geometry">
            <mxRectangle width="30" height="30" as="alternateBounds" />
          </mxGeometry>
        </mxCell>
        <mxCell id="CJhWm5E5vZRmMb6Nd0v4-829" value="other Attributes" style="shape=partialRectangle;overflow=hidden;connectable=0;fillColor=none;top=0;left=0;bottom=0;right=0;align=left;spacingLeft=6;" vertex="1" parent="CJhWm5E5vZRmMb6Nd0v4-827">
          <mxGeometry x="30" width="120" height="30" as="geometry">
            <mxRectangle width="120" height="30" as="alternateBounds" />
          </mxGeometry>
        </mxCell>
        <mxCell id="CJhWm5E5vZRmMb6Nd0v4-683" value="ProjectPlanElement" style="shape=table;startSize=30;container=1;collapsible=1;childLayout=tableLayout;fixedRows=1;rowLines=0;fontStyle=1;align=center;resizeLast=1;" vertex="1" parent="1">
          <mxGeometry x="1227" y="1850" width="130" height="340" as="geometry" />
        </mxCell>
        <mxCell id="CJhWm5E5vZRmMb6Nd0v4-684" value="" style="shape=partialRectangle;collapsible=0;dropTarget=0;pointerEvents=0;fillColor=none;points=[[0,0.5],[1,0.5]];portConstraint=eastwest;top=0;left=0;right=0;bottom=1;" vertex="1" parent="CJhWm5E5vZRmMb6Nd0v4-683">
          <mxGeometry y="30" width="130" height="30" as="geometry" />
        </mxCell>
        <mxCell id="CJhWm5E5vZRmMb6Nd0v4-685" value="PK" style="shape=partialRectangle;overflow=hidden;connectable=0;fillColor=none;top=0;left=0;bottom=0;right=0;fontStyle=1;" vertex="1" parent="CJhWm5E5vZRmMb6Nd0v4-684">
          <mxGeometry width="30" height="30" as="geometry">
            <mxRectangle width="30" height="30" as="alternateBounds" />
          </mxGeometry>
        </mxCell>
        <mxCell id="CJhWm5E5vZRmMb6Nd0v4-686" value="ID" style="shape=partialRectangle;overflow=hidden;connectable=0;fillColor=none;top=0;left=0;bottom=0;right=0;align=left;spacingLeft=6;fontStyle=5;" vertex="1" parent="CJhWm5E5vZRmMb6Nd0v4-684">
          <mxGeometry x="30" width="100" height="30" as="geometry">
            <mxRectangle width="100" height="30" as="alternateBounds" />
          </mxGeometry>
        </mxCell>
        <mxCell id="CJhWm5E5vZRmMb6Nd0v4-687" value="" style="shape=partialRectangle;collapsible=0;dropTarget=0;pointerEvents=0;fillColor=none;points=[[0,0.5],[1,0.5]];portConstraint=eastwest;top=0;left=0;right=0;bottom=0;" vertex="1" parent="CJhWm5E5vZRmMb6Nd0v4-683">
          <mxGeometry y="60" width="130" height="30" as="geometry" />
        </mxCell>
        <mxCell id="CJhWm5E5vZRmMb6Nd0v4-688" value="" style="shape=partialRectangle;overflow=hidden;connectable=0;fillColor=none;top=0;left=0;bottom=0;right=0;" vertex="1" parent="CJhWm5E5vZRmMb6Nd0v4-687">
          <mxGeometry width="30" height="30" as="geometry">
            <mxRectangle width="30" height="30" as="alternateBounds" />
          </mxGeometry>
        </mxCell>
        <mxCell id="CJhWm5E5vZRmMb6Nd0v4-689" value="name" style="shape=partialRectangle;overflow=hidden;connectable=0;fillColor=none;top=0;left=0;bottom=0;right=0;align=left;spacingLeft=6;" vertex="1" parent="CJhWm5E5vZRmMb6Nd0v4-687">
          <mxGeometry x="30" width="100" height="30" as="geometry">
            <mxRectangle width="100" height="30" as="alternateBounds" />
          </mxGeometry>
        </mxCell>
        <mxCell id="CJhWm5E5vZRmMb6Nd0v4-690" value="" style="shape=partialRectangle;collapsible=0;dropTarget=0;pointerEvents=0;fillColor=none;points=[[0,0.5],[1,0.5]];portConstraint=eastwest;top=0;left=0;right=0;bottom=0;" vertex="1" parent="CJhWm5E5vZRmMb6Nd0v4-683">
          <mxGeometry y="90" width="130" height="30" as="geometry" />
        </mxCell>
        <mxCell id="CJhWm5E5vZRmMb6Nd0v4-691" value="" style="shape=partialRectangle;overflow=hidden;connectable=0;fillColor=none;top=0;left=0;bottom=0;right=0;" vertex="1" parent="CJhWm5E5vZRmMb6Nd0v4-690">
          <mxGeometry width="30" height="30" as="geometry">
            <mxRectangle width="30" height="30" as="alternateBounds" />
          </mxGeometry>
        </mxCell>
        <mxCell id="CJhWm5E5vZRmMb6Nd0v4-692" value="plannedStartDate" style="shape=partialRectangle;overflow=hidden;connectable=0;fillColor=none;top=0;left=0;bottom=0;right=0;align=left;spacingLeft=6;" vertex="1" parent="CJhWm5E5vZRmMb6Nd0v4-690">
          <mxGeometry x="30" width="100" height="30" as="geometry">
            <mxRectangle width="100" height="30" as="alternateBounds" />
          </mxGeometry>
        </mxCell>
        <mxCell id="CJhWm5E5vZRmMb6Nd0v4-693" value="" style="shape=partialRectangle;collapsible=0;dropTarget=0;pointerEvents=0;fillColor=none;points=[[0,0.5],[1,0.5]];portConstraint=eastwest;top=0;left=0;right=0;bottom=0;" vertex="1" parent="CJhWm5E5vZRmMb6Nd0v4-683">
          <mxGeometry y="120" width="130" height="30" as="geometry" />
        </mxCell>
        <mxCell id="CJhWm5E5vZRmMb6Nd0v4-694" value="" style="shape=partialRectangle;overflow=hidden;connectable=0;fillColor=none;top=0;left=0;bottom=0;right=0;" vertex="1" parent="CJhWm5E5vZRmMb6Nd0v4-693">
          <mxGeometry width="30" height="30" as="geometry">
            <mxRectangle width="30" height="30" as="alternateBounds" />
          </mxGeometry>
        </mxCell>
        <mxCell id="CJhWm5E5vZRmMb6Nd0v4-695" value="plannedEndDate" style="shape=partialRectangle;overflow=hidden;connectable=0;fillColor=none;top=0;left=0;bottom=0;right=0;align=left;spacingLeft=6;" vertex="1" parent="CJhWm5E5vZRmMb6Nd0v4-693">
          <mxGeometry x="30" width="100" height="30" as="geometry">
            <mxRectangle width="100" height="30" as="alternateBounds" />
          </mxGeometry>
        </mxCell>
        <mxCell id="CJhWm5E5vZRmMb6Nd0v4-696" value="" style="shape=partialRectangle;collapsible=0;dropTarget=0;pointerEvents=0;fillColor=none;points=[[0,0.5],[1,0.5]];portConstraint=eastwest;top=0;left=0;right=0;bottom=0;" vertex="1" parent="CJhWm5E5vZRmMb6Nd0v4-683">
          <mxGeometry y="150" width="130" height="30" as="geometry" />
        </mxCell>
        <mxCell id="CJhWm5E5vZRmMb6Nd0v4-697" value="" style="shape=partialRectangle;overflow=hidden;connectable=0;fillColor=none;top=0;left=0;bottom=0;right=0;" vertex="1" parent="CJhWm5E5vZRmMb6Nd0v4-696">
          <mxGeometry width="30" height="30" as="geometry">
            <mxRectangle width="30" height="30" as="alternateBounds" />
          </mxGeometry>
        </mxCell>
        <mxCell id="CJhWm5E5vZRmMb6Nd0v4-698" value="objectType" style="shape=partialRectangle;overflow=hidden;connectable=0;fillColor=none;top=0;left=0;bottom=0;right=0;align=left;spacingLeft=6;" vertex="1" parent="CJhWm5E5vZRmMb6Nd0v4-696">
          <mxGeometry x="30" width="100" height="30" as="geometry">
            <mxRectangle width="100" height="30" as="alternateBounds" />
          </mxGeometry>
        </mxCell>
        <mxCell id="CJhWm5E5vZRmMb6Nd0v4-699" value="" style="shape=partialRectangle;collapsible=0;dropTarget=0;pointerEvents=0;fillColor=none;points=[[0,0.5],[1,0.5]];portConstraint=eastwest;top=0;left=0;right=0;bottom=0;" vertex="1" parent="CJhWm5E5vZRmMb6Nd0v4-683">
          <mxGeometry y="180" width="130" height="30" as="geometry" />
        </mxCell>
        <mxCell id="CJhWm5E5vZRmMb6Nd0v4-700" value="" style="shape=partialRectangle;overflow=hidden;connectable=0;fillColor=none;top=0;left=0;bottom=0;right=0;" vertex="1" parent="CJhWm5E5vZRmMb6Nd0v4-699">
          <mxGeometry width="30" height="30" as="geometry">
            <mxRectangle width="30" height="30" as="alternateBounds" />
          </mxGeometry>
        </mxCell>
        <mxCell id="CJhWm5E5vZRmMb6Nd0v4-701" value="duration" style="shape=partialRectangle;overflow=hidden;connectable=0;fillColor=none;top=0;left=0;bottom=0;right=0;align=left;spacingLeft=6;" vertex="1" parent="CJhWm5E5vZRmMb6Nd0v4-699">
          <mxGeometry x="30" width="100" height="30" as="geometry">
            <mxRectangle width="100" height="30" as="alternateBounds" />
          </mxGeometry>
        </mxCell>
        <mxCell id="CJhWm5E5vZRmMb6Nd0v4-702" value="" style="shape=partialRectangle;collapsible=0;dropTarget=0;pointerEvents=0;fillColor=none;points=[[0,0.5],[1,0.5]];portConstraint=eastwest;top=0;left=0;right=0;bottom=0;" vertex="1" parent="CJhWm5E5vZRmMb6Nd0v4-683">
          <mxGeometry y="210" width="130" height="30" as="geometry" />
        </mxCell>
        <mxCell id="CJhWm5E5vZRmMb6Nd0v4-703" value="" style="shape=partialRectangle;overflow=hidden;connectable=0;fillColor=none;top=0;left=0;bottom=0;right=0;" vertex="1" parent="CJhWm5E5vZRmMb6Nd0v4-702">
          <mxGeometry width="30" height="30" as="geometry">
            <mxRectangle width="30" height="30" as="alternateBounds" />
          </mxGeometry>
        </mxCell>
        <mxCell id="CJhWm5E5vZRmMb6Nd0v4-704" value="durationUnit" style="shape=partialRectangle;overflow=hidden;connectable=0;fillColor=none;top=0;left=0;bottom=0;right=0;align=left;spacingLeft=6;" vertex="1" parent="CJhWm5E5vZRmMb6Nd0v4-702">
          <mxGeometry x="30" width="100" height="30" as="geometry">
            <mxRectangle width="100" height="30" as="alternateBounds" />
          </mxGeometry>
        </mxCell>
        <mxCell id="CJhWm5E5vZRmMb6Nd0v4-705" value="" style="shape=partialRectangle;collapsible=0;dropTarget=0;pointerEvents=0;fillColor=none;points=[[0,0.5],[1,0.5]];portConstraint=eastwest;top=0;left=0;right=0;bottom=0;" vertex="1" parent="CJhWm5E5vZRmMb6Nd0v4-683">
          <mxGeometry y="240" width="130" height="30" as="geometry" />
        </mxCell>
        <mxCell id="CJhWm5E5vZRmMb6Nd0v4-706" value="" style="shape=partialRectangle;overflow=hidden;connectable=0;fillColor=none;top=0;left=0;bottom=0;right=0;" vertex="1" parent="CJhWm5E5vZRmMb6Nd0v4-705">
          <mxGeometry width="30" height="30" as="geometry">
            <mxRectangle width="30" height="30" as="alternateBounds" />
          </mxGeometry>
        </mxCell>
        <mxCell id="CJhWm5E5vZRmMb6Nd0v4-707" value="projectPlanID" style="shape=partialRectangle;overflow=hidden;connectable=0;fillColor=none;top=0;left=0;bottom=0;right=0;align=left;spacingLeft=6;" vertex="1" parent="CJhWm5E5vZRmMb6Nd0v4-705">
          <mxGeometry x="30" width="100" height="30" as="geometry">
            <mxRectangle width="100" height="30" as="alternateBounds" />
          </mxGeometry>
        </mxCell>
        <mxCell id="CJhWm5E5vZRmMb6Nd0v4-708" value="" style="shape=partialRectangle;collapsible=0;dropTarget=0;pointerEvents=0;fillColor=none;points=[[0,0.5],[1,0.5]];portConstraint=eastwest;top=0;left=0;right=0;bottom=0;" vertex="1" parent="CJhWm5E5vZRmMb6Nd0v4-683">
          <mxGeometry y="270" width="130" height="30" as="geometry" />
        </mxCell>
        <mxCell id="CJhWm5E5vZRmMb6Nd0v4-709" value="" style="shape=partialRectangle;overflow=hidden;connectable=0;fillColor=none;top=0;left=0;bottom=0;right=0;" vertex="1" parent="CJhWm5E5vZRmMb6Nd0v4-708">
          <mxGeometry width="30" height="30" as="geometry">
            <mxRectangle width="30" height="30" as="alternateBounds" />
          </mxGeometry>
        </mxCell>
        <mxCell id="CJhWm5E5vZRmMb6Nd0v4-710" value="type" style="shape=partialRectangle;overflow=hidden;connectable=0;fillColor=none;top=0;left=0;bottom=0;right=0;align=left;spacingLeft=6;" vertex="1" parent="CJhWm5E5vZRmMb6Nd0v4-708">
          <mxGeometry x="30" width="100" height="30" as="geometry">
            <mxRectangle width="100" height="30" as="alternateBounds" />
          </mxGeometry>
        </mxCell>
        <mxCell id="CJhWm5E5vZRmMb6Nd0v4-711" value="" style="shape=partialRectangle;collapsible=0;dropTarget=0;pointerEvents=0;fillColor=none;points=[[0,0.5],[1,0.5]];portConstraint=eastwest;top=0;left=0;right=0;bottom=0;" vertex="1" parent="CJhWm5E5vZRmMb6Nd0v4-683">
          <mxGeometry y="300" width="130" height="30" as="geometry" />
        </mxCell>
        <mxCell id="CJhWm5E5vZRmMb6Nd0v4-712" value="" style="shape=partialRectangle;overflow=hidden;connectable=0;fillColor=none;top=0;left=0;bottom=0;right=0;" vertex="1" parent="CJhWm5E5vZRmMb6Nd0v4-711">
          <mxGeometry width="30" height="30" as="geometry">
            <mxRectangle width="30" height="30" as="alternateBounds" />
          </mxGeometry>
        </mxCell>
        <mxCell id="CJhWm5E5vZRmMb6Nd0v4-713" value="other Attributes" style="shape=partialRectangle;overflow=hidden;connectable=0;fillColor=none;top=0;left=0;bottom=0;right=0;align=left;spacingLeft=6;" vertex="1" parent="CJhWm5E5vZRmMb6Nd0v4-711">
          <mxGeometry x="30" width="100" height="30" as="geometry">
            <mxRectangle width="100" height="30" as="alternateBounds" />
          </mxGeometry>
        </mxCell>
        <mxCell id="CJhWm5E5vZRmMb6Nd0v4-714" value="ProjectCostElement" style="shape=table;startSize=30;container=1;collapsible=1;childLayout=tableLayout;fixedRows=1;rowLines=0;fontStyle=1;align=center;resizeLast=1;" vertex="1" parent="1">
          <mxGeometry x="1227" y="2240" width="130" height="190" as="geometry" />
        </mxCell>
        <mxCell id="CJhWm5E5vZRmMb6Nd0v4-715" value="" style="shape=partialRectangle;collapsible=0;dropTarget=0;pointerEvents=0;fillColor=none;points=[[0,0.5],[1,0.5]];portConstraint=eastwest;top=0;left=0;right=0;bottom=1;" vertex="1" parent="CJhWm5E5vZRmMb6Nd0v4-714">
          <mxGeometry y="30" width="130" height="30" as="geometry" />
        </mxCell>
        <mxCell id="CJhWm5E5vZRmMb6Nd0v4-716" value="PK" style="shape=partialRectangle;overflow=hidden;connectable=0;fillColor=none;top=0;left=0;bottom=0;right=0;fontStyle=1;" vertex="1" parent="CJhWm5E5vZRmMb6Nd0v4-715">
          <mxGeometry width="30" height="30" as="geometry">
            <mxRectangle width="30" height="30" as="alternateBounds" />
          </mxGeometry>
        </mxCell>
        <mxCell id="CJhWm5E5vZRmMb6Nd0v4-717" value="ID" style="shape=partialRectangle;overflow=hidden;connectable=0;fillColor=none;top=0;left=0;bottom=0;right=0;align=left;spacingLeft=6;fontStyle=5;" vertex="1" parent="CJhWm5E5vZRmMb6Nd0v4-715">
          <mxGeometry x="30" width="100" height="30" as="geometry">
            <mxRectangle width="100" height="30" as="alternateBounds" />
          </mxGeometry>
        </mxCell>
        <mxCell id="CJhWm5E5vZRmMb6Nd0v4-718" value="" style="shape=partialRectangle;collapsible=0;dropTarget=0;pointerEvents=0;fillColor=none;points=[[0,0.5],[1,0.5]];portConstraint=eastwest;top=0;left=0;right=0;bottom=0;" vertex="1" parent="CJhWm5E5vZRmMb6Nd0v4-714">
          <mxGeometry y="60" width="130" height="30" as="geometry" />
        </mxCell>
        <mxCell id="CJhWm5E5vZRmMb6Nd0v4-719" value="" style="shape=partialRectangle;overflow=hidden;connectable=0;fillColor=none;top=0;left=0;bottom=0;right=0;" vertex="1" parent="CJhWm5E5vZRmMb6Nd0v4-718">
          <mxGeometry width="30" height="30" as="geometry">
            <mxRectangle width="30" height="30" as="alternateBounds" />
          </mxGeometry>
        </mxCell>
        <mxCell id="CJhWm5E5vZRmMb6Nd0v4-720" value="name" style="shape=partialRectangle;overflow=hidden;connectable=0;fillColor=none;top=0;left=0;bottom=0;right=0;align=left;spacingLeft=6;" vertex="1" parent="CJhWm5E5vZRmMb6Nd0v4-718">
          <mxGeometry x="30" width="100" height="30" as="geometry">
            <mxRectangle width="100" height="30" as="alternateBounds" />
          </mxGeometry>
        </mxCell>
        <mxCell id="CJhWm5E5vZRmMb6Nd0v4-721" value="" style="shape=partialRectangle;collapsible=0;dropTarget=0;pointerEvents=0;fillColor=none;points=[[0,0.5],[1,0.5]];portConstraint=eastwest;top=0;left=0;right=0;bottom=0;" vertex="1" parent="CJhWm5E5vZRmMb6Nd0v4-714">
          <mxGeometry y="90" width="130" height="30" as="geometry" />
        </mxCell>
        <mxCell id="CJhWm5E5vZRmMb6Nd0v4-722" value="" style="shape=partialRectangle;overflow=hidden;connectable=0;fillColor=none;top=0;left=0;bottom=0;right=0;" vertex="1" parent="CJhWm5E5vZRmMb6Nd0v4-721">
          <mxGeometry width="30" height="30" as="geometry">
            <mxRectangle width="30" height="30" as="alternateBounds" />
          </mxGeometry>
        </mxCell>
        <mxCell id="CJhWm5E5vZRmMb6Nd0v4-723" value="amount" style="shape=partialRectangle;overflow=hidden;connectable=0;fillColor=none;top=0;left=0;bottom=0;right=0;align=left;spacingLeft=6;" vertex="1" parent="CJhWm5E5vZRmMb6Nd0v4-721">
          <mxGeometry x="30" width="100" height="30" as="geometry">
            <mxRectangle width="100" height="30" as="alternateBounds" />
          </mxGeometry>
        </mxCell>
        <mxCell id="CJhWm5E5vZRmMb6Nd0v4-724" value="" style="shape=partialRectangle;collapsible=0;dropTarget=0;pointerEvents=0;fillColor=none;points=[[0,0.5],[1,0.5]];portConstraint=eastwest;top=0;left=0;right=0;bottom=0;" vertex="1" parent="CJhWm5E5vZRmMb6Nd0v4-714">
          <mxGeometry y="120" width="130" height="30" as="geometry" />
        </mxCell>
        <mxCell id="CJhWm5E5vZRmMb6Nd0v4-725" value="" style="shape=partialRectangle;overflow=hidden;connectable=0;fillColor=none;top=0;left=0;bottom=0;right=0;" vertex="1" parent="CJhWm5E5vZRmMb6Nd0v4-724">
          <mxGeometry width="30" height="30" as="geometry">
            <mxRectangle width="30" height="30" as="alternateBounds" />
          </mxGeometry>
        </mxCell>
        <mxCell id="CJhWm5E5vZRmMb6Nd0v4-726" value="currency" style="shape=partialRectangle;overflow=hidden;connectable=0;fillColor=none;top=0;left=0;bottom=0;right=0;align=left;spacingLeft=6;" vertex="1" parent="CJhWm5E5vZRmMb6Nd0v4-724">
          <mxGeometry x="30" width="100" height="30" as="geometry">
            <mxRectangle width="100" height="30" as="alternateBounds" />
          </mxGeometry>
        </mxCell>
        <mxCell id="CJhWm5E5vZRmMb6Nd0v4-727" value="" style="shape=partialRectangle;collapsible=0;dropTarget=0;pointerEvents=0;fillColor=none;points=[[0,0.5],[1,0.5]];portConstraint=eastwest;top=0;left=0;right=0;bottom=0;" vertex="1" parent="CJhWm5E5vZRmMb6Nd0v4-714">
          <mxGeometry y="150" width="130" height="30" as="geometry" />
        </mxCell>
        <mxCell id="CJhWm5E5vZRmMb6Nd0v4-728" value="" style="shape=partialRectangle;overflow=hidden;connectable=0;fillColor=none;top=0;left=0;bottom=0;right=0;" vertex="1" parent="CJhWm5E5vZRmMb6Nd0v4-727">
          <mxGeometry width="30" height="30" as="geometry">
            <mxRectangle width="30" height="30" as="alternateBounds" />
          </mxGeometry>
        </mxCell>
        <mxCell id="CJhWm5E5vZRmMb6Nd0v4-729" value="other Attributes" style="shape=partialRectangle;overflow=hidden;connectable=0;fillColor=none;top=0;left=0;bottom=0;right=0;align=left;spacingLeft=6;" vertex="1" parent="CJhWm5E5vZRmMb6Nd0v4-727">
          <mxGeometry x="30" width="100" height="30" as="geometry">
            <mxRectangle width="100" height="30" as="alternateBounds" />
          </mxGeometry>
        </mxCell>
        <mxCell id="CJhWm5E5vZRmMb6Nd0v4-730" value="Issue" style="shape=table;startSize=30;container=1;collapsible=1;childLayout=tableLayout;fixedRows=1;rowLines=0;fontStyle=1;align=center;resizeLast=1;" vertex="1" parent="1">
          <mxGeometry x="1592" y="2000" width="120" height="130" as="geometry" />
        </mxCell>
        <mxCell id="CJhWm5E5vZRmMb6Nd0v4-731" value="" style="shape=partialRectangle;collapsible=0;dropTarget=0;pointerEvents=0;fillColor=none;points=[[0,0.5],[1,0.5]];portConstraint=eastwest;top=0;left=0;right=0;bottom=1;" vertex="1" parent="CJhWm5E5vZRmMb6Nd0v4-730">
          <mxGeometry y="30" width="120" height="30" as="geometry" />
        </mxCell>
        <mxCell id="CJhWm5E5vZRmMb6Nd0v4-732" value="PK" style="shape=partialRectangle;overflow=hidden;connectable=0;fillColor=none;top=0;left=0;bottom=0;right=0;fontStyle=1;" vertex="1" parent="CJhWm5E5vZRmMb6Nd0v4-731">
          <mxGeometry width="30" height="30" as="geometry">
            <mxRectangle width="30" height="30" as="alternateBounds" />
          </mxGeometry>
        </mxCell>
        <mxCell id="CJhWm5E5vZRmMb6Nd0v4-733" value="ID" style="shape=partialRectangle;overflow=hidden;connectable=0;fillColor=none;top=0;left=0;bottom=0;right=0;align=left;spacingLeft=6;fontStyle=5;" vertex="1" parent="CJhWm5E5vZRmMb6Nd0v4-731">
          <mxGeometry x="30" width="90" height="30" as="geometry">
            <mxRectangle width="90" height="30" as="alternateBounds" />
          </mxGeometry>
        </mxCell>
        <mxCell id="CJhWm5E5vZRmMb6Nd0v4-734" value="" style="shape=partialRectangle;collapsible=0;dropTarget=0;pointerEvents=0;fillColor=none;points=[[0,0.5],[1,0.5]];portConstraint=eastwest;top=0;left=0;right=0;bottom=0;" vertex="1" parent="CJhWm5E5vZRmMb6Nd0v4-730">
          <mxGeometry y="60" width="120" height="30" as="geometry" />
        </mxCell>
        <mxCell id="CJhWm5E5vZRmMb6Nd0v4-735" value="" style="shape=partialRectangle;overflow=hidden;connectable=0;fillColor=none;top=0;left=0;bottom=0;right=0;" vertex="1" parent="CJhWm5E5vZRmMb6Nd0v4-734">
          <mxGeometry width="30" height="30" as="geometry">
            <mxRectangle width="30" height="30" as="alternateBounds" />
          </mxGeometry>
        </mxCell>
        <mxCell id="CJhWm5E5vZRmMb6Nd0v4-736" value="name" style="shape=partialRectangle;overflow=hidden;connectable=0;fillColor=none;top=0;left=0;bottom=0;right=0;align=left;spacingLeft=6;" vertex="1" parent="CJhWm5E5vZRmMb6Nd0v4-734">
          <mxGeometry x="30" width="90" height="30" as="geometry">
            <mxRectangle width="90" height="30" as="alternateBounds" />
          </mxGeometry>
        </mxCell>
        <mxCell id="CJhWm5E5vZRmMb6Nd0v4-737" value="" style="shape=partialRectangle;collapsible=0;dropTarget=0;pointerEvents=0;fillColor=none;points=[[0,0.5],[1,0.5]];portConstraint=eastwest;top=0;left=0;right=0;bottom=0;" vertex="1" parent="CJhWm5E5vZRmMb6Nd0v4-730">
          <mxGeometry y="90" width="120" height="30" as="geometry" />
        </mxCell>
        <mxCell id="CJhWm5E5vZRmMb6Nd0v4-738" value="" style="shape=partialRectangle;overflow=hidden;connectable=0;fillColor=none;top=0;left=0;bottom=0;right=0;" vertex="1" parent="CJhWm5E5vZRmMb6Nd0v4-737">
          <mxGeometry width="30" height="30" as="geometry">
            <mxRectangle width="30" height="30" as="alternateBounds" />
          </mxGeometry>
        </mxCell>
        <mxCell id="CJhWm5E5vZRmMb6Nd0v4-739" value="other Attributes" style="shape=partialRectangle;overflow=hidden;connectable=0;fillColor=none;top=0;left=0;bottom=0;right=0;align=left;spacingLeft=6;" vertex="1" parent="CJhWm5E5vZRmMb6Nd0v4-737">
          <mxGeometry x="30" width="90" height="30" as="geometry">
            <mxRectangle width="90" height="30" as="alternateBounds" />
          </mxGeometry>
        </mxCell>
        <mxCell id="CJhWm5E5vZRmMb6Nd0v4-740" value="Task" style="shape=table;startSize=30;container=1;collapsible=1;childLayout=tableLayout;fixedRows=1;rowLines=0;fontStyle=1;align=center;resizeLast=1;" vertex="1" parent="1">
          <mxGeometry x="1592" y="2245" width="120" height="130" as="geometry" />
        </mxCell>
        <mxCell id="CJhWm5E5vZRmMb6Nd0v4-741" value="" style="shape=partialRectangle;collapsible=0;dropTarget=0;pointerEvents=0;fillColor=none;points=[[0,0.5],[1,0.5]];portConstraint=eastwest;top=0;left=0;right=0;bottom=1;" vertex="1" parent="CJhWm5E5vZRmMb6Nd0v4-740">
          <mxGeometry y="30" width="120" height="30" as="geometry" />
        </mxCell>
        <mxCell id="CJhWm5E5vZRmMb6Nd0v4-742" value="PK" style="shape=partialRectangle;overflow=hidden;connectable=0;fillColor=none;top=0;left=0;bottom=0;right=0;fontStyle=1;" vertex="1" parent="CJhWm5E5vZRmMb6Nd0v4-741">
          <mxGeometry width="30" height="30" as="geometry">
            <mxRectangle width="30" height="30" as="alternateBounds" />
          </mxGeometry>
        </mxCell>
        <mxCell id="CJhWm5E5vZRmMb6Nd0v4-743" value="ID" style="shape=partialRectangle;overflow=hidden;connectable=0;fillColor=none;top=0;left=0;bottom=0;right=0;align=left;spacingLeft=6;fontStyle=5;" vertex="1" parent="CJhWm5E5vZRmMb6Nd0v4-741">
          <mxGeometry x="30" width="90" height="30" as="geometry">
            <mxRectangle width="90" height="30" as="alternateBounds" />
          </mxGeometry>
        </mxCell>
        <mxCell id="CJhWm5E5vZRmMb6Nd0v4-744" value="" style="shape=partialRectangle;collapsible=0;dropTarget=0;pointerEvents=0;fillColor=none;points=[[0,0.5],[1,0.5]];portConstraint=eastwest;top=0;left=0;right=0;bottom=0;" vertex="1" parent="CJhWm5E5vZRmMb6Nd0v4-740">
          <mxGeometry y="60" width="120" height="30" as="geometry" />
        </mxCell>
        <mxCell id="CJhWm5E5vZRmMb6Nd0v4-745" value="" style="shape=partialRectangle;overflow=hidden;connectable=0;fillColor=none;top=0;left=0;bottom=0;right=0;" vertex="1" parent="CJhWm5E5vZRmMb6Nd0v4-744">
          <mxGeometry width="30" height="30" as="geometry">
            <mxRectangle width="30" height="30" as="alternateBounds" />
          </mxGeometry>
        </mxCell>
        <mxCell id="CJhWm5E5vZRmMb6Nd0v4-746" value="name" style="shape=partialRectangle;overflow=hidden;connectable=0;fillColor=none;top=0;left=0;bottom=0;right=0;align=left;spacingLeft=6;" vertex="1" parent="CJhWm5E5vZRmMb6Nd0v4-744">
          <mxGeometry x="30" width="90" height="30" as="geometry">
            <mxRectangle width="90" height="30" as="alternateBounds" />
          </mxGeometry>
        </mxCell>
        <mxCell id="CJhWm5E5vZRmMb6Nd0v4-747" value="" style="shape=partialRectangle;collapsible=0;dropTarget=0;pointerEvents=0;fillColor=none;points=[[0,0.5],[1,0.5]];portConstraint=eastwest;top=0;left=0;right=0;bottom=0;" vertex="1" parent="CJhWm5E5vZRmMb6Nd0v4-740">
          <mxGeometry y="90" width="120" height="30" as="geometry" />
        </mxCell>
        <mxCell id="CJhWm5E5vZRmMb6Nd0v4-748" value="" style="shape=partialRectangle;overflow=hidden;connectable=0;fillColor=none;top=0;left=0;bottom=0;right=0;" vertex="1" parent="CJhWm5E5vZRmMb6Nd0v4-747">
          <mxGeometry width="30" height="30" as="geometry">
            <mxRectangle width="30" height="30" as="alternateBounds" />
          </mxGeometry>
        </mxCell>
        <mxCell id="CJhWm5E5vZRmMb6Nd0v4-749" value="other Attributes" style="shape=partialRectangle;overflow=hidden;connectable=0;fillColor=none;top=0;left=0;bottom=0;right=0;align=left;spacingLeft=6;" vertex="1" parent="CJhWm5E5vZRmMb6Nd0v4-747">
          <mxGeometry x="30" width="90" height="30" as="geometry">
            <mxRectangle width="90" height="30" as="alternateBounds" />
          </mxGeometry>
        </mxCell>
        <mxCell id="CJhWm5E5vZRmMb6Nd0v4-750" value="ProjectPlanTaskRelation" style="shape=table;startSize=30;container=1;collapsible=1;childLayout=tableLayout;fixedRows=1;rowLines=0;fontStyle=1;align=center;resizeLast=1;" vertex="1" parent="1">
          <mxGeometry x="1422" y="1850" width="150" height="250" as="geometry" />
        </mxCell>
        <mxCell id="CJhWm5E5vZRmMb6Nd0v4-751" value="" style="shape=partialRectangle;collapsible=0;dropTarget=0;pointerEvents=0;fillColor=none;points=[[0,0.5],[1,0.5]];portConstraint=eastwest;top=0;left=0;right=0;bottom=1;" vertex="1" parent="CJhWm5E5vZRmMb6Nd0v4-750">
          <mxGeometry y="30" width="150" height="30" as="geometry" />
        </mxCell>
        <mxCell id="CJhWm5E5vZRmMb6Nd0v4-752" value="PK" style="shape=partialRectangle;overflow=hidden;connectable=0;fillColor=none;top=0;left=0;bottom=0;right=0;fontStyle=1;" vertex="1" parent="CJhWm5E5vZRmMb6Nd0v4-751">
          <mxGeometry width="30" height="30" as="geometry">
            <mxRectangle width="30" height="30" as="alternateBounds" />
          </mxGeometry>
        </mxCell>
        <mxCell id="CJhWm5E5vZRmMb6Nd0v4-753" value="ID" style="shape=partialRectangle;overflow=hidden;connectable=0;fillColor=none;top=0;left=0;bottom=0;right=0;align=left;spacingLeft=6;fontStyle=5;" vertex="1" parent="CJhWm5E5vZRmMb6Nd0v4-751">
          <mxGeometry x="30" width="120" height="30" as="geometry">
            <mxRectangle width="120" height="30" as="alternateBounds" />
          </mxGeometry>
        </mxCell>
        <mxCell id="CJhWm5E5vZRmMb6Nd0v4-754" value="" style="shape=partialRectangle;collapsible=0;dropTarget=0;pointerEvents=0;fillColor=none;points=[[0,0.5],[1,0.5]];portConstraint=eastwest;top=0;left=0;right=0;bottom=0;" vertex="1" parent="CJhWm5E5vZRmMb6Nd0v4-750">
          <mxGeometry y="60" width="150" height="30" as="geometry" />
        </mxCell>
        <mxCell id="CJhWm5E5vZRmMb6Nd0v4-755" value="" style="shape=partialRectangle;overflow=hidden;connectable=0;fillColor=none;top=0;left=0;bottom=0;right=0;" vertex="1" parent="CJhWm5E5vZRmMb6Nd0v4-754">
          <mxGeometry width="30" height="30" as="geometry">
            <mxRectangle width="30" height="30" as="alternateBounds" />
          </mxGeometry>
        </mxCell>
        <mxCell id="CJhWm5E5vZRmMb6Nd0v4-756" value="projectID" style="shape=partialRectangle;overflow=hidden;connectable=0;fillColor=none;top=0;left=0;bottom=0;right=0;align=left;spacingLeft=6;" vertex="1" parent="CJhWm5E5vZRmMb6Nd0v4-754">
          <mxGeometry x="30" width="120" height="30" as="geometry">
            <mxRectangle width="120" height="30" as="alternateBounds" />
          </mxGeometry>
        </mxCell>
        <mxCell id="CJhWm5E5vZRmMb6Nd0v4-757" value="" style="shape=partialRectangle;collapsible=0;dropTarget=0;pointerEvents=0;fillColor=none;points=[[0,0.5],[1,0.5]];portConstraint=eastwest;top=0;left=0;right=0;bottom=0;" vertex="1" parent="CJhWm5E5vZRmMb6Nd0v4-750">
          <mxGeometry y="90" width="150" height="30" as="geometry" />
        </mxCell>
        <mxCell id="CJhWm5E5vZRmMb6Nd0v4-758" value="" style="shape=partialRectangle;overflow=hidden;connectable=0;fillColor=none;top=0;left=0;bottom=0;right=0;" vertex="1" parent="CJhWm5E5vZRmMb6Nd0v4-757">
          <mxGeometry width="30" height="30" as="geometry">
            <mxRectangle width="30" height="30" as="alternateBounds" />
          </mxGeometry>
        </mxCell>
        <mxCell id="CJhWm5E5vZRmMb6Nd0v4-759" value="projectPlanID" style="shape=partialRectangle;overflow=hidden;connectable=0;fillColor=none;top=0;left=0;bottom=0;right=0;align=left;spacingLeft=6;" vertex="1" parent="CJhWm5E5vZRmMb6Nd0v4-757">
          <mxGeometry x="30" width="120" height="30" as="geometry">
            <mxRectangle width="120" height="30" as="alternateBounds" />
          </mxGeometry>
        </mxCell>
        <mxCell id="CJhWm5E5vZRmMb6Nd0v4-763" value="" style="shape=partialRectangle;collapsible=0;dropTarget=0;pointerEvents=0;fillColor=none;points=[[0,0.5],[1,0.5]];portConstraint=eastwest;top=0;left=0;right=0;bottom=0;" vertex="1" parent="CJhWm5E5vZRmMb6Nd0v4-750">
          <mxGeometry y="120" width="150" height="30" as="geometry" />
        </mxCell>
        <mxCell id="CJhWm5E5vZRmMb6Nd0v4-764" value="" style="shape=partialRectangle;overflow=hidden;connectable=0;fillColor=none;top=0;left=0;bottom=0;right=0;" vertex="1" parent="CJhWm5E5vZRmMb6Nd0v4-763">
          <mxGeometry width="30" height="30" as="geometry">
            <mxRectangle width="30" height="30" as="alternateBounds" />
          </mxGeometry>
        </mxCell>
        <mxCell id="CJhWm5E5vZRmMb6Nd0v4-765" value="sourceTask" style="shape=partialRectangle;overflow=hidden;connectable=0;fillColor=none;top=0;left=0;bottom=0;right=0;align=left;spacingLeft=6;" vertex="1" parent="CJhWm5E5vZRmMb6Nd0v4-763">
          <mxGeometry x="30" width="120" height="30" as="geometry">
            <mxRectangle width="120" height="30" as="alternateBounds" />
          </mxGeometry>
        </mxCell>
        <mxCell id="CJhWm5E5vZRmMb6Nd0v4-766" value="" style="shape=partialRectangle;collapsible=0;dropTarget=0;pointerEvents=0;fillColor=none;points=[[0,0.5],[1,0.5]];portConstraint=eastwest;top=0;left=0;right=0;bottom=0;" vertex="1" parent="CJhWm5E5vZRmMb6Nd0v4-750">
          <mxGeometry y="150" width="150" height="30" as="geometry" />
        </mxCell>
        <mxCell id="CJhWm5E5vZRmMb6Nd0v4-767" value="" style="shape=partialRectangle;overflow=hidden;connectable=0;fillColor=none;top=0;left=0;bottom=0;right=0;" vertex="1" parent="CJhWm5E5vZRmMb6Nd0v4-766">
          <mxGeometry width="30" height="30" as="geometry">
            <mxRectangle width="30" height="30" as="alternateBounds" />
          </mxGeometry>
        </mxCell>
        <mxCell id="CJhWm5E5vZRmMb6Nd0v4-768" value="targetTask" style="shape=partialRectangle;overflow=hidden;connectable=0;fillColor=none;top=0;left=0;bottom=0;right=0;align=left;spacingLeft=6;" vertex="1" parent="CJhWm5E5vZRmMb6Nd0v4-766">
          <mxGeometry x="30" width="120" height="30" as="geometry">
            <mxRectangle width="120" height="30" as="alternateBounds" />
          </mxGeometry>
        </mxCell>
        <mxCell id="CJhWm5E5vZRmMb6Nd0v4-769" value="" style="shape=partialRectangle;collapsible=0;dropTarget=0;pointerEvents=0;fillColor=none;points=[[0,0.5],[1,0.5]];portConstraint=eastwest;top=0;left=0;right=0;bottom=0;" vertex="1" parent="CJhWm5E5vZRmMb6Nd0v4-750">
          <mxGeometry y="180" width="150" height="30" as="geometry" />
        </mxCell>
        <mxCell id="CJhWm5E5vZRmMb6Nd0v4-770" value="" style="shape=partialRectangle;overflow=hidden;connectable=0;fillColor=none;top=0;left=0;bottom=0;right=0;" vertex="1" parent="CJhWm5E5vZRmMb6Nd0v4-769">
          <mxGeometry width="30" height="30" as="geometry">
            <mxRectangle width="30" height="30" as="alternateBounds" />
          </mxGeometry>
        </mxCell>
        <mxCell id="CJhWm5E5vZRmMb6Nd0v4-771" value="type" style="shape=partialRectangle;overflow=hidden;connectable=0;fillColor=none;top=0;left=0;bottom=0;right=0;align=left;spacingLeft=6;" vertex="1" parent="CJhWm5E5vZRmMb6Nd0v4-769">
          <mxGeometry x="30" width="120" height="30" as="geometry">
            <mxRectangle width="120" height="30" as="alternateBounds" />
          </mxGeometry>
        </mxCell>
        <mxCell id="CJhWm5E5vZRmMb6Nd0v4-772" value="" style="shape=partialRectangle;collapsible=0;dropTarget=0;pointerEvents=0;fillColor=none;points=[[0,0.5],[1,0.5]];portConstraint=eastwest;top=0;left=0;right=0;bottom=0;" vertex="1" parent="CJhWm5E5vZRmMb6Nd0v4-750">
          <mxGeometry y="210" width="150" height="30" as="geometry" />
        </mxCell>
        <mxCell id="CJhWm5E5vZRmMb6Nd0v4-773" value="" style="shape=partialRectangle;overflow=hidden;connectable=0;fillColor=none;top=0;left=0;bottom=0;right=0;" vertex="1" parent="CJhWm5E5vZRmMb6Nd0v4-772">
          <mxGeometry width="30" height="30" as="geometry">
            <mxRectangle width="30" height="30" as="alternateBounds" />
          </mxGeometry>
        </mxCell>
        <mxCell id="CJhWm5E5vZRmMb6Nd0v4-774" value="other Attributes" style="shape=partialRectangle;overflow=hidden;connectable=0;fillColor=none;top=0;left=0;bottom=0;right=0;align=left;spacingLeft=6;" vertex="1" parent="CJhWm5E5vZRmMb6Nd0v4-772">
          <mxGeometry x="30" width="120" height="30" as="geometry">
            <mxRectangle width="120" height="30" as="alternateBounds" />
          </mxGeometry>
        </mxCell>
        <mxCell id="CJhWm5E5vZRmMb6Nd0v4-775" value="ProjectPlanTaskTimeline" style="shape=table;startSize=30;container=1;collapsible=1;childLayout=tableLayout;fixedRows=1;rowLines=0;fontStyle=1;align=center;resizeLast=1;" vertex="1" parent="1">
          <mxGeometry x="1422" y="2170" width="150" height="220" as="geometry" />
        </mxCell>
        <mxCell id="CJhWm5E5vZRmMb6Nd0v4-776" value="" style="shape=partialRectangle;collapsible=0;dropTarget=0;pointerEvents=0;fillColor=none;points=[[0,0.5],[1,0.5]];portConstraint=eastwest;top=0;left=0;right=0;bottom=1;" vertex="1" parent="CJhWm5E5vZRmMb6Nd0v4-775">
          <mxGeometry y="30" width="150" height="30" as="geometry" />
        </mxCell>
        <mxCell id="CJhWm5E5vZRmMb6Nd0v4-777" value="PK" style="shape=partialRectangle;overflow=hidden;connectable=0;fillColor=none;top=0;left=0;bottom=0;right=0;fontStyle=1;" vertex="1" parent="CJhWm5E5vZRmMb6Nd0v4-776">
          <mxGeometry width="30" height="30" as="geometry">
            <mxRectangle width="30" height="30" as="alternateBounds" />
          </mxGeometry>
        </mxCell>
        <mxCell id="CJhWm5E5vZRmMb6Nd0v4-778" value="ID" style="shape=partialRectangle;overflow=hidden;connectable=0;fillColor=none;top=0;left=0;bottom=0;right=0;align=left;spacingLeft=6;fontStyle=5;" vertex="1" parent="CJhWm5E5vZRmMb6Nd0v4-776">
          <mxGeometry x="30" width="120" height="30" as="geometry">
            <mxRectangle width="120" height="30" as="alternateBounds" />
          </mxGeometry>
        </mxCell>
        <mxCell id="CJhWm5E5vZRmMb6Nd0v4-779" value="" style="shape=partialRectangle;collapsible=0;dropTarget=0;pointerEvents=0;fillColor=none;points=[[0,0.5],[1,0.5]];portConstraint=eastwest;top=0;left=0;right=0;bottom=0;" vertex="1" parent="CJhWm5E5vZRmMb6Nd0v4-775">
          <mxGeometry y="60" width="150" height="30" as="geometry" />
        </mxCell>
        <mxCell id="CJhWm5E5vZRmMb6Nd0v4-780" value="" style="shape=partialRectangle;overflow=hidden;connectable=0;fillColor=none;top=0;left=0;bottom=0;right=0;" vertex="1" parent="CJhWm5E5vZRmMb6Nd0v4-779">
          <mxGeometry width="30" height="30" as="geometry">
            <mxRectangle width="30" height="30" as="alternateBounds" />
          </mxGeometry>
        </mxCell>
        <mxCell id="CJhWm5E5vZRmMb6Nd0v4-781" value="projectID" style="shape=partialRectangle;overflow=hidden;connectable=0;fillColor=none;top=0;left=0;bottom=0;right=0;align=left;spacingLeft=6;" vertex="1" parent="CJhWm5E5vZRmMb6Nd0v4-779">
          <mxGeometry x="30" width="120" height="30" as="geometry">
            <mxRectangle width="120" height="30" as="alternateBounds" />
          </mxGeometry>
        </mxCell>
        <mxCell id="CJhWm5E5vZRmMb6Nd0v4-782" value="" style="shape=partialRectangle;collapsible=0;dropTarget=0;pointerEvents=0;fillColor=none;points=[[0,0.5],[1,0.5]];portConstraint=eastwest;top=0;left=0;right=0;bottom=0;" vertex="1" parent="CJhWm5E5vZRmMb6Nd0v4-775">
          <mxGeometry y="90" width="150" height="30" as="geometry" />
        </mxCell>
        <mxCell id="CJhWm5E5vZRmMb6Nd0v4-783" value="" style="shape=partialRectangle;overflow=hidden;connectable=0;fillColor=none;top=0;left=0;bottom=0;right=0;" vertex="1" parent="CJhWm5E5vZRmMb6Nd0v4-782">
          <mxGeometry width="30" height="30" as="geometry">
            <mxRectangle width="30" height="30" as="alternateBounds" />
          </mxGeometry>
        </mxCell>
        <mxCell id="CJhWm5E5vZRmMb6Nd0v4-784" value="projectPlanTaskID" style="shape=partialRectangle;overflow=hidden;connectable=0;fillColor=none;top=0;left=0;bottom=0;right=0;align=left;spacingLeft=6;" vertex="1" parent="CJhWm5E5vZRmMb6Nd0v4-782">
          <mxGeometry x="30" width="120" height="30" as="geometry">
            <mxRectangle width="120" height="30" as="alternateBounds" />
          </mxGeometry>
        </mxCell>
        <mxCell id="CJhWm5E5vZRmMb6Nd0v4-785" value="" style="shape=partialRectangle;collapsible=0;dropTarget=0;pointerEvents=0;fillColor=none;points=[[0,0.5],[1,0.5]];portConstraint=eastwest;top=0;left=0;right=0;bottom=0;" vertex="1" parent="CJhWm5E5vZRmMb6Nd0v4-775">
          <mxGeometry y="120" width="150" height="30" as="geometry" />
        </mxCell>
        <mxCell id="CJhWm5E5vZRmMb6Nd0v4-786" value="" style="shape=partialRectangle;overflow=hidden;connectable=0;fillColor=none;top=0;left=0;bottom=0;right=0;" vertex="1" parent="CJhWm5E5vZRmMb6Nd0v4-785">
          <mxGeometry width="30" height="30" as="geometry">
            <mxRectangle width="30" height="30" as="alternateBounds" />
          </mxGeometry>
        </mxCell>
        <mxCell id="CJhWm5E5vZRmMb6Nd0v4-787" value="startDate" style="shape=partialRectangle;overflow=hidden;connectable=0;fillColor=none;top=0;left=0;bottom=0;right=0;align=left;spacingLeft=6;" vertex="1" parent="CJhWm5E5vZRmMb6Nd0v4-785">
          <mxGeometry x="30" width="120" height="30" as="geometry">
            <mxRectangle width="120" height="30" as="alternateBounds" />
          </mxGeometry>
        </mxCell>
        <mxCell id="CJhWm5E5vZRmMb6Nd0v4-788" value="" style="shape=partialRectangle;collapsible=0;dropTarget=0;pointerEvents=0;fillColor=none;points=[[0,0.5],[1,0.5]];portConstraint=eastwest;top=0;left=0;right=0;bottom=0;" vertex="1" parent="CJhWm5E5vZRmMb6Nd0v4-775">
          <mxGeometry y="150" width="150" height="30" as="geometry" />
        </mxCell>
        <mxCell id="CJhWm5E5vZRmMb6Nd0v4-789" value="" style="shape=partialRectangle;overflow=hidden;connectable=0;fillColor=none;top=0;left=0;bottom=0;right=0;" vertex="1" parent="CJhWm5E5vZRmMb6Nd0v4-788">
          <mxGeometry width="30" height="30" as="geometry">
            <mxRectangle width="30" height="30" as="alternateBounds" />
          </mxGeometry>
        </mxCell>
        <mxCell id="CJhWm5E5vZRmMb6Nd0v4-790" value="finishDate" style="shape=partialRectangle;overflow=hidden;connectable=0;fillColor=none;top=0;left=0;bottom=0;right=0;align=left;spacingLeft=6;" vertex="1" parent="CJhWm5E5vZRmMb6Nd0v4-788">
          <mxGeometry x="30" width="120" height="30" as="geometry">
            <mxRectangle width="120" height="30" as="alternateBounds" />
          </mxGeometry>
        </mxCell>
        <mxCell id="CJhWm5E5vZRmMb6Nd0v4-791" value="" style="shape=partialRectangle;collapsible=0;dropTarget=0;pointerEvents=0;fillColor=none;points=[[0,0.5],[1,0.5]];portConstraint=eastwest;top=0;left=0;right=0;bottom=0;" vertex="1" parent="CJhWm5E5vZRmMb6Nd0v4-775">
          <mxGeometry y="180" width="150" height="30" as="geometry" />
        </mxCell>
        <mxCell id="CJhWm5E5vZRmMb6Nd0v4-792" value="" style="shape=partialRectangle;overflow=hidden;connectable=0;fillColor=none;top=0;left=0;bottom=0;right=0;" vertex="1" parent="CJhWm5E5vZRmMb6Nd0v4-791">
          <mxGeometry width="30" height="30" as="geometry">
            <mxRectangle width="30" height="30" as="alternateBounds" />
          </mxGeometry>
        </mxCell>
        <mxCell id="CJhWm5E5vZRmMb6Nd0v4-793" value="other Attributes" style="shape=partialRectangle;overflow=hidden;connectable=0;fillColor=none;top=0;left=0;bottom=0;right=0;align=left;spacingLeft=6;" vertex="1" parent="CJhWm5E5vZRmMb6Nd0v4-791">
          <mxGeometry x="30" width="120" height="30" as="geometry">
            <mxRectangle width="120" height="30" as="alternateBounds" />
          </mxGeometry>
        </mxCell>
        <mxCell id="CJhWm5E5vZRmMb6Nd0v4-794" value="" style="edgeStyle=entityRelationEdgeStyle;fontSize=12;html=1;endArrow=ERoneToMany;startArrow=ERmandOne;rounded=0;exitX=1;exitY=0.5;exitDx=0;exitDy=0;" edge="1" parent="1" source="CJhWm5E5vZRmMb6Nd0v4-643" target="CJhWm5E5vZRmMb6Nd0v4-665">
          <mxGeometry width="100" height="100" relative="1" as="geometry">
            <mxPoint x="1685" y="2120" as="sourcePoint" />
            <mxPoint x="1785" y="2020" as="targetPoint" />
          </mxGeometry>
        </mxCell>
        <mxCell id="CJhWm5E5vZRmMb6Nd0v4-795" value="" style="edgeStyle=entityRelationEdgeStyle;fontSize=12;html=1;endArrow=ERmandOne;rounded=0;exitX=1;exitY=0.5;exitDx=0;exitDy=0;entryX=0;entryY=0.5;entryDx=0;entryDy=0;" edge="1" parent="1" source="CJhWm5E5vZRmMb6Nd0v4-649" target="CJhWm5E5vZRmMb6Nd0v4-662">
          <mxGeometry width="100" height="100" relative="1" as="geometry">
            <mxPoint x="1685" y="2120" as="sourcePoint" />
            <mxPoint x="1785" y="2020" as="targetPoint" />
          </mxGeometry>
        </mxCell>
        <mxCell id="CJhWm5E5vZRmMb6Nd0v4-796" value="Project" style="shape=table;startSize=30;container=1;collapsible=1;childLayout=tableLayout;fixedRows=1;rowLines=0;fontStyle=1;align=center;resizeLast=1;" vertex="1" parent="1">
          <mxGeometry x="790" y="2290" width="120" height="130" as="geometry" />
        </mxCell>
        <mxCell id="CJhWm5E5vZRmMb6Nd0v4-797" value="" style="shape=partialRectangle;collapsible=0;dropTarget=0;pointerEvents=0;fillColor=none;points=[[0,0.5],[1,0.5]];portConstraint=eastwest;top=0;left=0;right=0;bottom=1;" vertex="1" parent="CJhWm5E5vZRmMb6Nd0v4-796">
          <mxGeometry y="30" width="120" height="30" as="geometry" />
        </mxCell>
        <mxCell id="CJhWm5E5vZRmMb6Nd0v4-798" value="PK" style="shape=partialRectangle;overflow=hidden;connectable=0;fillColor=none;top=0;left=0;bottom=0;right=0;fontStyle=1;" vertex="1" parent="CJhWm5E5vZRmMb6Nd0v4-797">
          <mxGeometry width="30" height="30" as="geometry">
            <mxRectangle width="30" height="30" as="alternateBounds" />
          </mxGeometry>
        </mxCell>
        <mxCell id="CJhWm5E5vZRmMb6Nd0v4-799" value="ID" style="shape=partialRectangle;overflow=hidden;connectable=0;fillColor=none;top=0;left=0;bottom=0;right=0;align=left;spacingLeft=6;fontStyle=5;" vertex="1" parent="CJhWm5E5vZRmMb6Nd0v4-797">
          <mxGeometry x="30" width="90" height="30" as="geometry">
            <mxRectangle width="90" height="30" as="alternateBounds" />
          </mxGeometry>
        </mxCell>
        <mxCell id="CJhWm5E5vZRmMb6Nd0v4-800" value="" style="shape=partialRectangle;collapsible=0;dropTarget=0;pointerEvents=0;fillColor=none;points=[[0,0.5],[1,0.5]];portConstraint=eastwest;top=0;left=0;right=0;bottom=0;" vertex="1" parent="CJhWm5E5vZRmMb6Nd0v4-796">
          <mxGeometry y="60" width="120" height="30" as="geometry" />
        </mxCell>
        <mxCell id="CJhWm5E5vZRmMb6Nd0v4-801" value="" style="shape=partialRectangle;overflow=hidden;connectable=0;fillColor=none;top=0;left=0;bottom=0;right=0;" vertex="1" parent="CJhWm5E5vZRmMb6Nd0v4-800">
          <mxGeometry width="30" height="30" as="geometry">
            <mxRectangle width="30" height="30" as="alternateBounds" />
          </mxGeometry>
        </mxCell>
        <mxCell id="CJhWm5E5vZRmMb6Nd0v4-802" value="name" style="shape=partialRectangle;overflow=hidden;connectable=0;fillColor=none;top=0;left=0;bottom=0;right=0;align=left;spacingLeft=6;" vertex="1" parent="CJhWm5E5vZRmMb6Nd0v4-800">
          <mxGeometry x="30" width="90" height="30" as="geometry">
            <mxRectangle width="90" height="30" as="alternateBounds" />
          </mxGeometry>
        </mxCell>
        <mxCell id="CJhWm5E5vZRmMb6Nd0v4-803" value="" style="shape=partialRectangle;collapsible=0;dropTarget=0;pointerEvents=0;fillColor=none;points=[[0,0.5],[1,0.5]];portConstraint=eastwest;top=0;left=0;right=0;bottom=0;" vertex="1" parent="CJhWm5E5vZRmMb6Nd0v4-796">
          <mxGeometry y="90" width="120" height="30" as="geometry" />
        </mxCell>
        <mxCell id="CJhWm5E5vZRmMb6Nd0v4-804" value="" style="shape=partialRectangle;overflow=hidden;connectable=0;fillColor=none;top=0;left=0;bottom=0;right=0;" vertex="1" parent="CJhWm5E5vZRmMb6Nd0v4-803">
          <mxGeometry width="30" height="30" as="geometry">
            <mxRectangle width="30" height="30" as="alternateBounds" />
          </mxGeometry>
        </mxCell>
        <mxCell id="CJhWm5E5vZRmMb6Nd0v4-805" value="other Attributes" style="shape=partialRectangle;overflow=hidden;connectable=0;fillColor=none;top=0;left=0;bottom=0;right=0;align=left;spacingLeft=6;" vertex="1" parent="CJhWm5E5vZRmMb6Nd0v4-803">
          <mxGeometry x="30" width="90" height="30" as="geometry">
            <mxRectangle width="90" height="30" as="alternateBounds" />
          </mxGeometry>
        </mxCell>
        <mxCell id="CJhWm5E5vZRmMb6Nd0v4-806" value="" style="edgeStyle=entityRelationEdgeStyle;endArrow=ERzeroToMany;startArrow=ERone;endFill=1;startFill=0;exitX=1;exitY=0.5;exitDx=0;exitDy=0;entryX=0;entryY=0.5;entryDx=0;entryDy=0;" edge="1" parent="1" source="CJhWm5E5vZRmMb6Nd0v4-797" target="CJhWm5E5vZRmMb6Nd0v4-674">
          <mxGeometry width="100" height="100" relative="1" as="geometry">
            <mxPoint x="975" y="2345" as="sourcePoint" />
            <mxPoint x="1055" y="2375" as="targetPoint" />
          </mxGeometry>
        </mxCell>
        <mxCell id="CJhWm5E5vZRmMb6Nd0v4-807" value="" style="edgeStyle=entityRelationEdgeStyle;endArrow=ERzeroToMany;startArrow=ERone;endFill=1;startFill=0;entryX=1;entryY=0.5;entryDx=0;entryDy=0;exitX=1;exitY=0.5;exitDx=0;exitDy=0;" edge="1" parent="1" source="CJhWm5E5vZRmMb6Nd0v4-797" target="CJhWm5E5vZRmMb6Nd0v4-655">
          <mxGeometry width="100" height="100" relative="1" as="geometry">
            <mxPoint x="1055" y="2320" as="sourcePoint" />
            <mxPoint x="1065" y="2385" as="targetPoint" />
          </mxGeometry>
        </mxCell>
        <mxCell id="CJhWm5E5vZRmMb6Nd0v4-808" value="ProjectPlan" style="shape=table;startSize=30;container=1;collapsible=1;childLayout=tableLayout;fixedRows=1;rowLines=0;fontStyle=1;align=center;resizeLast=1;" vertex="1" parent="1">
          <mxGeometry x="990" y="2290" width="120" height="160" as="geometry" />
        </mxCell>
        <mxCell id="CJhWm5E5vZRmMb6Nd0v4-809" value="" style="shape=partialRectangle;collapsible=0;dropTarget=0;pointerEvents=0;fillColor=none;points=[[0,0.5],[1,0.5]];portConstraint=eastwest;top=0;left=0;right=0;bottom=1;" vertex="1" parent="CJhWm5E5vZRmMb6Nd0v4-808">
          <mxGeometry y="30" width="120" height="30" as="geometry" />
        </mxCell>
        <mxCell id="CJhWm5E5vZRmMb6Nd0v4-810" value="PK" style="shape=partialRectangle;overflow=hidden;connectable=0;fillColor=none;top=0;left=0;bottom=0;right=0;fontStyle=1;" vertex="1" parent="CJhWm5E5vZRmMb6Nd0v4-809">
          <mxGeometry width="30" height="30" as="geometry">
            <mxRectangle width="30" height="30" as="alternateBounds" />
          </mxGeometry>
        </mxCell>
        <mxCell id="CJhWm5E5vZRmMb6Nd0v4-811" value="ID" style="shape=partialRectangle;overflow=hidden;connectable=0;fillColor=none;top=0;left=0;bottom=0;right=0;align=left;spacingLeft=6;fontStyle=5;" vertex="1" parent="CJhWm5E5vZRmMb6Nd0v4-809">
          <mxGeometry x="30" width="90" height="30" as="geometry">
            <mxRectangle width="90" height="30" as="alternateBounds" />
          </mxGeometry>
        </mxCell>
        <mxCell id="CJhWm5E5vZRmMb6Nd0v4-812" value="" style="shape=partialRectangle;collapsible=0;dropTarget=0;pointerEvents=0;fillColor=none;points=[[0,0.5],[1,0.5]];portConstraint=eastwest;top=0;left=0;right=0;bottom=0;" vertex="1" parent="CJhWm5E5vZRmMb6Nd0v4-808">
          <mxGeometry y="60" width="120" height="30" as="geometry" />
        </mxCell>
        <mxCell id="CJhWm5E5vZRmMb6Nd0v4-813" value="" style="shape=partialRectangle;overflow=hidden;connectable=0;fillColor=none;top=0;left=0;bottom=0;right=0;" vertex="1" parent="CJhWm5E5vZRmMb6Nd0v4-812">
          <mxGeometry width="30" height="30" as="geometry">
            <mxRectangle width="30" height="30" as="alternateBounds" />
          </mxGeometry>
        </mxCell>
        <mxCell id="CJhWm5E5vZRmMb6Nd0v4-814" value="name" style="shape=partialRectangle;overflow=hidden;connectable=0;fillColor=none;top=0;left=0;bottom=0;right=0;align=left;spacingLeft=6;" vertex="1" parent="CJhWm5E5vZRmMb6Nd0v4-812">
          <mxGeometry x="30" width="90" height="30" as="geometry">
            <mxRectangle width="90" height="30" as="alternateBounds" />
          </mxGeometry>
        </mxCell>
        <mxCell id="CJhWm5E5vZRmMb6Nd0v4-815" value="" style="shape=partialRectangle;collapsible=0;dropTarget=0;pointerEvents=0;fillColor=none;points=[[0,0.5],[1,0.5]];portConstraint=eastwest;top=0;left=0;right=0;bottom=0;" vertex="1" parent="CJhWm5E5vZRmMb6Nd0v4-808">
          <mxGeometry y="90" width="120" height="30" as="geometry" />
        </mxCell>
        <mxCell id="CJhWm5E5vZRmMb6Nd0v4-816" value="" style="shape=partialRectangle;overflow=hidden;connectable=0;fillColor=none;top=0;left=0;bottom=0;right=0;" vertex="1" parent="CJhWm5E5vZRmMb6Nd0v4-815">
          <mxGeometry width="30" height="30" as="geometry">
            <mxRectangle width="30" height="30" as="alternateBounds" />
          </mxGeometry>
        </mxCell>
        <mxCell id="CJhWm5E5vZRmMb6Nd0v4-817" value="ProjectID" style="shape=partialRectangle;overflow=hidden;connectable=0;fillColor=none;top=0;left=0;bottom=0;right=0;align=left;spacingLeft=6;" vertex="1" parent="CJhWm5E5vZRmMb6Nd0v4-815">
          <mxGeometry x="30" width="90" height="30" as="geometry">
            <mxRectangle width="90" height="30" as="alternateBounds" />
          </mxGeometry>
        </mxCell>
        <mxCell id="CJhWm5E5vZRmMb6Nd0v4-818" value="" style="shape=partialRectangle;collapsible=0;dropTarget=0;pointerEvents=0;fillColor=none;points=[[0,0.5],[1,0.5]];portConstraint=eastwest;top=0;left=0;right=0;bottom=0;" vertex="1" parent="CJhWm5E5vZRmMb6Nd0v4-808">
          <mxGeometry y="120" width="120" height="30" as="geometry" />
        </mxCell>
        <mxCell id="CJhWm5E5vZRmMb6Nd0v4-819" value="" style="shape=partialRectangle;overflow=hidden;connectable=0;fillColor=none;top=0;left=0;bottom=0;right=0;" vertex="1" parent="CJhWm5E5vZRmMb6Nd0v4-818">
          <mxGeometry width="30" height="30" as="geometry">
            <mxRectangle width="30" height="30" as="alternateBounds" />
          </mxGeometry>
        </mxCell>
        <mxCell id="CJhWm5E5vZRmMb6Nd0v4-820" value="other Attributes" style="shape=partialRectangle;overflow=hidden;connectable=0;fillColor=none;top=0;left=0;bottom=0;right=0;align=left;spacingLeft=6;" vertex="1" parent="CJhWm5E5vZRmMb6Nd0v4-818">
          <mxGeometry x="30" width="90" height="30" as="geometry">
            <mxRectangle width="90" height="30" as="alternateBounds" />
          </mxGeometry>
        </mxCell>
        <mxCell id="CJhWm5E5vZRmMb6Nd0v4-821" value="" style="edgeStyle=entityRelationEdgeStyle;endArrow=ERzeroToMany;startArrow=ERone;endFill=1;startFill=0;exitX=1;exitY=0.5;exitDx=0;exitDy=0;" edge="1" parent="1" source="CJhWm5E5vZRmMb6Nd0v4-797" target="CJhWm5E5vZRmMb6Nd0v4-815">
          <mxGeometry width="100" height="100" relative="1" as="geometry">
            <mxPoint x="920" y="2345" as="sourcePoint" />
            <mxPoint x="1025" y="2135" as="targetPoint" />
          </mxGeometry>
        </mxCell>
        <mxCell id="CJhWm5E5vZRmMb6Nd0v4-822" value="" style="edgeStyle=entityRelationEdgeStyle;endArrow=ERzeroToMany;startArrow=ERone;endFill=1;startFill=0;exitX=1;exitY=0.5;exitDx=0;exitDy=0;" edge="1" parent="1" source="CJhWm5E5vZRmMb6Nd0v4-684">
          <mxGeometry width="100" height="100" relative="1" as="geometry">
            <mxPoint x="1355" y="1295" as="sourcePoint" />
            <mxPoint x="1422" y="1985" as="targetPoint" />
          </mxGeometry>
        </mxCell>
        <mxCell id="CJhWm5E5vZRmMb6Nd0v4-823" value="" style="edgeStyle=entityRelationEdgeStyle;endArrow=ERzeroToMany;startArrow=ERone;endFill=1;startFill=0;exitX=1;exitY=0.5;exitDx=0;exitDy=0;entryX=0;entryY=0.5;entryDx=0;entryDy=0;" edge="1" parent="1" source="CJhWm5E5vZRmMb6Nd0v4-684" target="CJhWm5E5vZRmMb6Nd0v4-782">
          <mxGeometry width="100" height="100" relative="1" as="geometry">
            <mxPoint x="1367" y="1905" as="sourcePoint" />
            <mxPoint x="1432" y="1995" as="targetPoint" />
          </mxGeometry>
        </mxCell>
        <mxCell id="CJhWm5E5vZRmMb6Nd0v4-824" value="" style="edgeStyle=entityRelationEdgeStyle;fontSize=12;html=1;endArrow=ERoneToMany;startArrow=ERmandOne;rounded=0;entryX=1;entryY=0.5;entryDx=0;entryDy=0;exitX=0;exitY=0.5;exitDx=0;exitDy=0;" edge="1" parent="1" source="CJhWm5E5vZRmMb6Nd0v4-715" target="CJhWm5E5vZRmMb6Nd0v4-680">
          <mxGeometry width="100" height="100" relative="1" as="geometry">
            <mxPoint x="1655" y="2190" as="sourcePoint" />
            <mxPoint x="1755" y="2090" as="targetPoint" />
          </mxGeometry>
        </mxCell>
        <mxCell id="CJhWm5E5vZRmMb6Nd0v4-825" value="" style="edgeStyle=entityRelationEdgeStyle;fontSize=12;html=1;endArrow=ERoneToMany;startArrow=ERmandOne;rounded=0;entryX=1;entryY=0.5;entryDx=0;entryDy=0;exitX=0;exitY=0.5;exitDx=0;exitDy=0;" edge="1" parent="1" source="CJhWm5E5vZRmMb6Nd0v4-684" target="CJhWm5E5vZRmMb6Nd0v4-680">
          <mxGeometry width="100" height="100" relative="1" as="geometry">
            <mxPoint x="1237" y="2295" as="sourcePoint" />
            <mxPoint x="1175" y="2075" as="targetPoint" />
          </mxGeometry>
        </mxCell>
        <mxCell id="CJhWm5E5vZRmMb6Nd0v4-826" value="" style="edgeStyle=entityRelationEdgeStyle;fontSize=12;html=1;endArrow=ERoneToMany;startArrow=ERmandOne;rounded=0;entryX=1;entryY=0.5;entryDx=0;entryDy=0;exitX=0;exitY=0.5;exitDx=0;exitDy=0;" edge="1" parent="1" source="CJhWm5E5vZRmMb6Nd0v4-809" target="CJhWm5E5vZRmMb6Nd0v4-646">
          <mxGeometry width="100" height="100" relative="1" as="geometry">
            <mxPoint x="1655" y="2350" as="sourcePoint" />
            <mxPoint x="1755" y="2250" as="targetPoint" />
          </mxGeometry>
        </mxCell>
        <mxCell id="CJhWm5E5vZRmMb6Nd0v4-830" value="" style="edgeStyle=entityRelationEdgeStyle;endArrow=ERzeroToMany;startArrow=ERone;endFill=1;startFill=0;exitX=1;exitY=0.5;exitDx=0;exitDy=0;" edge="1" parent="1" source="CJhWm5E5vZRmMb6Nd0v4-79" target="CJhWm5E5vZRmMb6Nd0v4-358">
          <mxGeometry width="100" height="100" relative="1" as="geometry">
            <mxPoint x="710" y="780" as="sourcePoint" />
            <mxPoint x="787" y="875" as="targetPoint" />
          </mxGeometry>
        </mxCell>
        <mxCell id="CJhWm5E5vZRmMb6Nd0v4-831" value="" style="edgeStyle=entityRelationEdgeStyle;endArrow=ERzeroToMany;startArrow=ERone;endFill=1;startFill=0;exitX=1;exitY=0.5;exitDx=0;exitDy=0;" edge="1" parent="1" source="CJhWm5E5vZRmMb6Nd0v4-684" target="CJhWm5E5vZRmMb6Nd0v4-766">
          <mxGeometry width="100" height="100" relative="1" as="geometry">
            <mxPoint x="1360" y="1900" as="sourcePoint" />
            <mxPoint x="1432" y="1995" as="targetPoint" />
          </mxGeometry>
        </mxCell>
      </root>
    </mxGraphModel>
  </diagram>
</mxfile>
